G04 #@! TF.GenerationSoftware,KiCad,Pcbnew,5.1.2-f72e74a~84~ubuntu18.04.1*
G04 #@! TF.CreationDate,2019-06-19T14:53:36+07:00*
G04 #@! TF.ProjectId,serial_matrix_keyboard_shild,73657269-616c-45f6-9d61-747269785f6b,rev?*
G04 #@! TF.SameCoordinates,Original*
G04 #@! TF.FileFunction,Legend,Bot*
G04 #@! TF.FilePolarity,Positive*
%FSLAX46Y46*%
G04 Gerber Fmt 4.6, Leading zero omitted, Abs format (unit mm)*
G04 Created by KiCad (PCBNEW 5.1.2-f72e74a~84~ubuntu18.04.1) date 2019-06-19 14:53:36*
%MOMM*%
%LPD*%
G04 APERTURE LIST*
%ADD10C,0.120000*%
%ADD11C,0.150000*%
%ADD12C,0.100000*%
%ADD13C,1.252000*%
%ADD14C,1.452000*%
%ADD15R,1.102000X1.102000*%
%ADD16R,1.802000X1.802000*%
%ADD17O,1.802000X1.802000*%
G04 APERTURE END LIST*
D10*
X201090000Y-100538748D02*
X201090000Y-101061252D01*
X202510000Y-100538748D02*
X202510000Y-101061252D01*
X219500000Y-102735000D02*
X215415000Y-102735000D01*
X215415000Y-102735000D02*
X215415000Y-100865000D01*
X215415000Y-100865000D02*
X219500000Y-100865000D01*
X212550000Y-92600000D02*
X210850000Y-92600000D01*
X210850000Y-92600000D02*
X210850000Y-89450000D01*
X212550000Y-92600000D02*
X212550000Y-89450000D01*
X215150000Y-92600000D02*
X215150000Y-89450000D01*
X213450000Y-92600000D02*
X213450000Y-89450000D01*
X215150000Y-92600000D02*
X213450000Y-92600000D01*
X217650000Y-92600000D02*
X215950000Y-92600000D01*
X215950000Y-92600000D02*
X215950000Y-89450000D01*
X217650000Y-92600000D02*
X217650000Y-89450000D01*
X220250000Y-92600000D02*
X220250000Y-89450000D01*
X218550000Y-92600000D02*
X218550000Y-89450000D01*
X220250000Y-92600000D02*
X218550000Y-92600000D01*
X222750000Y-92600000D02*
X221050000Y-92600000D01*
X221050000Y-92600000D02*
X221050000Y-89450000D01*
X222750000Y-92600000D02*
X222750000Y-89450000D01*
X208810000Y-101061252D02*
X208810000Y-100538748D01*
X207390000Y-101061252D02*
X207390000Y-100538748D01*
X199710000Y-90288748D02*
X199710000Y-90811252D01*
X198290000Y-90288748D02*
X198290000Y-90811252D01*
X200890000Y-90288748D02*
X200890000Y-90811252D01*
X202310000Y-90288748D02*
X202310000Y-90811252D01*
X204810000Y-90288748D02*
X204810000Y-90811252D01*
X203390000Y-90288748D02*
X203390000Y-90811252D01*
X205990000Y-90288748D02*
X205990000Y-90811252D01*
X207410000Y-90288748D02*
X207410000Y-90811252D01*
X209910000Y-90288748D02*
X209910000Y-90811252D01*
X208490000Y-90288748D02*
X208490000Y-90811252D01*
D11*
X202066666Y-98657142D02*
X202114285Y-98704761D01*
X202257142Y-98752380D01*
X202352380Y-98752380D01*
X202495238Y-98704761D01*
X202590476Y-98609523D01*
X202638095Y-98514285D01*
X202685714Y-98323809D01*
X202685714Y-98180952D01*
X202638095Y-97990476D01*
X202590476Y-97895238D01*
X202495238Y-97800000D01*
X202352380Y-97752380D01*
X202257142Y-97752380D01*
X202114285Y-97800000D01*
X202066666Y-97847619D01*
X201161904Y-97752380D02*
X201638095Y-97752380D01*
X201685714Y-98228571D01*
X201638095Y-98180952D01*
X201542857Y-98133333D01*
X201304761Y-98133333D01*
X201209523Y-98180952D01*
X201161904Y-98228571D01*
X201114285Y-98323809D01*
X201114285Y-98561904D01*
X201161904Y-98657142D01*
X201209523Y-98704761D01*
X201304761Y-98752380D01*
X201542857Y-98752380D01*
X201638095Y-98704761D01*
X201685714Y-98657142D01*
X216466666Y-100457142D02*
X216514285Y-100504761D01*
X216657142Y-100552380D01*
X216752380Y-100552380D01*
X216895238Y-100504761D01*
X216990476Y-100409523D01*
X217038095Y-100314285D01*
X217085714Y-100123809D01*
X217085714Y-99980952D01*
X217038095Y-99790476D01*
X216990476Y-99695238D01*
X216895238Y-99600000D01*
X216752380Y-99552380D01*
X216657142Y-99552380D01*
X216514285Y-99600000D01*
X216466666Y-99647619D01*
X215609523Y-99885714D02*
X215609523Y-100552380D01*
X215847619Y-99504761D02*
X216085714Y-100219047D01*
X215466666Y-100219047D01*
X212438095Y-93952380D02*
X212438095Y-92952380D01*
X212200000Y-92952380D01*
X212057142Y-93000000D01*
X211961904Y-93095238D01*
X211914285Y-93190476D01*
X211866666Y-93380952D01*
X211866666Y-93523809D01*
X211914285Y-93714285D01*
X211961904Y-93809523D01*
X212057142Y-93904761D01*
X212200000Y-93952380D01*
X212438095Y-93952380D01*
X210914285Y-93952380D02*
X211485714Y-93952380D01*
X211200000Y-93952380D02*
X211200000Y-92952380D01*
X211295238Y-93095238D01*
X211390476Y-93190476D01*
X211485714Y-93238095D01*
X215138095Y-93952380D02*
X215138095Y-92952380D01*
X214900000Y-92952380D01*
X214757142Y-93000000D01*
X214661904Y-93095238D01*
X214614285Y-93190476D01*
X214566666Y-93380952D01*
X214566666Y-93523809D01*
X214614285Y-93714285D01*
X214661904Y-93809523D01*
X214757142Y-93904761D01*
X214900000Y-93952380D01*
X215138095Y-93952380D01*
X214185714Y-93047619D02*
X214138095Y-93000000D01*
X214042857Y-92952380D01*
X213804761Y-92952380D01*
X213709523Y-93000000D01*
X213661904Y-93047619D01*
X213614285Y-93142857D01*
X213614285Y-93238095D01*
X213661904Y-93380952D01*
X214233333Y-93952380D01*
X213614285Y-93952380D01*
X217538095Y-93952380D02*
X217538095Y-92952380D01*
X217300000Y-92952380D01*
X217157142Y-93000000D01*
X217061904Y-93095238D01*
X217014285Y-93190476D01*
X216966666Y-93380952D01*
X216966666Y-93523809D01*
X217014285Y-93714285D01*
X217061904Y-93809523D01*
X217157142Y-93904761D01*
X217300000Y-93952380D01*
X217538095Y-93952380D01*
X216633333Y-92952380D02*
X216014285Y-92952380D01*
X216347619Y-93333333D01*
X216204761Y-93333333D01*
X216109523Y-93380952D01*
X216061904Y-93428571D01*
X216014285Y-93523809D01*
X216014285Y-93761904D01*
X216061904Y-93857142D01*
X216109523Y-93904761D01*
X216204761Y-93952380D01*
X216490476Y-93952380D01*
X216585714Y-93904761D01*
X216633333Y-93857142D01*
X220138095Y-93952380D02*
X220138095Y-92952380D01*
X219900000Y-92952380D01*
X219757142Y-93000000D01*
X219661904Y-93095238D01*
X219614285Y-93190476D01*
X219566666Y-93380952D01*
X219566666Y-93523809D01*
X219614285Y-93714285D01*
X219661904Y-93809523D01*
X219757142Y-93904761D01*
X219900000Y-93952380D01*
X220138095Y-93952380D01*
X218709523Y-93285714D02*
X218709523Y-93952380D01*
X218947619Y-92904761D02*
X219185714Y-93619047D01*
X218566666Y-93619047D01*
X222638095Y-93952380D02*
X222638095Y-92952380D01*
X222400000Y-92952380D01*
X222257142Y-93000000D01*
X222161904Y-93095238D01*
X222114285Y-93190476D01*
X222066666Y-93380952D01*
X222066666Y-93523809D01*
X222114285Y-93714285D01*
X222161904Y-93809523D01*
X222257142Y-93904761D01*
X222400000Y-93952380D01*
X222638095Y-93952380D01*
X221161904Y-92952380D02*
X221638095Y-92952380D01*
X221685714Y-93428571D01*
X221638095Y-93380952D01*
X221542857Y-93333333D01*
X221304761Y-93333333D01*
X221209523Y-93380952D01*
X221161904Y-93428571D01*
X221114285Y-93523809D01*
X221114285Y-93761904D01*
X221161904Y-93857142D01*
X221209523Y-93904761D01*
X221304761Y-93952380D01*
X221542857Y-93952380D01*
X221638095Y-93904761D01*
X221685714Y-93857142D01*
X208266666Y-98852380D02*
X208600000Y-98376190D01*
X208838095Y-98852380D02*
X208838095Y-97852380D01*
X208457142Y-97852380D01*
X208361904Y-97900000D01*
X208314285Y-97947619D01*
X208266666Y-98042857D01*
X208266666Y-98185714D01*
X208314285Y-98280952D01*
X208361904Y-98328571D01*
X208457142Y-98376190D01*
X208838095Y-98376190D01*
X207314285Y-98852380D02*
X207885714Y-98852380D01*
X207600000Y-98852380D02*
X207600000Y-97852380D01*
X207695238Y-97995238D01*
X207790476Y-98090476D01*
X207885714Y-98138095D01*
X199166666Y-93552380D02*
X199500000Y-93076190D01*
X199738095Y-93552380D02*
X199738095Y-92552380D01*
X199357142Y-92552380D01*
X199261904Y-92600000D01*
X199214285Y-92647619D01*
X199166666Y-92742857D01*
X199166666Y-92885714D01*
X199214285Y-92980952D01*
X199261904Y-93028571D01*
X199357142Y-93076190D01*
X199738095Y-93076190D01*
X198785714Y-92647619D02*
X198738095Y-92600000D01*
X198642857Y-92552380D01*
X198404761Y-92552380D01*
X198309523Y-92600000D01*
X198261904Y-92647619D01*
X198214285Y-92742857D01*
X198214285Y-92838095D01*
X198261904Y-92980952D01*
X198833333Y-93552380D01*
X198214285Y-93552380D01*
X201766666Y-93552380D02*
X202100000Y-93076190D01*
X202338095Y-93552380D02*
X202338095Y-92552380D01*
X201957142Y-92552380D01*
X201861904Y-92600000D01*
X201814285Y-92647619D01*
X201766666Y-92742857D01*
X201766666Y-92885714D01*
X201814285Y-92980952D01*
X201861904Y-93028571D01*
X201957142Y-93076190D01*
X202338095Y-93076190D01*
X201433333Y-92552380D02*
X200814285Y-92552380D01*
X201147619Y-92933333D01*
X201004761Y-92933333D01*
X200909523Y-92980952D01*
X200861904Y-93028571D01*
X200814285Y-93123809D01*
X200814285Y-93361904D01*
X200861904Y-93457142D01*
X200909523Y-93504761D01*
X201004761Y-93552380D01*
X201290476Y-93552380D01*
X201385714Y-93504761D01*
X201433333Y-93457142D01*
X204266666Y-93552380D02*
X204600000Y-93076190D01*
X204838095Y-93552380D02*
X204838095Y-92552380D01*
X204457142Y-92552380D01*
X204361904Y-92600000D01*
X204314285Y-92647619D01*
X204266666Y-92742857D01*
X204266666Y-92885714D01*
X204314285Y-92980952D01*
X204361904Y-93028571D01*
X204457142Y-93076190D01*
X204838095Y-93076190D01*
X203409523Y-92885714D02*
X203409523Y-93552380D01*
X203647619Y-92504761D02*
X203885714Y-93219047D01*
X203266666Y-93219047D01*
X206866666Y-93552380D02*
X207200000Y-93076190D01*
X207438095Y-93552380D02*
X207438095Y-92552380D01*
X207057142Y-92552380D01*
X206961904Y-92600000D01*
X206914285Y-92647619D01*
X206866666Y-92742857D01*
X206866666Y-92885714D01*
X206914285Y-92980952D01*
X206961904Y-93028571D01*
X207057142Y-93076190D01*
X207438095Y-93076190D01*
X205961904Y-92552380D02*
X206438095Y-92552380D01*
X206485714Y-93028571D01*
X206438095Y-92980952D01*
X206342857Y-92933333D01*
X206104761Y-92933333D01*
X206009523Y-92980952D01*
X205961904Y-93028571D01*
X205914285Y-93123809D01*
X205914285Y-93361904D01*
X205961904Y-93457142D01*
X206009523Y-93504761D01*
X206104761Y-93552380D01*
X206342857Y-93552380D01*
X206438095Y-93504761D01*
X206485714Y-93457142D01*
X209366666Y-93552380D02*
X209700000Y-93076190D01*
X209938095Y-93552380D02*
X209938095Y-92552380D01*
X209557142Y-92552380D01*
X209461904Y-92600000D01*
X209414285Y-92647619D01*
X209366666Y-92742857D01*
X209366666Y-92885714D01*
X209414285Y-92980952D01*
X209461904Y-93028571D01*
X209557142Y-93076190D01*
X209938095Y-93076190D01*
X208509523Y-92552380D02*
X208700000Y-92552380D01*
X208795238Y-92600000D01*
X208842857Y-92647619D01*
X208938095Y-92790476D01*
X208985714Y-92980952D01*
X208985714Y-93361904D01*
X208938095Y-93457142D01*
X208890476Y-93504761D01*
X208795238Y-93552380D01*
X208604761Y-93552380D01*
X208509523Y-93504761D01*
X208461904Y-93457142D01*
X208414285Y-93361904D01*
X208414285Y-93123809D01*
X208461904Y-93028571D01*
X208509523Y-92980952D01*
X208604761Y-92933333D01*
X208795238Y-92933333D01*
X208890476Y-92980952D01*
X208938095Y-93028571D01*
X208985714Y-93123809D01*
%LPC*%
D12*
G36*
X202305505Y-99150311D02*
G01*
X202331925Y-99154230D01*
X202357835Y-99160720D01*
X202382983Y-99169718D01*
X202407128Y-99181138D01*
X202430038Y-99194869D01*
X202451492Y-99210780D01*
X202471282Y-99228718D01*
X202489220Y-99248508D01*
X202505131Y-99269962D01*
X202518862Y-99292872D01*
X202530282Y-99317017D01*
X202539280Y-99342165D01*
X202545770Y-99368075D01*
X202549689Y-99394495D01*
X202551000Y-99421173D01*
X202551000Y-100128827D01*
X202549689Y-100155505D01*
X202545770Y-100181925D01*
X202539280Y-100207835D01*
X202530282Y-100232983D01*
X202518862Y-100257128D01*
X202505131Y-100280038D01*
X202489220Y-100301492D01*
X202471282Y-100321282D01*
X202451492Y-100339220D01*
X202430038Y-100355131D01*
X202407128Y-100368862D01*
X202382983Y-100380282D01*
X202357835Y-100389280D01*
X202331925Y-100395770D01*
X202305505Y-100399689D01*
X202278827Y-100401000D01*
X201321173Y-100401000D01*
X201294495Y-100399689D01*
X201268075Y-100395770D01*
X201242165Y-100389280D01*
X201217017Y-100380282D01*
X201192872Y-100368862D01*
X201169962Y-100355131D01*
X201148508Y-100339220D01*
X201128718Y-100321282D01*
X201110780Y-100301492D01*
X201094869Y-100280038D01*
X201081138Y-100257128D01*
X201069718Y-100232983D01*
X201060720Y-100207835D01*
X201054230Y-100181925D01*
X201050311Y-100155505D01*
X201049000Y-100128827D01*
X201049000Y-99421173D01*
X201050311Y-99394495D01*
X201054230Y-99368075D01*
X201060720Y-99342165D01*
X201069718Y-99317017D01*
X201081138Y-99292872D01*
X201094869Y-99269962D01*
X201110780Y-99248508D01*
X201128718Y-99228718D01*
X201148508Y-99210780D01*
X201169962Y-99194869D01*
X201192872Y-99181138D01*
X201217017Y-99169718D01*
X201242165Y-99160720D01*
X201268075Y-99154230D01*
X201294495Y-99150311D01*
X201321173Y-99149000D01*
X202278827Y-99149000D01*
X202305505Y-99150311D01*
X202305505Y-99150311D01*
G37*
D13*
X201800000Y-99775000D03*
D12*
G36*
X202305505Y-101200311D02*
G01*
X202331925Y-101204230D01*
X202357835Y-101210720D01*
X202382983Y-101219718D01*
X202407128Y-101231138D01*
X202430038Y-101244869D01*
X202451492Y-101260780D01*
X202471282Y-101278718D01*
X202489220Y-101298508D01*
X202505131Y-101319962D01*
X202518862Y-101342872D01*
X202530282Y-101367017D01*
X202539280Y-101392165D01*
X202545770Y-101418075D01*
X202549689Y-101444495D01*
X202551000Y-101471173D01*
X202551000Y-102178827D01*
X202549689Y-102205505D01*
X202545770Y-102231925D01*
X202539280Y-102257835D01*
X202530282Y-102282983D01*
X202518862Y-102307128D01*
X202505131Y-102330038D01*
X202489220Y-102351492D01*
X202471282Y-102371282D01*
X202451492Y-102389220D01*
X202430038Y-102405131D01*
X202407128Y-102418862D01*
X202382983Y-102430282D01*
X202357835Y-102439280D01*
X202331925Y-102445770D01*
X202305505Y-102449689D01*
X202278827Y-102451000D01*
X201321173Y-102451000D01*
X201294495Y-102449689D01*
X201268075Y-102445770D01*
X201242165Y-102439280D01*
X201217017Y-102430282D01*
X201192872Y-102418862D01*
X201169962Y-102405131D01*
X201148508Y-102389220D01*
X201128718Y-102371282D01*
X201110780Y-102351492D01*
X201094869Y-102330038D01*
X201081138Y-102307128D01*
X201069718Y-102282983D01*
X201060720Y-102257835D01*
X201054230Y-102231925D01*
X201050311Y-102205505D01*
X201049000Y-102178827D01*
X201049000Y-101471173D01*
X201050311Y-101444495D01*
X201054230Y-101418075D01*
X201060720Y-101392165D01*
X201069718Y-101367017D01*
X201081138Y-101342872D01*
X201094869Y-101319962D01*
X201110780Y-101298508D01*
X201128718Y-101278718D01*
X201148508Y-101260780D01*
X201169962Y-101244869D01*
X201192872Y-101231138D01*
X201217017Y-101219718D01*
X201242165Y-101210720D01*
X201268075Y-101204230D01*
X201294495Y-101200311D01*
X201321173Y-101199000D01*
X202278827Y-101199000D01*
X202305505Y-101200311D01*
X202305505Y-101200311D01*
G37*
D13*
X201800000Y-101825000D03*
D12*
G36*
X217058468Y-101075295D02*
G01*
X217084569Y-101079167D01*
X217110166Y-101085578D01*
X217135011Y-101094468D01*
X217158865Y-101105750D01*
X217181498Y-101119316D01*
X217202693Y-101135035D01*
X217222245Y-101152755D01*
X217239965Y-101172307D01*
X217255684Y-101193502D01*
X217269250Y-101216135D01*
X217280532Y-101239989D01*
X217289422Y-101264834D01*
X217295833Y-101290431D01*
X217299705Y-101316532D01*
X217301000Y-101342888D01*
X217301000Y-102257112D01*
X217299705Y-102283468D01*
X217295833Y-102309569D01*
X217289422Y-102335166D01*
X217280532Y-102360011D01*
X217269250Y-102383865D01*
X217255684Y-102406498D01*
X217239965Y-102427693D01*
X217222245Y-102447245D01*
X217202693Y-102464965D01*
X217181498Y-102480684D01*
X217158865Y-102494250D01*
X217135011Y-102505532D01*
X217110166Y-102514422D01*
X217084569Y-102520833D01*
X217058468Y-102524705D01*
X217032112Y-102526000D01*
X215892888Y-102526000D01*
X215866532Y-102524705D01*
X215840431Y-102520833D01*
X215814834Y-102514422D01*
X215789989Y-102505532D01*
X215766135Y-102494250D01*
X215743502Y-102480684D01*
X215722307Y-102464965D01*
X215702755Y-102447245D01*
X215685035Y-102427693D01*
X215669316Y-102406498D01*
X215655750Y-102383865D01*
X215644468Y-102360011D01*
X215635578Y-102335166D01*
X215629167Y-102309569D01*
X215625295Y-102283468D01*
X215624000Y-102257112D01*
X215624000Y-101342888D01*
X215625295Y-101316532D01*
X215629167Y-101290431D01*
X215635578Y-101264834D01*
X215644468Y-101239989D01*
X215655750Y-101216135D01*
X215669316Y-101193502D01*
X215685035Y-101172307D01*
X215702755Y-101152755D01*
X215722307Y-101135035D01*
X215743502Y-101119316D01*
X215766135Y-101105750D01*
X215789989Y-101094468D01*
X215814834Y-101085578D01*
X215840431Y-101079167D01*
X215866532Y-101075295D01*
X215892888Y-101074000D01*
X217032112Y-101074000D01*
X217058468Y-101075295D01*
X217058468Y-101075295D01*
G37*
D14*
X216462500Y-101800000D03*
D12*
G36*
X219933468Y-101075295D02*
G01*
X219959569Y-101079167D01*
X219985166Y-101085578D01*
X220010011Y-101094468D01*
X220033865Y-101105750D01*
X220056498Y-101119316D01*
X220077693Y-101135035D01*
X220097245Y-101152755D01*
X220114965Y-101172307D01*
X220130684Y-101193502D01*
X220144250Y-101216135D01*
X220155532Y-101239989D01*
X220164422Y-101264834D01*
X220170833Y-101290431D01*
X220174705Y-101316532D01*
X220176000Y-101342888D01*
X220176000Y-102257112D01*
X220174705Y-102283468D01*
X220170833Y-102309569D01*
X220164422Y-102335166D01*
X220155532Y-102360011D01*
X220144250Y-102383865D01*
X220130684Y-102406498D01*
X220114965Y-102427693D01*
X220097245Y-102447245D01*
X220077693Y-102464965D01*
X220056498Y-102480684D01*
X220033865Y-102494250D01*
X220010011Y-102505532D01*
X219985166Y-102514422D01*
X219959569Y-102520833D01*
X219933468Y-102524705D01*
X219907112Y-102526000D01*
X218767888Y-102526000D01*
X218741532Y-102524705D01*
X218715431Y-102520833D01*
X218689834Y-102514422D01*
X218664989Y-102505532D01*
X218641135Y-102494250D01*
X218618502Y-102480684D01*
X218597307Y-102464965D01*
X218577755Y-102447245D01*
X218560035Y-102427693D01*
X218544316Y-102406498D01*
X218530750Y-102383865D01*
X218519468Y-102360011D01*
X218510578Y-102335166D01*
X218504167Y-102309569D01*
X218500295Y-102283468D01*
X218499000Y-102257112D01*
X218499000Y-101342888D01*
X218500295Y-101316532D01*
X218504167Y-101290431D01*
X218510578Y-101264834D01*
X218519468Y-101239989D01*
X218530750Y-101216135D01*
X218544316Y-101193502D01*
X218560035Y-101172307D01*
X218577755Y-101152755D01*
X218597307Y-101135035D01*
X218618502Y-101119316D01*
X218641135Y-101105750D01*
X218664989Y-101094468D01*
X218689834Y-101085578D01*
X218715431Y-101079167D01*
X218741532Y-101075295D01*
X218767888Y-101074000D01*
X219907112Y-101074000D01*
X219933468Y-101075295D01*
X219933468Y-101075295D01*
G37*
D14*
X219337500Y-101800000D03*
D15*
X211700000Y-91950000D03*
X211700000Y-89450000D03*
X214300000Y-89450000D03*
X214300000Y-91950000D03*
X216800000Y-91950000D03*
X216800000Y-89450000D03*
X219400000Y-89450000D03*
X219400000Y-91950000D03*
X221900000Y-91950000D03*
X221900000Y-89450000D03*
D16*
X216760000Y-104500000D03*
D17*
X219300000Y-104500000D03*
X221840000Y-104500000D03*
D16*
X211840000Y-104500000D03*
D17*
X209300000Y-104500000D03*
X206760000Y-104500000D03*
X204220000Y-104500000D03*
X201680000Y-104500000D03*
X199140000Y-104500000D03*
D16*
X199300000Y-87000000D03*
D17*
X201840000Y-87000000D03*
X204380000Y-87000000D03*
X206920000Y-87000000D03*
X209460000Y-87000000D03*
X212000000Y-87000000D03*
X214540000Y-87000000D03*
X217080000Y-87000000D03*
X219620000Y-87000000D03*
X222160000Y-87000000D03*
D12*
G36*
X208605505Y-101200311D02*
G01*
X208631925Y-101204230D01*
X208657835Y-101210720D01*
X208682983Y-101219718D01*
X208707128Y-101231138D01*
X208730038Y-101244869D01*
X208751492Y-101260780D01*
X208771282Y-101278718D01*
X208789220Y-101298508D01*
X208805131Y-101319962D01*
X208818862Y-101342872D01*
X208830282Y-101367017D01*
X208839280Y-101392165D01*
X208845770Y-101418075D01*
X208849689Y-101444495D01*
X208851000Y-101471173D01*
X208851000Y-102178827D01*
X208849689Y-102205505D01*
X208845770Y-102231925D01*
X208839280Y-102257835D01*
X208830282Y-102282983D01*
X208818862Y-102307128D01*
X208805131Y-102330038D01*
X208789220Y-102351492D01*
X208771282Y-102371282D01*
X208751492Y-102389220D01*
X208730038Y-102405131D01*
X208707128Y-102418862D01*
X208682983Y-102430282D01*
X208657835Y-102439280D01*
X208631925Y-102445770D01*
X208605505Y-102449689D01*
X208578827Y-102451000D01*
X207621173Y-102451000D01*
X207594495Y-102449689D01*
X207568075Y-102445770D01*
X207542165Y-102439280D01*
X207517017Y-102430282D01*
X207492872Y-102418862D01*
X207469962Y-102405131D01*
X207448508Y-102389220D01*
X207428718Y-102371282D01*
X207410780Y-102351492D01*
X207394869Y-102330038D01*
X207381138Y-102307128D01*
X207369718Y-102282983D01*
X207360720Y-102257835D01*
X207354230Y-102231925D01*
X207350311Y-102205505D01*
X207349000Y-102178827D01*
X207349000Y-101471173D01*
X207350311Y-101444495D01*
X207354230Y-101418075D01*
X207360720Y-101392165D01*
X207369718Y-101367017D01*
X207381138Y-101342872D01*
X207394869Y-101319962D01*
X207410780Y-101298508D01*
X207428718Y-101278718D01*
X207448508Y-101260780D01*
X207469962Y-101244869D01*
X207492872Y-101231138D01*
X207517017Y-101219718D01*
X207542165Y-101210720D01*
X207568075Y-101204230D01*
X207594495Y-101200311D01*
X207621173Y-101199000D01*
X208578827Y-101199000D01*
X208605505Y-101200311D01*
X208605505Y-101200311D01*
G37*
D13*
X208100000Y-101825000D03*
D12*
G36*
X208605505Y-99150311D02*
G01*
X208631925Y-99154230D01*
X208657835Y-99160720D01*
X208682983Y-99169718D01*
X208707128Y-99181138D01*
X208730038Y-99194869D01*
X208751492Y-99210780D01*
X208771282Y-99228718D01*
X208789220Y-99248508D01*
X208805131Y-99269962D01*
X208818862Y-99292872D01*
X208830282Y-99317017D01*
X208839280Y-99342165D01*
X208845770Y-99368075D01*
X208849689Y-99394495D01*
X208851000Y-99421173D01*
X208851000Y-100128827D01*
X208849689Y-100155505D01*
X208845770Y-100181925D01*
X208839280Y-100207835D01*
X208830282Y-100232983D01*
X208818862Y-100257128D01*
X208805131Y-100280038D01*
X208789220Y-100301492D01*
X208771282Y-100321282D01*
X208751492Y-100339220D01*
X208730038Y-100355131D01*
X208707128Y-100368862D01*
X208682983Y-100380282D01*
X208657835Y-100389280D01*
X208631925Y-100395770D01*
X208605505Y-100399689D01*
X208578827Y-100401000D01*
X207621173Y-100401000D01*
X207594495Y-100399689D01*
X207568075Y-100395770D01*
X207542165Y-100389280D01*
X207517017Y-100380282D01*
X207492872Y-100368862D01*
X207469962Y-100355131D01*
X207448508Y-100339220D01*
X207428718Y-100321282D01*
X207410780Y-100301492D01*
X207394869Y-100280038D01*
X207381138Y-100257128D01*
X207369718Y-100232983D01*
X207360720Y-100207835D01*
X207354230Y-100181925D01*
X207350311Y-100155505D01*
X207349000Y-100128827D01*
X207349000Y-99421173D01*
X207350311Y-99394495D01*
X207354230Y-99368075D01*
X207360720Y-99342165D01*
X207369718Y-99317017D01*
X207381138Y-99292872D01*
X207394869Y-99269962D01*
X207410780Y-99248508D01*
X207428718Y-99228718D01*
X207448508Y-99210780D01*
X207469962Y-99194869D01*
X207492872Y-99181138D01*
X207517017Y-99169718D01*
X207542165Y-99160720D01*
X207568075Y-99154230D01*
X207594495Y-99150311D01*
X207621173Y-99149000D01*
X208578827Y-99149000D01*
X208605505Y-99150311D01*
X208605505Y-99150311D01*
G37*
D13*
X208100000Y-99775000D03*
D12*
G36*
X199505505Y-90950311D02*
G01*
X199531925Y-90954230D01*
X199557835Y-90960720D01*
X199582983Y-90969718D01*
X199607128Y-90981138D01*
X199630038Y-90994869D01*
X199651492Y-91010780D01*
X199671282Y-91028718D01*
X199689220Y-91048508D01*
X199705131Y-91069962D01*
X199718862Y-91092872D01*
X199730282Y-91117017D01*
X199739280Y-91142165D01*
X199745770Y-91168075D01*
X199749689Y-91194495D01*
X199751000Y-91221173D01*
X199751000Y-91928827D01*
X199749689Y-91955505D01*
X199745770Y-91981925D01*
X199739280Y-92007835D01*
X199730282Y-92032983D01*
X199718862Y-92057128D01*
X199705131Y-92080038D01*
X199689220Y-92101492D01*
X199671282Y-92121282D01*
X199651492Y-92139220D01*
X199630038Y-92155131D01*
X199607128Y-92168862D01*
X199582983Y-92180282D01*
X199557835Y-92189280D01*
X199531925Y-92195770D01*
X199505505Y-92199689D01*
X199478827Y-92201000D01*
X198521173Y-92201000D01*
X198494495Y-92199689D01*
X198468075Y-92195770D01*
X198442165Y-92189280D01*
X198417017Y-92180282D01*
X198392872Y-92168862D01*
X198369962Y-92155131D01*
X198348508Y-92139220D01*
X198328718Y-92121282D01*
X198310780Y-92101492D01*
X198294869Y-92080038D01*
X198281138Y-92057128D01*
X198269718Y-92032983D01*
X198260720Y-92007835D01*
X198254230Y-91981925D01*
X198250311Y-91955505D01*
X198249000Y-91928827D01*
X198249000Y-91221173D01*
X198250311Y-91194495D01*
X198254230Y-91168075D01*
X198260720Y-91142165D01*
X198269718Y-91117017D01*
X198281138Y-91092872D01*
X198294869Y-91069962D01*
X198310780Y-91048508D01*
X198328718Y-91028718D01*
X198348508Y-91010780D01*
X198369962Y-90994869D01*
X198392872Y-90981138D01*
X198417017Y-90969718D01*
X198442165Y-90960720D01*
X198468075Y-90954230D01*
X198494495Y-90950311D01*
X198521173Y-90949000D01*
X199478827Y-90949000D01*
X199505505Y-90950311D01*
X199505505Y-90950311D01*
G37*
D13*
X199000000Y-91575000D03*
D12*
G36*
X199505505Y-88900311D02*
G01*
X199531925Y-88904230D01*
X199557835Y-88910720D01*
X199582983Y-88919718D01*
X199607128Y-88931138D01*
X199630038Y-88944869D01*
X199651492Y-88960780D01*
X199671282Y-88978718D01*
X199689220Y-88998508D01*
X199705131Y-89019962D01*
X199718862Y-89042872D01*
X199730282Y-89067017D01*
X199739280Y-89092165D01*
X199745770Y-89118075D01*
X199749689Y-89144495D01*
X199751000Y-89171173D01*
X199751000Y-89878827D01*
X199749689Y-89905505D01*
X199745770Y-89931925D01*
X199739280Y-89957835D01*
X199730282Y-89982983D01*
X199718862Y-90007128D01*
X199705131Y-90030038D01*
X199689220Y-90051492D01*
X199671282Y-90071282D01*
X199651492Y-90089220D01*
X199630038Y-90105131D01*
X199607128Y-90118862D01*
X199582983Y-90130282D01*
X199557835Y-90139280D01*
X199531925Y-90145770D01*
X199505505Y-90149689D01*
X199478827Y-90151000D01*
X198521173Y-90151000D01*
X198494495Y-90149689D01*
X198468075Y-90145770D01*
X198442165Y-90139280D01*
X198417017Y-90130282D01*
X198392872Y-90118862D01*
X198369962Y-90105131D01*
X198348508Y-90089220D01*
X198328718Y-90071282D01*
X198310780Y-90051492D01*
X198294869Y-90030038D01*
X198281138Y-90007128D01*
X198269718Y-89982983D01*
X198260720Y-89957835D01*
X198254230Y-89931925D01*
X198250311Y-89905505D01*
X198249000Y-89878827D01*
X198249000Y-89171173D01*
X198250311Y-89144495D01*
X198254230Y-89118075D01*
X198260720Y-89092165D01*
X198269718Y-89067017D01*
X198281138Y-89042872D01*
X198294869Y-89019962D01*
X198310780Y-88998508D01*
X198328718Y-88978718D01*
X198348508Y-88960780D01*
X198369962Y-88944869D01*
X198392872Y-88931138D01*
X198417017Y-88919718D01*
X198442165Y-88910720D01*
X198468075Y-88904230D01*
X198494495Y-88900311D01*
X198521173Y-88899000D01*
X199478827Y-88899000D01*
X199505505Y-88900311D01*
X199505505Y-88900311D01*
G37*
D13*
X199000000Y-89525000D03*
D12*
G36*
X202105505Y-88900311D02*
G01*
X202131925Y-88904230D01*
X202157835Y-88910720D01*
X202182983Y-88919718D01*
X202207128Y-88931138D01*
X202230038Y-88944869D01*
X202251492Y-88960780D01*
X202271282Y-88978718D01*
X202289220Y-88998508D01*
X202305131Y-89019962D01*
X202318862Y-89042872D01*
X202330282Y-89067017D01*
X202339280Y-89092165D01*
X202345770Y-89118075D01*
X202349689Y-89144495D01*
X202351000Y-89171173D01*
X202351000Y-89878827D01*
X202349689Y-89905505D01*
X202345770Y-89931925D01*
X202339280Y-89957835D01*
X202330282Y-89982983D01*
X202318862Y-90007128D01*
X202305131Y-90030038D01*
X202289220Y-90051492D01*
X202271282Y-90071282D01*
X202251492Y-90089220D01*
X202230038Y-90105131D01*
X202207128Y-90118862D01*
X202182983Y-90130282D01*
X202157835Y-90139280D01*
X202131925Y-90145770D01*
X202105505Y-90149689D01*
X202078827Y-90151000D01*
X201121173Y-90151000D01*
X201094495Y-90149689D01*
X201068075Y-90145770D01*
X201042165Y-90139280D01*
X201017017Y-90130282D01*
X200992872Y-90118862D01*
X200969962Y-90105131D01*
X200948508Y-90089220D01*
X200928718Y-90071282D01*
X200910780Y-90051492D01*
X200894869Y-90030038D01*
X200881138Y-90007128D01*
X200869718Y-89982983D01*
X200860720Y-89957835D01*
X200854230Y-89931925D01*
X200850311Y-89905505D01*
X200849000Y-89878827D01*
X200849000Y-89171173D01*
X200850311Y-89144495D01*
X200854230Y-89118075D01*
X200860720Y-89092165D01*
X200869718Y-89067017D01*
X200881138Y-89042872D01*
X200894869Y-89019962D01*
X200910780Y-88998508D01*
X200928718Y-88978718D01*
X200948508Y-88960780D01*
X200969962Y-88944869D01*
X200992872Y-88931138D01*
X201017017Y-88919718D01*
X201042165Y-88910720D01*
X201068075Y-88904230D01*
X201094495Y-88900311D01*
X201121173Y-88899000D01*
X202078827Y-88899000D01*
X202105505Y-88900311D01*
X202105505Y-88900311D01*
G37*
D13*
X201600000Y-89525000D03*
D12*
G36*
X202105505Y-90950311D02*
G01*
X202131925Y-90954230D01*
X202157835Y-90960720D01*
X202182983Y-90969718D01*
X202207128Y-90981138D01*
X202230038Y-90994869D01*
X202251492Y-91010780D01*
X202271282Y-91028718D01*
X202289220Y-91048508D01*
X202305131Y-91069962D01*
X202318862Y-91092872D01*
X202330282Y-91117017D01*
X202339280Y-91142165D01*
X202345770Y-91168075D01*
X202349689Y-91194495D01*
X202351000Y-91221173D01*
X202351000Y-91928827D01*
X202349689Y-91955505D01*
X202345770Y-91981925D01*
X202339280Y-92007835D01*
X202330282Y-92032983D01*
X202318862Y-92057128D01*
X202305131Y-92080038D01*
X202289220Y-92101492D01*
X202271282Y-92121282D01*
X202251492Y-92139220D01*
X202230038Y-92155131D01*
X202207128Y-92168862D01*
X202182983Y-92180282D01*
X202157835Y-92189280D01*
X202131925Y-92195770D01*
X202105505Y-92199689D01*
X202078827Y-92201000D01*
X201121173Y-92201000D01*
X201094495Y-92199689D01*
X201068075Y-92195770D01*
X201042165Y-92189280D01*
X201017017Y-92180282D01*
X200992872Y-92168862D01*
X200969962Y-92155131D01*
X200948508Y-92139220D01*
X200928718Y-92121282D01*
X200910780Y-92101492D01*
X200894869Y-92080038D01*
X200881138Y-92057128D01*
X200869718Y-92032983D01*
X200860720Y-92007835D01*
X200854230Y-91981925D01*
X200850311Y-91955505D01*
X200849000Y-91928827D01*
X200849000Y-91221173D01*
X200850311Y-91194495D01*
X200854230Y-91168075D01*
X200860720Y-91142165D01*
X200869718Y-91117017D01*
X200881138Y-91092872D01*
X200894869Y-91069962D01*
X200910780Y-91048508D01*
X200928718Y-91028718D01*
X200948508Y-91010780D01*
X200969962Y-90994869D01*
X200992872Y-90981138D01*
X201017017Y-90969718D01*
X201042165Y-90960720D01*
X201068075Y-90954230D01*
X201094495Y-90950311D01*
X201121173Y-90949000D01*
X202078827Y-90949000D01*
X202105505Y-90950311D01*
X202105505Y-90950311D01*
G37*
D13*
X201600000Y-91575000D03*
D12*
G36*
X204605505Y-90950311D02*
G01*
X204631925Y-90954230D01*
X204657835Y-90960720D01*
X204682983Y-90969718D01*
X204707128Y-90981138D01*
X204730038Y-90994869D01*
X204751492Y-91010780D01*
X204771282Y-91028718D01*
X204789220Y-91048508D01*
X204805131Y-91069962D01*
X204818862Y-91092872D01*
X204830282Y-91117017D01*
X204839280Y-91142165D01*
X204845770Y-91168075D01*
X204849689Y-91194495D01*
X204851000Y-91221173D01*
X204851000Y-91928827D01*
X204849689Y-91955505D01*
X204845770Y-91981925D01*
X204839280Y-92007835D01*
X204830282Y-92032983D01*
X204818862Y-92057128D01*
X204805131Y-92080038D01*
X204789220Y-92101492D01*
X204771282Y-92121282D01*
X204751492Y-92139220D01*
X204730038Y-92155131D01*
X204707128Y-92168862D01*
X204682983Y-92180282D01*
X204657835Y-92189280D01*
X204631925Y-92195770D01*
X204605505Y-92199689D01*
X204578827Y-92201000D01*
X203621173Y-92201000D01*
X203594495Y-92199689D01*
X203568075Y-92195770D01*
X203542165Y-92189280D01*
X203517017Y-92180282D01*
X203492872Y-92168862D01*
X203469962Y-92155131D01*
X203448508Y-92139220D01*
X203428718Y-92121282D01*
X203410780Y-92101492D01*
X203394869Y-92080038D01*
X203381138Y-92057128D01*
X203369718Y-92032983D01*
X203360720Y-92007835D01*
X203354230Y-91981925D01*
X203350311Y-91955505D01*
X203349000Y-91928827D01*
X203349000Y-91221173D01*
X203350311Y-91194495D01*
X203354230Y-91168075D01*
X203360720Y-91142165D01*
X203369718Y-91117017D01*
X203381138Y-91092872D01*
X203394869Y-91069962D01*
X203410780Y-91048508D01*
X203428718Y-91028718D01*
X203448508Y-91010780D01*
X203469962Y-90994869D01*
X203492872Y-90981138D01*
X203517017Y-90969718D01*
X203542165Y-90960720D01*
X203568075Y-90954230D01*
X203594495Y-90950311D01*
X203621173Y-90949000D01*
X204578827Y-90949000D01*
X204605505Y-90950311D01*
X204605505Y-90950311D01*
G37*
D13*
X204100000Y-91575000D03*
D12*
G36*
X204605505Y-88900311D02*
G01*
X204631925Y-88904230D01*
X204657835Y-88910720D01*
X204682983Y-88919718D01*
X204707128Y-88931138D01*
X204730038Y-88944869D01*
X204751492Y-88960780D01*
X204771282Y-88978718D01*
X204789220Y-88998508D01*
X204805131Y-89019962D01*
X204818862Y-89042872D01*
X204830282Y-89067017D01*
X204839280Y-89092165D01*
X204845770Y-89118075D01*
X204849689Y-89144495D01*
X204851000Y-89171173D01*
X204851000Y-89878827D01*
X204849689Y-89905505D01*
X204845770Y-89931925D01*
X204839280Y-89957835D01*
X204830282Y-89982983D01*
X204818862Y-90007128D01*
X204805131Y-90030038D01*
X204789220Y-90051492D01*
X204771282Y-90071282D01*
X204751492Y-90089220D01*
X204730038Y-90105131D01*
X204707128Y-90118862D01*
X204682983Y-90130282D01*
X204657835Y-90139280D01*
X204631925Y-90145770D01*
X204605505Y-90149689D01*
X204578827Y-90151000D01*
X203621173Y-90151000D01*
X203594495Y-90149689D01*
X203568075Y-90145770D01*
X203542165Y-90139280D01*
X203517017Y-90130282D01*
X203492872Y-90118862D01*
X203469962Y-90105131D01*
X203448508Y-90089220D01*
X203428718Y-90071282D01*
X203410780Y-90051492D01*
X203394869Y-90030038D01*
X203381138Y-90007128D01*
X203369718Y-89982983D01*
X203360720Y-89957835D01*
X203354230Y-89931925D01*
X203350311Y-89905505D01*
X203349000Y-89878827D01*
X203349000Y-89171173D01*
X203350311Y-89144495D01*
X203354230Y-89118075D01*
X203360720Y-89092165D01*
X203369718Y-89067017D01*
X203381138Y-89042872D01*
X203394869Y-89019962D01*
X203410780Y-88998508D01*
X203428718Y-88978718D01*
X203448508Y-88960780D01*
X203469962Y-88944869D01*
X203492872Y-88931138D01*
X203517017Y-88919718D01*
X203542165Y-88910720D01*
X203568075Y-88904230D01*
X203594495Y-88900311D01*
X203621173Y-88899000D01*
X204578827Y-88899000D01*
X204605505Y-88900311D01*
X204605505Y-88900311D01*
G37*
D13*
X204100000Y-89525000D03*
D12*
G36*
X207205505Y-88900311D02*
G01*
X207231925Y-88904230D01*
X207257835Y-88910720D01*
X207282983Y-88919718D01*
X207307128Y-88931138D01*
X207330038Y-88944869D01*
X207351492Y-88960780D01*
X207371282Y-88978718D01*
X207389220Y-88998508D01*
X207405131Y-89019962D01*
X207418862Y-89042872D01*
X207430282Y-89067017D01*
X207439280Y-89092165D01*
X207445770Y-89118075D01*
X207449689Y-89144495D01*
X207451000Y-89171173D01*
X207451000Y-89878827D01*
X207449689Y-89905505D01*
X207445770Y-89931925D01*
X207439280Y-89957835D01*
X207430282Y-89982983D01*
X207418862Y-90007128D01*
X207405131Y-90030038D01*
X207389220Y-90051492D01*
X207371282Y-90071282D01*
X207351492Y-90089220D01*
X207330038Y-90105131D01*
X207307128Y-90118862D01*
X207282983Y-90130282D01*
X207257835Y-90139280D01*
X207231925Y-90145770D01*
X207205505Y-90149689D01*
X207178827Y-90151000D01*
X206221173Y-90151000D01*
X206194495Y-90149689D01*
X206168075Y-90145770D01*
X206142165Y-90139280D01*
X206117017Y-90130282D01*
X206092872Y-90118862D01*
X206069962Y-90105131D01*
X206048508Y-90089220D01*
X206028718Y-90071282D01*
X206010780Y-90051492D01*
X205994869Y-90030038D01*
X205981138Y-90007128D01*
X205969718Y-89982983D01*
X205960720Y-89957835D01*
X205954230Y-89931925D01*
X205950311Y-89905505D01*
X205949000Y-89878827D01*
X205949000Y-89171173D01*
X205950311Y-89144495D01*
X205954230Y-89118075D01*
X205960720Y-89092165D01*
X205969718Y-89067017D01*
X205981138Y-89042872D01*
X205994869Y-89019962D01*
X206010780Y-88998508D01*
X206028718Y-88978718D01*
X206048508Y-88960780D01*
X206069962Y-88944869D01*
X206092872Y-88931138D01*
X206117017Y-88919718D01*
X206142165Y-88910720D01*
X206168075Y-88904230D01*
X206194495Y-88900311D01*
X206221173Y-88899000D01*
X207178827Y-88899000D01*
X207205505Y-88900311D01*
X207205505Y-88900311D01*
G37*
D13*
X206700000Y-89525000D03*
D12*
G36*
X207205505Y-90950311D02*
G01*
X207231925Y-90954230D01*
X207257835Y-90960720D01*
X207282983Y-90969718D01*
X207307128Y-90981138D01*
X207330038Y-90994869D01*
X207351492Y-91010780D01*
X207371282Y-91028718D01*
X207389220Y-91048508D01*
X207405131Y-91069962D01*
X207418862Y-91092872D01*
X207430282Y-91117017D01*
X207439280Y-91142165D01*
X207445770Y-91168075D01*
X207449689Y-91194495D01*
X207451000Y-91221173D01*
X207451000Y-91928827D01*
X207449689Y-91955505D01*
X207445770Y-91981925D01*
X207439280Y-92007835D01*
X207430282Y-92032983D01*
X207418862Y-92057128D01*
X207405131Y-92080038D01*
X207389220Y-92101492D01*
X207371282Y-92121282D01*
X207351492Y-92139220D01*
X207330038Y-92155131D01*
X207307128Y-92168862D01*
X207282983Y-92180282D01*
X207257835Y-92189280D01*
X207231925Y-92195770D01*
X207205505Y-92199689D01*
X207178827Y-92201000D01*
X206221173Y-92201000D01*
X206194495Y-92199689D01*
X206168075Y-92195770D01*
X206142165Y-92189280D01*
X206117017Y-92180282D01*
X206092872Y-92168862D01*
X206069962Y-92155131D01*
X206048508Y-92139220D01*
X206028718Y-92121282D01*
X206010780Y-92101492D01*
X205994869Y-92080038D01*
X205981138Y-92057128D01*
X205969718Y-92032983D01*
X205960720Y-92007835D01*
X205954230Y-91981925D01*
X205950311Y-91955505D01*
X205949000Y-91928827D01*
X205949000Y-91221173D01*
X205950311Y-91194495D01*
X205954230Y-91168075D01*
X205960720Y-91142165D01*
X205969718Y-91117017D01*
X205981138Y-91092872D01*
X205994869Y-91069962D01*
X206010780Y-91048508D01*
X206028718Y-91028718D01*
X206048508Y-91010780D01*
X206069962Y-90994869D01*
X206092872Y-90981138D01*
X206117017Y-90969718D01*
X206142165Y-90960720D01*
X206168075Y-90954230D01*
X206194495Y-90950311D01*
X206221173Y-90949000D01*
X207178827Y-90949000D01*
X207205505Y-90950311D01*
X207205505Y-90950311D01*
G37*
D13*
X206700000Y-91575000D03*
D12*
G36*
X209705505Y-90950311D02*
G01*
X209731925Y-90954230D01*
X209757835Y-90960720D01*
X209782983Y-90969718D01*
X209807128Y-90981138D01*
X209830038Y-90994869D01*
X209851492Y-91010780D01*
X209871282Y-91028718D01*
X209889220Y-91048508D01*
X209905131Y-91069962D01*
X209918862Y-91092872D01*
X209930282Y-91117017D01*
X209939280Y-91142165D01*
X209945770Y-91168075D01*
X209949689Y-91194495D01*
X209951000Y-91221173D01*
X209951000Y-91928827D01*
X209949689Y-91955505D01*
X209945770Y-91981925D01*
X209939280Y-92007835D01*
X209930282Y-92032983D01*
X209918862Y-92057128D01*
X209905131Y-92080038D01*
X209889220Y-92101492D01*
X209871282Y-92121282D01*
X209851492Y-92139220D01*
X209830038Y-92155131D01*
X209807128Y-92168862D01*
X209782983Y-92180282D01*
X209757835Y-92189280D01*
X209731925Y-92195770D01*
X209705505Y-92199689D01*
X209678827Y-92201000D01*
X208721173Y-92201000D01*
X208694495Y-92199689D01*
X208668075Y-92195770D01*
X208642165Y-92189280D01*
X208617017Y-92180282D01*
X208592872Y-92168862D01*
X208569962Y-92155131D01*
X208548508Y-92139220D01*
X208528718Y-92121282D01*
X208510780Y-92101492D01*
X208494869Y-92080038D01*
X208481138Y-92057128D01*
X208469718Y-92032983D01*
X208460720Y-92007835D01*
X208454230Y-91981925D01*
X208450311Y-91955505D01*
X208449000Y-91928827D01*
X208449000Y-91221173D01*
X208450311Y-91194495D01*
X208454230Y-91168075D01*
X208460720Y-91142165D01*
X208469718Y-91117017D01*
X208481138Y-91092872D01*
X208494869Y-91069962D01*
X208510780Y-91048508D01*
X208528718Y-91028718D01*
X208548508Y-91010780D01*
X208569962Y-90994869D01*
X208592872Y-90981138D01*
X208617017Y-90969718D01*
X208642165Y-90960720D01*
X208668075Y-90954230D01*
X208694495Y-90950311D01*
X208721173Y-90949000D01*
X209678827Y-90949000D01*
X209705505Y-90950311D01*
X209705505Y-90950311D01*
G37*
D13*
X209200000Y-91575000D03*
D12*
G36*
X209705505Y-88900311D02*
G01*
X209731925Y-88904230D01*
X209757835Y-88910720D01*
X209782983Y-88919718D01*
X209807128Y-88931138D01*
X209830038Y-88944869D01*
X209851492Y-88960780D01*
X209871282Y-88978718D01*
X209889220Y-88998508D01*
X209905131Y-89019962D01*
X209918862Y-89042872D01*
X209930282Y-89067017D01*
X209939280Y-89092165D01*
X209945770Y-89118075D01*
X209949689Y-89144495D01*
X209951000Y-89171173D01*
X209951000Y-89878827D01*
X209949689Y-89905505D01*
X209945770Y-89931925D01*
X209939280Y-89957835D01*
X209930282Y-89982983D01*
X209918862Y-90007128D01*
X209905131Y-90030038D01*
X209889220Y-90051492D01*
X209871282Y-90071282D01*
X209851492Y-90089220D01*
X209830038Y-90105131D01*
X209807128Y-90118862D01*
X209782983Y-90130282D01*
X209757835Y-90139280D01*
X209731925Y-90145770D01*
X209705505Y-90149689D01*
X209678827Y-90151000D01*
X208721173Y-90151000D01*
X208694495Y-90149689D01*
X208668075Y-90145770D01*
X208642165Y-90139280D01*
X208617017Y-90130282D01*
X208592872Y-90118862D01*
X208569962Y-90105131D01*
X208548508Y-90089220D01*
X208528718Y-90071282D01*
X208510780Y-90051492D01*
X208494869Y-90030038D01*
X208481138Y-90007128D01*
X208469718Y-89982983D01*
X208460720Y-89957835D01*
X208454230Y-89931925D01*
X208450311Y-89905505D01*
X208449000Y-89878827D01*
X208449000Y-89171173D01*
X208450311Y-89144495D01*
X208454230Y-89118075D01*
X208460720Y-89092165D01*
X208469718Y-89067017D01*
X208481138Y-89042872D01*
X208494869Y-89019962D01*
X208510780Y-88998508D01*
X208528718Y-88978718D01*
X208548508Y-88960780D01*
X208569962Y-88944869D01*
X208592872Y-88931138D01*
X208617017Y-88919718D01*
X208642165Y-88910720D01*
X208668075Y-88904230D01*
X208694495Y-88900311D01*
X208721173Y-88899000D01*
X209678827Y-88899000D01*
X209705505Y-88900311D01*
X209705505Y-88900311D01*
G37*
D13*
X209200000Y-89525000D03*
M02*
