G04 #@! TF.GenerationSoftware,KiCad,Pcbnew,5.1.2-f72e74a~84~ubuntu18.04.1*
G04 #@! TF.CreationDate,2019-06-19T15:11:19+07:00*
G04 #@! TF.ProjectId,serial_matrix_keyboard_shild,73657269-616c-45f6-9d61-747269785f6b,rev?*
G04 #@! TF.SameCoordinates,Original*
G04 #@! TF.FileFunction,Legend,Top*
G04 #@! TF.FilePolarity,Positive*
%FSLAX46Y46*%
G04 Gerber Fmt 4.6, Leading zero omitted, Abs format (unit mm)*
G04 Created by KiCad (PCBNEW 5.1.2-f72e74a~84~ubuntu18.04.1) date 2019-06-19 15:11:19*
%MOMM*%
%LPD*%
G04 APERTURE LIST*
%ADD10C,0.120000*%
%ADD11C,0.150000*%
%ADD12C,0.020000*%
%ADD13C,0.702000*%
%ADD14C,1.252000*%
%ADD15R,1.802000X1.802000*%
%ADD16O,1.802000X1.802000*%
%ADD17R,2.202000X1.902000*%
G04 APERTURE END LIST*
D10*
X203400000Y-89490000D02*
X199540000Y-89490000D01*
X199540000Y-89490000D02*
X199540000Y-89725000D01*
X203400000Y-89490000D02*
X207260000Y-89490000D01*
X207260000Y-89490000D02*
X207260000Y-89725000D01*
X203400000Y-102510000D02*
X199540000Y-102510000D01*
X199540000Y-102510000D02*
X199540000Y-102275000D01*
X203400000Y-102510000D02*
X207260000Y-102510000D01*
X207260000Y-102510000D02*
X207260000Y-102275000D01*
X207260000Y-102275000D02*
X209075000Y-102275000D01*
X211088748Y-102360000D02*
X211611252Y-102360000D01*
X211088748Y-100940000D02*
X211611252Y-100940000D01*
X219738748Y-93590000D02*
X220261252Y-93590000D01*
X219738748Y-95010000D02*
X220261252Y-95010000D01*
X215938748Y-100410000D02*
X216461252Y-100410000D01*
X215938748Y-98990000D02*
X216461252Y-98990000D01*
X223170000Y-105830000D02*
X223170000Y-103170000D01*
X218030000Y-105830000D02*
X223170000Y-105830000D01*
X218030000Y-103170000D02*
X223170000Y-103170000D01*
X218030000Y-105830000D02*
X218030000Y-103170000D01*
X216760000Y-105830000D02*
X215430000Y-105830000D01*
X215430000Y-105830000D02*
X215430000Y-104500000D01*
X197810000Y-103170000D02*
X197810000Y-105830000D01*
X210570000Y-103170000D02*
X197810000Y-103170000D01*
X210570000Y-105830000D02*
X197810000Y-105830000D01*
X210570000Y-103170000D02*
X210570000Y-105830000D01*
X211840000Y-103170000D02*
X213170000Y-103170000D01*
X213170000Y-103170000D02*
X213170000Y-104500000D01*
X223490000Y-88330000D02*
X223490000Y-85670000D01*
X200570000Y-88330000D02*
X223490000Y-88330000D01*
X200570000Y-85670000D02*
X223490000Y-85670000D01*
X200570000Y-88330000D02*
X200570000Y-85670000D01*
X199300000Y-88330000D02*
X197970000Y-88330000D01*
X197970000Y-88330000D02*
X197970000Y-87000000D01*
X217900000Y-97950000D02*
X217900000Y-93450000D01*
X217900000Y-93450000D02*
X212500000Y-93450000D01*
D11*
X202738095Y-101052380D02*
X202738095Y-101861904D01*
X202785714Y-101957142D01*
X202833333Y-102004761D01*
X202928571Y-102052380D01*
X203119047Y-102052380D01*
X203214285Y-102004761D01*
X203261904Y-101957142D01*
X203309523Y-101861904D01*
X203309523Y-101052380D01*
X204309523Y-102052380D02*
X203738095Y-102052380D01*
X204023809Y-102052380D02*
X204023809Y-101052380D01*
X203928571Y-101195238D01*
X203833333Y-101290476D01*
X203738095Y-101338095D01*
X213007142Y-101816666D02*
X213054761Y-101864285D01*
X213102380Y-102007142D01*
X213102380Y-102102380D01*
X213054761Y-102245238D01*
X212959523Y-102340476D01*
X212864285Y-102388095D01*
X212673809Y-102435714D01*
X212530952Y-102435714D01*
X212340476Y-102388095D01*
X212245238Y-102340476D01*
X212150000Y-102245238D01*
X212102380Y-102102380D01*
X212102380Y-102007142D01*
X212150000Y-101864285D01*
X212197619Y-101816666D01*
X213102380Y-100864285D02*
X213102380Y-101435714D01*
X213102380Y-101150000D02*
X212102380Y-101150000D01*
X212245238Y-101245238D01*
X212340476Y-101340476D01*
X212388095Y-101435714D01*
X222957142Y-94366666D02*
X223004761Y-94414285D01*
X223052380Y-94557142D01*
X223052380Y-94652380D01*
X223004761Y-94795238D01*
X222909523Y-94890476D01*
X222814285Y-94938095D01*
X222623809Y-94985714D01*
X222480952Y-94985714D01*
X222290476Y-94938095D01*
X222195238Y-94890476D01*
X222100000Y-94795238D01*
X222052380Y-94652380D01*
X222052380Y-94557142D01*
X222100000Y-94414285D01*
X222147619Y-94366666D01*
X222147619Y-93985714D02*
X222100000Y-93938095D01*
X222052380Y-93842857D01*
X222052380Y-93604761D01*
X222100000Y-93509523D01*
X222147619Y-93461904D01*
X222242857Y-93414285D01*
X222338095Y-93414285D01*
X222480952Y-93461904D01*
X223052380Y-94033333D01*
X223052380Y-93414285D01*
X213233333Y-100157142D02*
X213185714Y-100204761D01*
X213042857Y-100252380D01*
X212947619Y-100252380D01*
X212804761Y-100204761D01*
X212709523Y-100109523D01*
X212661904Y-100014285D01*
X212614285Y-99823809D01*
X212614285Y-99680952D01*
X212661904Y-99490476D01*
X212709523Y-99395238D01*
X212804761Y-99300000D01*
X212947619Y-99252380D01*
X213042857Y-99252380D01*
X213185714Y-99300000D01*
X213233333Y-99347619D01*
X213566666Y-99252380D02*
X214185714Y-99252380D01*
X213852380Y-99633333D01*
X213995238Y-99633333D01*
X214090476Y-99680952D01*
X214138095Y-99728571D01*
X214185714Y-99823809D01*
X214185714Y-100061904D01*
X214138095Y-100157142D01*
X214090476Y-100204761D01*
X213995238Y-100252380D01*
X213709523Y-100252380D01*
X213614285Y-100204761D01*
X213566666Y-100157142D01*
X222066666Y-101752380D02*
X222066666Y-102466666D01*
X222019047Y-102609523D01*
X221923809Y-102704761D01*
X221780952Y-102752380D01*
X221685714Y-102752380D01*
X223066666Y-102752380D02*
X222495238Y-102752380D01*
X222780952Y-102752380D02*
X222780952Y-101752380D01*
X222685714Y-101895238D01*
X222590476Y-101990476D01*
X222495238Y-102038095D01*
X213777380Y-104958333D02*
X214491666Y-104958333D01*
X214634523Y-105005952D01*
X214729761Y-105101190D01*
X214777380Y-105244047D01*
X214777380Y-105339285D01*
X213872619Y-104529761D02*
X213825000Y-104482142D01*
X213777380Y-104386904D01*
X213777380Y-104148809D01*
X213825000Y-104053571D01*
X213872619Y-104005952D01*
X213967857Y-103958333D01*
X214063095Y-103958333D01*
X214205952Y-104005952D01*
X214777380Y-104577380D01*
X214777380Y-103958333D01*
X222466666Y-88752380D02*
X222466666Y-89466666D01*
X222419047Y-89609523D01*
X222323809Y-89704761D01*
X222180952Y-89752380D01*
X222085714Y-89752380D01*
X222847619Y-88752380D02*
X223466666Y-88752380D01*
X223133333Y-89133333D01*
X223276190Y-89133333D01*
X223371428Y-89180952D01*
X223419047Y-89228571D01*
X223466666Y-89323809D01*
X223466666Y-89561904D01*
X223419047Y-89657142D01*
X223371428Y-89704761D01*
X223276190Y-89752380D01*
X222990476Y-89752380D01*
X222895238Y-89704761D01*
X222847619Y-89657142D01*
X214723809Y-92576190D02*
X214723809Y-93052380D01*
X214390476Y-92052380D02*
X214723809Y-92576190D01*
X215057142Y-92052380D01*
X215914285Y-93052380D02*
X215342857Y-93052380D01*
X215628571Y-93052380D02*
X215628571Y-92052380D01*
X215533333Y-92195238D01*
X215438095Y-92290476D01*
X215342857Y-92338095D01*
%LPC*%
D12*
G36*
X208967702Y-101364845D02*
G01*
X208984738Y-101367372D01*
X209001445Y-101371557D01*
X209017661Y-101377359D01*
X209033230Y-101384723D01*
X209048003Y-101393577D01*
X209061836Y-101403837D01*
X209074597Y-101415403D01*
X209086163Y-101428164D01*
X209096423Y-101441997D01*
X209105277Y-101456770D01*
X209112641Y-101472339D01*
X209118443Y-101488555D01*
X209122628Y-101505262D01*
X209125155Y-101522298D01*
X209126000Y-101539500D01*
X209126000Y-101890500D01*
X209125155Y-101907702D01*
X209122628Y-101924738D01*
X209118443Y-101941445D01*
X209112641Y-101957661D01*
X209105277Y-101973230D01*
X209096423Y-101988003D01*
X209086163Y-102001836D01*
X209074597Y-102014597D01*
X209061836Y-102026163D01*
X209048003Y-102036423D01*
X209033230Y-102045277D01*
X209017661Y-102052641D01*
X209001445Y-102058443D01*
X208984738Y-102062628D01*
X208967702Y-102065155D01*
X208950500Y-102066000D01*
X207149500Y-102066000D01*
X207132298Y-102065155D01*
X207115262Y-102062628D01*
X207098555Y-102058443D01*
X207082339Y-102052641D01*
X207066770Y-102045277D01*
X207051997Y-102036423D01*
X207038164Y-102026163D01*
X207025403Y-102014597D01*
X207013837Y-102001836D01*
X207003577Y-101988003D01*
X206994723Y-101973230D01*
X206987359Y-101957661D01*
X206981557Y-101941445D01*
X206977372Y-101924738D01*
X206974845Y-101907702D01*
X206974000Y-101890500D01*
X206974000Y-101539500D01*
X206974845Y-101522298D01*
X206977372Y-101505262D01*
X206981557Y-101488555D01*
X206987359Y-101472339D01*
X206994723Y-101456770D01*
X207003577Y-101441997D01*
X207013837Y-101428164D01*
X207025403Y-101415403D01*
X207038164Y-101403837D01*
X207051997Y-101393577D01*
X207066770Y-101384723D01*
X207082339Y-101377359D01*
X207098555Y-101371557D01*
X207115262Y-101367372D01*
X207132298Y-101364845D01*
X207149500Y-101364000D01*
X208950500Y-101364000D01*
X208967702Y-101364845D01*
X208967702Y-101364845D01*
G37*
D13*
X208050000Y-101715000D03*
D12*
G36*
X208967702Y-100094845D02*
G01*
X208984738Y-100097372D01*
X209001445Y-100101557D01*
X209017661Y-100107359D01*
X209033230Y-100114723D01*
X209048003Y-100123577D01*
X209061836Y-100133837D01*
X209074597Y-100145403D01*
X209086163Y-100158164D01*
X209096423Y-100171997D01*
X209105277Y-100186770D01*
X209112641Y-100202339D01*
X209118443Y-100218555D01*
X209122628Y-100235262D01*
X209125155Y-100252298D01*
X209126000Y-100269500D01*
X209126000Y-100620500D01*
X209125155Y-100637702D01*
X209122628Y-100654738D01*
X209118443Y-100671445D01*
X209112641Y-100687661D01*
X209105277Y-100703230D01*
X209096423Y-100718003D01*
X209086163Y-100731836D01*
X209074597Y-100744597D01*
X209061836Y-100756163D01*
X209048003Y-100766423D01*
X209033230Y-100775277D01*
X209017661Y-100782641D01*
X209001445Y-100788443D01*
X208984738Y-100792628D01*
X208967702Y-100795155D01*
X208950500Y-100796000D01*
X207149500Y-100796000D01*
X207132298Y-100795155D01*
X207115262Y-100792628D01*
X207098555Y-100788443D01*
X207082339Y-100782641D01*
X207066770Y-100775277D01*
X207051997Y-100766423D01*
X207038164Y-100756163D01*
X207025403Y-100744597D01*
X207013837Y-100731836D01*
X207003577Y-100718003D01*
X206994723Y-100703230D01*
X206987359Y-100687661D01*
X206981557Y-100671445D01*
X206977372Y-100654738D01*
X206974845Y-100637702D01*
X206974000Y-100620500D01*
X206974000Y-100269500D01*
X206974845Y-100252298D01*
X206977372Y-100235262D01*
X206981557Y-100218555D01*
X206987359Y-100202339D01*
X206994723Y-100186770D01*
X207003577Y-100171997D01*
X207013837Y-100158164D01*
X207025403Y-100145403D01*
X207038164Y-100133837D01*
X207051997Y-100123577D01*
X207066770Y-100114723D01*
X207082339Y-100107359D01*
X207098555Y-100101557D01*
X207115262Y-100097372D01*
X207132298Y-100094845D01*
X207149500Y-100094000D01*
X208950500Y-100094000D01*
X208967702Y-100094845D01*
X208967702Y-100094845D01*
G37*
D13*
X208050000Y-100445000D03*
D12*
G36*
X208967702Y-98824845D02*
G01*
X208984738Y-98827372D01*
X209001445Y-98831557D01*
X209017661Y-98837359D01*
X209033230Y-98844723D01*
X209048003Y-98853577D01*
X209061836Y-98863837D01*
X209074597Y-98875403D01*
X209086163Y-98888164D01*
X209096423Y-98901997D01*
X209105277Y-98916770D01*
X209112641Y-98932339D01*
X209118443Y-98948555D01*
X209122628Y-98965262D01*
X209125155Y-98982298D01*
X209126000Y-98999500D01*
X209126000Y-99350500D01*
X209125155Y-99367702D01*
X209122628Y-99384738D01*
X209118443Y-99401445D01*
X209112641Y-99417661D01*
X209105277Y-99433230D01*
X209096423Y-99448003D01*
X209086163Y-99461836D01*
X209074597Y-99474597D01*
X209061836Y-99486163D01*
X209048003Y-99496423D01*
X209033230Y-99505277D01*
X209017661Y-99512641D01*
X209001445Y-99518443D01*
X208984738Y-99522628D01*
X208967702Y-99525155D01*
X208950500Y-99526000D01*
X207149500Y-99526000D01*
X207132298Y-99525155D01*
X207115262Y-99522628D01*
X207098555Y-99518443D01*
X207082339Y-99512641D01*
X207066770Y-99505277D01*
X207051997Y-99496423D01*
X207038164Y-99486163D01*
X207025403Y-99474597D01*
X207013837Y-99461836D01*
X207003577Y-99448003D01*
X206994723Y-99433230D01*
X206987359Y-99417661D01*
X206981557Y-99401445D01*
X206977372Y-99384738D01*
X206974845Y-99367702D01*
X206974000Y-99350500D01*
X206974000Y-98999500D01*
X206974845Y-98982298D01*
X206977372Y-98965262D01*
X206981557Y-98948555D01*
X206987359Y-98932339D01*
X206994723Y-98916770D01*
X207003577Y-98901997D01*
X207013837Y-98888164D01*
X207025403Y-98875403D01*
X207038164Y-98863837D01*
X207051997Y-98853577D01*
X207066770Y-98844723D01*
X207082339Y-98837359D01*
X207098555Y-98831557D01*
X207115262Y-98827372D01*
X207132298Y-98824845D01*
X207149500Y-98824000D01*
X208950500Y-98824000D01*
X208967702Y-98824845D01*
X208967702Y-98824845D01*
G37*
D13*
X208050000Y-99175000D03*
D12*
G36*
X208967702Y-97554845D02*
G01*
X208984738Y-97557372D01*
X209001445Y-97561557D01*
X209017661Y-97567359D01*
X209033230Y-97574723D01*
X209048003Y-97583577D01*
X209061836Y-97593837D01*
X209074597Y-97605403D01*
X209086163Y-97618164D01*
X209096423Y-97631997D01*
X209105277Y-97646770D01*
X209112641Y-97662339D01*
X209118443Y-97678555D01*
X209122628Y-97695262D01*
X209125155Y-97712298D01*
X209126000Y-97729500D01*
X209126000Y-98080500D01*
X209125155Y-98097702D01*
X209122628Y-98114738D01*
X209118443Y-98131445D01*
X209112641Y-98147661D01*
X209105277Y-98163230D01*
X209096423Y-98178003D01*
X209086163Y-98191836D01*
X209074597Y-98204597D01*
X209061836Y-98216163D01*
X209048003Y-98226423D01*
X209033230Y-98235277D01*
X209017661Y-98242641D01*
X209001445Y-98248443D01*
X208984738Y-98252628D01*
X208967702Y-98255155D01*
X208950500Y-98256000D01*
X207149500Y-98256000D01*
X207132298Y-98255155D01*
X207115262Y-98252628D01*
X207098555Y-98248443D01*
X207082339Y-98242641D01*
X207066770Y-98235277D01*
X207051997Y-98226423D01*
X207038164Y-98216163D01*
X207025403Y-98204597D01*
X207013837Y-98191836D01*
X207003577Y-98178003D01*
X206994723Y-98163230D01*
X206987359Y-98147661D01*
X206981557Y-98131445D01*
X206977372Y-98114738D01*
X206974845Y-98097702D01*
X206974000Y-98080500D01*
X206974000Y-97729500D01*
X206974845Y-97712298D01*
X206977372Y-97695262D01*
X206981557Y-97678555D01*
X206987359Y-97662339D01*
X206994723Y-97646770D01*
X207003577Y-97631997D01*
X207013837Y-97618164D01*
X207025403Y-97605403D01*
X207038164Y-97593837D01*
X207051997Y-97583577D01*
X207066770Y-97574723D01*
X207082339Y-97567359D01*
X207098555Y-97561557D01*
X207115262Y-97557372D01*
X207132298Y-97554845D01*
X207149500Y-97554000D01*
X208950500Y-97554000D01*
X208967702Y-97554845D01*
X208967702Y-97554845D01*
G37*
D13*
X208050000Y-97905000D03*
D12*
G36*
X208967702Y-96284845D02*
G01*
X208984738Y-96287372D01*
X209001445Y-96291557D01*
X209017661Y-96297359D01*
X209033230Y-96304723D01*
X209048003Y-96313577D01*
X209061836Y-96323837D01*
X209074597Y-96335403D01*
X209086163Y-96348164D01*
X209096423Y-96361997D01*
X209105277Y-96376770D01*
X209112641Y-96392339D01*
X209118443Y-96408555D01*
X209122628Y-96425262D01*
X209125155Y-96442298D01*
X209126000Y-96459500D01*
X209126000Y-96810500D01*
X209125155Y-96827702D01*
X209122628Y-96844738D01*
X209118443Y-96861445D01*
X209112641Y-96877661D01*
X209105277Y-96893230D01*
X209096423Y-96908003D01*
X209086163Y-96921836D01*
X209074597Y-96934597D01*
X209061836Y-96946163D01*
X209048003Y-96956423D01*
X209033230Y-96965277D01*
X209017661Y-96972641D01*
X209001445Y-96978443D01*
X208984738Y-96982628D01*
X208967702Y-96985155D01*
X208950500Y-96986000D01*
X207149500Y-96986000D01*
X207132298Y-96985155D01*
X207115262Y-96982628D01*
X207098555Y-96978443D01*
X207082339Y-96972641D01*
X207066770Y-96965277D01*
X207051997Y-96956423D01*
X207038164Y-96946163D01*
X207025403Y-96934597D01*
X207013837Y-96921836D01*
X207003577Y-96908003D01*
X206994723Y-96893230D01*
X206987359Y-96877661D01*
X206981557Y-96861445D01*
X206977372Y-96844738D01*
X206974845Y-96827702D01*
X206974000Y-96810500D01*
X206974000Y-96459500D01*
X206974845Y-96442298D01*
X206977372Y-96425262D01*
X206981557Y-96408555D01*
X206987359Y-96392339D01*
X206994723Y-96376770D01*
X207003577Y-96361997D01*
X207013837Y-96348164D01*
X207025403Y-96335403D01*
X207038164Y-96323837D01*
X207051997Y-96313577D01*
X207066770Y-96304723D01*
X207082339Y-96297359D01*
X207098555Y-96291557D01*
X207115262Y-96287372D01*
X207132298Y-96284845D01*
X207149500Y-96284000D01*
X208950500Y-96284000D01*
X208967702Y-96284845D01*
X208967702Y-96284845D01*
G37*
D13*
X208050000Y-96635000D03*
D12*
G36*
X208967702Y-95014845D02*
G01*
X208984738Y-95017372D01*
X209001445Y-95021557D01*
X209017661Y-95027359D01*
X209033230Y-95034723D01*
X209048003Y-95043577D01*
X209061836Y-95053837D01*
X209074597Y-95065403D01*
X209086163Y-95078164D01*
X209096423Y-95091997D01*
X209105277Y-95106770D01*
X209112641Y-95122339D01*
X209118443Y-95138555D01*
X209122628Y-95155262D01*
X209125155Y-95172298D01*
X209126000Y-95189500D01*
X209126000Y-95540500D01*
X209125155Y-95557702D01*
X209122628Y-95574738D01*
X209118443Y-95591445D01*
X209112641Y-95607661D01*
X209105277Y-95623230D01*
X209096423Y-95638003D01*
X209086163Y-95651836D01*
X209074597Y-95664597D01*
X209061836Y-95676163D01*
X209048003Y-95686423D01*
X209033230Y-95695277D01*
X209017661Y-95702641D01*
X209001445Y-95708443D01*
X208984738Y-95712628D01*
X208967702Y-95715155D01*
X208950500Y-95716000D01*
X207149500Y-95716000D01*
X207132298Y-95715155D01*
X207115262Y-95712628D01*
X207098555Y-95708443D01*
X207082339Y-95702641D01*
X207066770Y-95695277D01*
X207051997Y-95686423D01*
X207038164Y-95676163D01*
X207025403Y-95664597D01*
X207013837Y-95651836D01*
X207003577Y-95638003D01*
X206994723Y-95623230D01*
X206987359Y-95607661D01*
X206981557Y-95591445D01*
X206977372Y-95574738D01*
X206974845Y-95557702D01*
X206974000Y-95540500D01*
X206974000Y-95189500D01*
X206974845Y-95172298D01*
X206977372Y-95155262D01*
X206981557Y-95138555D01*
X206987359Y-95122339D01*
X206994723Y-95106770D01*
X207003577Y-95091997D01*
X207013837Y-95078164D01*
X207025403Y-95065403D01*
X207038164Y-95053837D01*
X207051997Y-95043577D01*
X207066770Y-95034723D01*
X207082339Y-95027359D01*
X207098555Y-95021557D01*
X207115262Y-95017372D01*
X207132298Y-95014845D01*
X207149500Y-95014000D01*
X208950500Y-95014000D01*
X208967702Y-95014845D01*
X208967702Y-95014845D01*
G37*
D13*
X208050000Y-95365000D03*
D12*
G36*
X208967702Y-93744845D02*
G01*
X208984738Y-93747372D01*
X209001445Y-93751557D01*
X209017661Y-93757359D01*
X209033230Y-93764723D01*
X209048003Y-93773577D01*
X209061836Y-93783837D01*
X209074597Y-93795403D01*
X209086163Y-93808164D01*
X209096423Y-93821997D01*
X209105277Y-93836770D01*
X209112641Y-93852339D01*
X209118443Y-93868555D01*
X209122628Y-93885262D01*
X209125155Y-93902298D01*
X209126000Y-93919500D01*
X209126000Y-94270500D01*
X209125155Y-94287702D01*
X209122628Y-94304738D01*
X209118443Y-94321445D01*
X209112641Y-94337661D01*
X209105277Y-94353230D01*
X209096423Y-94368003D01*
X209086163Y-94381836D01*
X209074597Y-94394597D01*
X209061836Y-94406163D01*
X209048003Y-94416423D01*
X209033230Y-94425277D01*
X209017661Y-94432641D01*
X209001445Y-94438443D01*
X208984738Y-94442628D01*
X208967702Y-94445155D01*
X208950500Y-94446000D01*
X207149500Y-94446000D01*
X207132298Y-94445155D01*
X207115262Y-94442628D01*
X207098555Y-94438443D01*
X207082339Y-94432641D01*
X207066770Y-94425277D01*
X207051997Y-94416423D01*
X207038164Y-94406163D01*
X207025403Y-94394597D01*
X207013837Y-94381836D01*
X207003577Y-94368003D01*
X206994723Y-94353230D01*
X206987359Y-94337661D01*
X206981557Y-94321445D01*
X206977372Y-94304738D01*
X206974845Y-94287702D01*
X206974000Y-94270500D01*
X206974000Y-93919500D01*
X206974845Y-93902298D01*
X206977372Y-93885262D01*
X206981557Y-93868555D01*
X206987359Y-93852339D01*
X206994723Y-93836770D01*
X207003577Y-93821997D01*
X207013837Y-93808164D01*
X207025403Y-93795403D01*
X207038164Y-93783837D01*
X207051997Y-93773577D01*
X207066770Y-93764723D01*
X207082339Y-93757359D01*
X207098555Y-93751557D01*
X207115262Y-93747372D01*
X207132298Y-93744845D01*
X207149500Y-93744000D01*
X208950500Y-93744000D01*
X208967702Y-93744845D01*
X208967702Y-93744845D01*
G37*
D13*
X208050000Y-94095000D03*
D12*
G36*
X208967702Y-92474845D02*
G01*
X208984738Y-92477372D01*
X209001445Y-92481557D01*
X209017661Y-92487359D01*
X209033230Y-92494723D01*
X209048003Y-92503577D01*
X209061836Y-92513837D01*
X209074597Y-92525403D01*
X209086163Y-92538164D01*
X209096423Y-92551997D01*
X209105277Y-92566770D01*
X209112641Y-92582339D01*
X209118443Y-92598555D01*
X209122628Y-92615262D01*
X209125155Y-92632298D01*
X209126000Y-92649500D01*
X209126000Y-93000500D01*
X209125155Y-93017702D01*
X209122628Y-93034738D01*
X209118443Y-93051445D01*
X209112641Y-93067661D01*
X209105277Y-93083230D01*
X209096423Y-93098003D01*
X209086163Y-93111836D01*
X209074597Y-93124597D01*
X209061836Y-93136163D01*
X209048003Y-93146423D01*
X209033230Y-93155277D01*
X209017661Y-93162641D01*
X209001445Y-93168443D01*
X208984738Y-93172628D01*
X208967702Y-93175155D01*
X208950500Y-93176000D01*
X207149500Y-93176000D01*
X207132298Y-93175155D01*
X207115262Y-93172628D01*
X207098555Y-93168443D01*
X207082339Y-93162641D01*
X207066770Y-93155277D01*
X207051997Y-93146423D01*
X207038164Y-93136163D01*
X207025403Y-93124597D01*
X207013837Y-93111836D01*
X207003577Y-93098003D01*
X206994723Y-93083230D01*
X206987359Y-93067661D01*
X206981557Y-93051445D01*
X206977372Y-93034738D01*
X206974845Y-93017702D01*
X206974000Y-93000500D01*
X206974000Y-92649500D01*
X206974845Y-92632298D01*
X206977372Y-92615262D01*
X206981557Y-92598555D01*
X206987359Y-92582339D01*
X206994723Y-92566770D01*
X207003577Y-92551997D01*
X207013837Y-92538164D01*
X207025403Y-92525403D01*
X207038164Y-92513837D01*
X207051997Y-92503577D01*
X207066770Y-92494723D01*
X207082339Y-92487359D01*
X207098555Y-92481557D01*
X207115262Y-92477372D01*
X207132298Y-92474845D01*
X207149500Y-92474000D01*
X208950500Y-92474000D01*
X208967702Y-92474845D01*
X208967702Y-92474845D01*
G37*
D13*
X208050000Y-92825000D03*
D12*
G36*
X208967702Y-91204845D02*
G01*
X208984738Y-91207372D01*
X209001445Y-91211557D01*
X209017661Y-91217359D01*
X209033230Y-91224723D01*
X209048003Y-91233577D01*
X209061836Y-91243837D01*
X209074597Y-91255403D01*
X209086163Y-91268164D01*
X209096423Y-91281997D01*
X209105277Y-91296770D01*
X209112641Y-91312339D01*
X209118443Y-91328555D01*
X209122628Y-91345262D01*
X209125155Y-91362298D01*
X209126000Y-91379500D01*
X209126000Y-91730500D01*
X209125155Y-91747702D01*
X209122628Y-91764738D01*
X209118443Y-91781445D01*
X209112641Y-91797661D01*
X209105277Y-91813230D01*
X209096423Y-91828003D01*
X209086163Y-91841836D01*
X209074597Y-91854597D01*
X209061836Y-91866163D01*
X209048003Y-91876423D01*
X209033230Y-91885277D01*
X209017661Y-91892641D01*
X209001445Y-91898443D01*
X208984738Y-91902628D01*
X208967702Y-91905155D01*
X208950500Y-91906000D01*
X207149500Y-91906000D01*
X207132298Y-91905155D01*
X207115262Y-91902628D01*
X207098555Y-91898443D01*
X207082339Y-91892641D01*
X207066770Y-91885277D01*
X207051997Y-91876423D01*
X207038164Y-91866163D01*
X207025403Y-91854597D01*
X207013837Y-91841836D01*
X207003577Y-91828003D01*
X206994723Y-91813230D01*
X206987359Y-91797661D01*
X206981557Y-91781445D01*
X206977372Y-91764738D01*
X206974845Y-91747702D01*
X206974000Y-91730500D01*
X206974000Y-91379500D01*
X206974845Y-91362298D01*
X206977372Y-91345262D01*
X206981557Y-91328555D01*
X206987359Y-91312339D01*
X206994723Y-91296770D01*
X207003577Y-91281997D01*
X207013837Y-91268164D01*
X207025403Y-91255403D01*
X207038164Y-91243837D01*
X207051997Y-91233577D01*
X207066770Y-91224723D01*
X207082339Y-91217359D01*
X207098555Y-91211557D01*
X207115262Y-91207372D01*
X207132298Y-91204845D01*
X207149500Y-91204000D01*
X208950500Y-91204000D01*
X208967702Y-91204845D01*
X208967702Y-91204845D01*
G37*
D13*
X208050000Y-91555000D03*
D12*
G36*
X208967702Y-89934845D02*
G01*
X208984738Y-89937372D01*
X209001445Y-89941557D01*
X209017661Y-89947359D01*
X209033230Y-89954723D01*
X209048003Y-89963577D01*
X209061836Y-89973837D01*
X209074597Y-89985403D01*
X209086163Y-89998164D01*
X209096423Y-90011997D01*
X209105277Y-90026770D01*
X209112641Y-90042339D01*
X209118443Y-90058555D01*
X209122628Y-90075262D01*
X209125155Y-90092298D01*
X209126000Y-90109500D01*
X209126000Y-90460500D01*
X209125155Y-90477702D01*
X209122628Y-90494738D01*
X209118443Y-90511445D01*
X209112641Y-90527661D01*
X209105277Y-90543230D01*
X209096423Y-90558003D01*
X209086163Y-90571836D01*
X209074597Y-90584597D01*
X209061836Y-90596163D01*
X209048003Y-90606423D01*
X209033230Y-90615277D01*
X209017661Y-90622641D01*
X209001445Y-90628443D01*
X208984738Y-90632628D01*
X208967702Y-90635155D01*
X208950500Y-90636000D01*
X207149500Y-90636000D01*
X207132298Y-90635155D01*
X207115262Y-90632628D01*
X207098555Y-90628443D01*
X207082339Y-90622641D01*
X207066770Y-90615277D01*
X207051997Y-90606423D01*
X207038164Y-90596163D01*
X207025403Y-90584597D01*
X207013837Y-90571836D01*
X207003577Y-90558003D01*
X206994723Y-90543230D01*
X206987359Y-90527661D01*
X206981557Y-90511445D01*
X206977372Y-90494738D01*
X206974845Y-90477702D01*
X206974000Y-90460500D01*
X206974000Y-90109500D01*
X206974845Y-90092298D01*
X206977372Y-90075262D01*
X206981557Y-90058555D01*
X206987359Y-90042339D01*
X206994723Y-90026770D01*
X207003577Y-90011997D01*
X207013837Y-89998164D01*
X207025403Y-89985403D01*
X207038164Y-89973837D01*
X207051997Y-89963577D01*
X207066770Y-89954723D01*
X207082339Y-89947359D01*
X207098555Y-89941557D01*
X207115262Y-89937372D01*
X207132298Y-89934845D01*
X207149500Y-89934000D01*
X208950500Y-89934000D01*
X208967702Y-89934845D01*
X208967702Y-89934845D01*
G37*
D13*
X208050000Y-90285000D03*
D12*
G36*
X199667702Y-89934845D02*
G01*
X199684738Y-89937372D01*
X199701445Y-89941557D01*
X199717661Y-89947359D01*
X199733230Y-89954723D01*
X199748003Y-89963577D01*
X199761836Y-89973837D01*
X199774597Y-89985403D01*
X199786163Y-89998164D01*
X199796423Y-90011997D01*
X199805277Y-90026770D01*
X199812641Y-90042339D01*
X199818443Y-90058555D01*
X199822628Y-90075262D01*
X199825155Y-90092298D01*
X199826000Y-90109500D01*
X199826000Y-90460500D01*
X199825155Y-90477702D01*
X199822628Y-90494738D01*
X199818443Y-90511445D01*
X199812641Y-90527661D01*
X199805277Y-90543230D01*
X199796423Y-90558003D01*
X199786163Y-90571836D01*
X199774597Y-90584597D01*
X199761836Y-90596163D01*
X199748003Y-90606423D01*
X199733230Y-90615277D01*
X199717661Y-90622641D01*
X199701445Y-90628443D01*
X199684738Y-90632628D01*
X199667702Y-90635155D01*
X199650500Y-90636000D01*
X197849500Y-90636000D01*
X197832298Y-90635155D01*
X197815262Y-90632628D01*
X197798555Y-90628443D01*
X197782339Y-90622641D01*
X197766770Y-90615277D01*
X197751997Y-90606423D01*
X197738164Y-90596163D01*
X197725403Y-90584597D01*
X197713837Y-90571836D01*
X197703577Y-90558003D01*
X197694723Y-90543230D01*
X197687359Y-90527661D01*
X197681557Y-90511445D01*
X197677372Y-90494738D01*
X197674845Y-90477702D01*
X197674000Y-90460500D01*
X197674000Y-90109500D01*
X197674845Y-90092298D01*
X197677372Y-90075262D01*
X197681557Y-90058555D01*
X197687359Y-90042339D01*
X197694723Y-90026770D01*
X197703577Y-90011997D01*
X197713837Y-89998164D01*
X197725403Y-89985403D01*
X197738164Y-89973837D01*
X197751997Y-89963577D01*
X197766770Y-89954723D01*
X197782339Y-89947359D01*
X197798555Y-89941557D01*
X197815262Y-89937372D01*
X197832298Y-89934845D01*
X197849500Y-89934000D01*
X199650500Y-89934000D01*
X199667702Y-89934845D01*
X199667702Y-89934845D01*
G37*
D13*
X198750000Y-90285000D03*
D12*
G36*
X199667702Y-91204845D02*
G01*
X199684738Y-91207372D01*
X199701445Y-91211557D01*
X199717661Y-91217359D01*
X199733230Y-91224723D01*
X199748003Y-91233577D01*
X199761836Y-91243837D01*
X199774597Y-91255403D01*
X199786163Y-91268164D01*
X199796423Y-91281997D01*
X199805277Y-91296770D01*
X199812641Y-91312339D01*
X199818443Y-91328555D01*
X199822628Y-91345262D01*
X199825155Y-91362298D01*
X199826000Y-91379500D01*
X199826000Y-91730500D01*
X199825155Y-91747702D01*
X199822628Y-91764738D01*
X199818443Y-91781445D01*
X199812641Y-91797661D01*
X199805277Y-91813230D01*
X199796423Y-91828003D01*
X199786163Y-91841836D01*
X199774597Y-91854597D01*
X199761836Y-91866163D01*
X199748003Y-91876423D01*
X199733230Y-91885277D01*
X199717661Y-91892641D01*
X199701445Y-91898443D01*
X199684738Y-91902628D01*
X199667702Y-91905155D01*
X199650500Y-91906000D01*
X197849500Y-91906000D01*
X197832298Y-91905155D01*
X197815262Y-91902628D01*
X197798555Y-91898443D01*
X197782339Y-91892641D01*
X197766770Y-91885277D01*
X197751997Y-91876423D01*
X197738164Y-91866163D01*
X197725403Y-91854597D01*
X197713837Y-91841836D01*
X197703577Y-91828003D01*
X197694723Y-91813230D01*
X197687359Y-91797661D01*
X197681557Y-91781445D01*
X197677372Y-91764738D01*
X197674845Y-91747702D01*
X197674000Y-91730500D01*
X197674000Y-91379500D01*
X197674845Y-91362298D01*
X197677372Y-91345262D01*
X197681557Y-91328555D01*
X197687359Y-91312339D01*
X197694723Y-91296770D01*
X197703577Y-91281997D01*
X197713837Y-91268164D01*
X197725403Y-91255403D01*
X197738164Y-91243837D01*
X197751997Y-91233577D01*
X197766770Y-91224723D01*
X197782339Y-91217359D01*
X197798555Y-91211557D01*
X197815262Y-91207372D01*
X197832298Y-91204845D01*
X197849500Y-91204000D01*
X199650500Y-91204000D01*
X199667702Y-91204845D01*
X199667702Y-91204845D01*
G37*
D13*
X198750000Y-91555000D03*
D12*
G36*
X199667702Y-92474845D02*
G01*
X199684738Y-92477372D01*
X199701445Y-92481557D01*
X199717661Y-92487359D01*
X199733230Y-92494723D01*
X199748003Y-92503577D01*
X199761836Y-92513837D01*
X199774597Y-92525403D01*
X199786163Y-92538164D01*
X199796423Y-92551997D01*
X199805277Y-92566770D01*
X199812641Y-92582339D01*
X199818443Y-92598555D01*
X199822628Y-92615262D01*
X199825155Y-92632298D01*
X199826000Y-92649500D01*
X199826000Y-93000500D01*
X199825155Y-93017702D01*
X199822628Y-93034738D01*
X199818443Y-93051445D01*
X199812641Y-93067661D01*
X199805277Y-93083230D01*
X199796423Y-93098003D01*
X199786163Y-93111836D01*
X199774597Y-93124597D01*
X199761836Y-93136163D01*
X199748003Y-93146423D01*
X199733230Y-93155277D01*
X199717661Y-93162641D01*
X199701445Y-93168443D01*
X199684738Y-93172628D01*
X199667702Y-93175155D01*
X199650500Y-93176000D01*
X197849500Y-93176000D01*
X197832298Y-93175155D01*
X197815262Y-93172628D01*
X197798555Y-93168443D01*
X197782339Y-93162641D01*
X197766770Y-93155277D01*
X197751997Y-93146423D01*
X197738164Y-93136163D01*
X197725403Y-93124597D01*
X197713837Y-93111836D01*
X197703577Y-93098003D01*
X197694723Y-93083230D01*
X197687359Y-93067661D01*
X197681557Y-93051445D01*
X197677372Y-93034738D01*
X197674845Y-93017702D01*
X197674000Y-93000500D01*
X197674000Y-92649500D01*
X197674845Y-92632298D01*
X197677372Y-92615262D01*
X197681557Y-92598555D01*
X197687359Y-92582339D01*
X197694723Y-92566770D01*
X197703577Y-92551997D01*
X197713837Y-92538164D01*
X197725403Y-92525403D01*
X197738164Y-92513837D01*
X197751997Y-92503577D01*
X197766770Y-92494723D01*
X197782339Y-92487359D01*
X197798555Y-92481557D01*
X197815262Y-92477372D01*
X197832298Y-92474845D01*
X197849500Y-92474000D01*
X199650500Y-92474000D01*
X199667702Y-92474845D01*
X199667702Y-92474845D01*
G37*
D13*
X198750000Y-92825000D03*
D12*
G36*
X199667702Y-93744845D02*
G01*
X199684738Y-93747372D01*
X199701445Y-93751557D01*
X199717661Y-93757359D01*
X199733230Y-93764723D01*
X199748003Y-93773577D01*
X199761836Y-93783837D01*
X199774597Y-93795403D01*
X199786163Y-93808164D01*
X199796423Y-93821997D01*
X199805277Y-93836770D01*
X199812641Y-93852339D01*
X199818443Y-93868555D01*
X199822628Y-93885262D01*
X199825155Y-93902298D01*
X199826000Y-93919500D01*
X199826000Y-94270500D01*
X199825155Y-94287702D01*
X199822628Y-94304738D01*
X199818443Y-94321445D01*
X199812641Y-94337661D01*
X199805277Y-94353230D01*
X199796423Y-94368003D01*
X199786163Y-94381836D01*
X199774597Y-94394597D01*
X199761836Y-94406163D01*
X199748003Y-94416423D01*
X199733230Y-94425277D01*
X199717661Y-94432641D01*
X199701445Y-94438443D01*
X199684738Y-94442628D01*
X199667702Y-94445155D01*
X199650500Y-94446000D01*
X197849500Y-94446000D01*
X197832298Y-94445155D01*
X197815262Y-94442628D01*
X197798555Y-94438443D01*
X197782339Y-94432641D01*
X197766770Y-94425277D01*
X197751997Y-94416423D01*
X197738164Y-94406163D01*
X197725403Y-94394597D01*
X197713837Y-94381836D01*
X197703577Y-94368003D01*
X197694723Y-94353230D01*
X197687359Y-94337661D01*
X197681557Y-94321445D01*
X197677372Y-94304738D01*
X197674845Y-94287702D01*
X197674000Y-94270500D01*
X197674000Y-93919500D01*
X197674845Y-93902298D01*
X197677372Y-93885262D01*
X197681557Y-93868555D01*
X197687359Y-93852339D01*
X197694723Y-93836770D01*
X197703577Y-93821997D01*
X197713837Y-93808164D01*
X197725403Y-93795403D01*
X197738164Y-93783837D01*
X197751997Y-93773577D01*
X197766770Y-93764723D01*
X197782339Y-93757359D01*
X197798555Y-93751557D01*
X197815262Y-93747372D01*
X197832298Y-93744845D01*
X197849500Y-93744000D01*
X199650500Y-93744000D01*
X199667702Y-93744845D01*
X199667702Y-93744845D01*
G37*
D13*
X198750000Y-94095000D03*
D12*
G36*
X199667702Y-95014845D02*
G01*
X199684738Y-95017372D01*
X199701445Y-95021557D01*
X199717661Y-95027359D01*
X199733230Y-95034723D01*
X199748003Y-95043577D01*
X199761836Y-95053837D01*
X199774597Y-95065403D01*
X199786163Y-95078164D01*
X199796423Y-95091997D01*
X199805277Y-95106770D01*
X199812641Y-95122339D01*
X199818443Y-95138555D01*
X199822628Y-95155262D01*
X199825155Y-95172298D01*
X199826000Y-95189500D01*
X199826000Y-95540500D01*
X199825155Y-95557702D01*
X199822628Y-95574738D01*
X199818443Y-95591445D01*
X199812641Y-95607661D01*
X199805277Y-95623230D01*
X199796423Y-95638003D01*
X199786163Y-95651836D01*
X199774597Y-95664597D01*
X199761836Y-95676163D01*
X199748003Y-95686423D01*
X199733230Y-95695277D01*
X199717661Y-95702641D01*
X199701445Y-95708443D01*
X199684738Y-95712628D01*
X199667702Y-95715155D01*
X199650500Y-95716000D01*
X197849500Y-95716000D01*
X197832298Y-95715155D01*
X197815262Y-95712628D01*
X197798555Y-95708443D01*
X197782339Y-95702641D01*
X197766770Y-95695277D01*
X197751997Y-95686423D01*
X197738164Y-95676163D01*
X197725403Y-95664597D01*
X197713837Y-95651836D01*
X197703577Y-95638003D01*
X197694723Y-95623230D01*
X197687359Y-95607661D01*
X197681557Y-95591445D01*
X197677372Y-95574738D01*
X197674845Y-95557702D01*
X197674000Y-95540500D01*
X197674000Y-95189500D01*
X197674845Y-95172298D01*
X197677372Y-95155262D01*
X197681557Y-95138555D01*
X197687359Y-95122339D01*
X197694723Y-95106770D01*
X197703577Y-95091997D01*
X197713837Y-95078164D01*
X197725403Y-95065403D01*
X197738164Y-95053837D01*
X197751997Y-95043577D01*
X197766770Y-95034723D01*
X197782339Y-95027359D01*
X197798555Y-95021557D01*
X197815262Y-95017372D01*
X197832298Y-95014845D01*
X197849500Y-95014000D01*
X199650500Y-95014000D01*
X199667702Y-95014845D01*
X199667702Y-95014845D01*
G37*
D13*
X198750000Y-95365000D03*
D12*
G36*
X199667702Y-96284845D02*
G01*
X199684738Y-96287372D01*
X199701445Y-96291557D01*
X199717661Y-96297359D01*
X199733230Y-96304723D01*
X199748003Y-96313577D01*
X199761836Y-96323837D01*
X199774597Y-96335403D01*
X199786163Y-96348164D01*
X199796423Y-96361997D01*
X199805277Y-96376770D01*
X199812641Y-96392339D01*
X199818443Y-96408555D01*
X199822628Y-96425262D01*
X199825155Y-96442298D01*
X199826000Y-96459500D01*
X199826000Y-96810500D01*
X199825155Y-96827702D01*
X199822628Y-96844738D01*
X199818443Y-96861445D01*
X199812641Y-96877661D01*
X199805277Y-96893230D01*
X199796423Y-96908003D01*
X199786163Y-96921836D01*
X199774597Y-96934597D01*
X199761836Y-96946163D01*
X199748003Y-96956423D01*
X199733230Y-96965277D01*
X199717661Y-96972641D01*
X199701445Y-96978443D01*
X199684738Y-96982628D01*
X199667702Y-96985155D01*
X199650500Y-96986000D01*
X197849500Y-96986000D01*
X197832298Y-96985155D01*
X197815262Y-96982628D01*
X197798555Y-96978443D01*
X197782339Y-96972641D01*
X197766770Y-96965277D01*
X197751997Y-96956423D01*
X197738164Y-96946163D01*
X197725403Y-96934597D01*
X197713837Y-96921836D01*
X197703577Y-96908003D01*
X197694723Y-96893230D01*
X197687359Y-96877661D01*
X197681557Y-96861445D01*
X197677372Y-96844738D01*
X197674845Y-96827702D01*
X197674000Y-96810500D01*
X197674000Y-96459500D01*
X197674845Y-96442298D01*
X197677372Y-96425262D01*
X197681557Y-96408555D01*
X197687359Y-96392339D01*
X197694723Y-96376770D01*
X197703577Y-96361997D01*
X197713837Y-96348164D01*
X197725403Y-96335403D01*
X197738164Y-96323837D01*
X197751997Y-96313577D01*
X197766770Y-96304723D01*
X197782339Y-96297359D01*
X197798555Y-96291557D01*
X197815262Y-96287372D01*
X197832298Y-96284845D01*
X197849500Y-96284000D01*
X199650500Y-96284000D01*
X199667702Y-96284845D01*
X199667702Y-96284845D01*
G37*
D13*
X198750000Y-96635000D03*
D12*
G36*
X199667702Y-97554845D02*
G01*
X199684738Y-97557372D01*
X199701445Y-97561557D01*
X199717661Y-97567359D01*
X199733230Y-97574723D01*
X199748003Y-97583577D01*
X199761836Y-97593837D01*
X199774597Y-97605403D01*
X199786163Y-97618164D01*
X199796423Y-97631997D01*
X199805277Y-97646770D01*
X199812641Y-97662339D01*
X199818443Y-97678555D01*
X199822628Y-97695262D01*
X199825155Y-97712298D01*
X199826000Y-97729500D01*
X199826000Y-98080500D01*
X199825155Y-98097702D01*
X199822628Y-98114738D01*
X199818443Y-98131445D01*
X199812641Y-98147661D01*
X199805277Y-98163230D01*
X199796423Y-98178003D01*
X199786163Y-98191836D01*
X199774597Y-98204597D01*
X199761836Y-98216163D01*
X199748003Y-98226423D01*
X199733230Y-98235277D01*
X199717661Y-98242641D01*
X199701445Y-98248443D01*
X199684738Y-98252628D01*
X199667702Y-98255155D01*
X199650500Y-98256000D01*
X197849500Y-98256000D01*
X197832298Y-98255155D01*
X197815262Y-98252628D01*
X197798555Y-98248443D01*
X197782339Y-98242641D01*
X197766770Y-98235277D01*
X197751997Y-98226423D01*
X197738164Y-98216163D01*
X197725403Y-98204597D01*
X197713837Y-98191836D01*
X197703577Y-98178003D01*
X197694723Y-98163230D01*
X197687359Y-98147661D01*
X197681557Y-98131445D01*
X197677372Y-98114738D01*
X197674845Y-98097702D01*
X197674000Y-98080500D01*
X197674000Y-97729500D01*
X197674845Y-97712298D01*
X197677372Y-97695262D01*
X197681557Y-97678555D01*
X197687359Y-97662339D01*
X197694723Y-97646770D01*
X197703577Y-97631997D01*
X197713837Y-97618164D01*
X197725403Y-97605403D01*
X197738164Y-97593837D01*
X197751997Y-97583577D01*
X197766770Y-97574723D01*
X197782339Y-97567359D01*
X197798555Y-97561557D01*
X197815262Y-97557372D01*
X197832298Y-97554845D01*
X197849500Y-97554000D01*
X199650500Y-97554000D01*
X199667702Y-97554845D01*
X199667702Y-97554845D01*
G37*
D13*
X198750000Y-97905000D03*
D12*
G36*
X199667702Y-98824845D02*
G01*
X199684738Y-98827372D01*
X199701445Y-98831557D01*
X199717661Y-98837359D01*
X199733230Y-98844723D01*
X199748003Y-98853577D01*
X199761836Y-98863837D01*
X199774597Y-98875403D01*
X199786163Y-98888164D01*
X199796423Y-98901997D01*
X199805277Y-98916770D01*
X199812641Y-98932339D01*
X199818443Y-98948555D01*
X199822628Y-98965262D01*
X199825155Y-98982298D01*
X199826000Y-98999500D01*
X199826000Y-99350500D01*
X199825155Y-99367702D01*
X199822628Y-99384738D01*
X199818443Y-99401445D01*
X199812641Y-99417661D01*
X199805277Y-99433230D01*
X199796423Y-99448003D01*
X199786163Y-99461836D01*
X199774597Y-99474597D01*
X199761836Y-99486163D01*
X199748003Y-99496423D01*
X199733230Y-99505277D01*
X199717661Y-99512641D01*
X199701445Y-99518443D01*
X199684738Y-99522628D01*
X199667702Y-99525155D01*
X199650500Y-99526000D01*
X197849500Y-99526000D01*
X197832298Y-99525155D01*
X197815262Y-99522628D01*
X197798555Y-99518443D01*
X197782339Y-99512641D01*
X197766770Y-99505277D01*
X197751997Y-99496423D01*
X197738164Y-99486163D01*
X197725403Y-99474597D01*
X197713837Y-99461836D01*
X197703577Y-99448003D01*
X197694723Y-99433230D01*
X197687359Y-99417661D01*
X197681557Y-99401445D01*
X197677372Y-99384738D01*
X197674845Y-99367702D01*
X197674000Y-99350500D01*
X197674000Y-98999500D01*
X197674845Y-98982298D01*
X197677372Y-98965262D01*
X197681557Y-98948555D01*
X197687359Y-98932339D01*
X197694723Y-98916770D01*
X197703577Y-98901997D01*
X197713837Y-98888164D01*
X197725403Y-98875403D01*
X197738164Y-98863837D01*
X197751997Y-98853577D01*
X197766770Y-98844723D01*
X197782339Y-98837359D01*
X197798555Y-98831557D01*
X197815262Y-98827372D01*
X197832298Y-98824845D01*
X197849500Y-98824000D01*
X199650500Y-98824000D01*
X199667702Y-98824845D01*
X199667702Y-98824845D01*
G37*
D13*
X198750000Y-99175000D03*
D12*
G36*
X199667702Y-100094845D02*
G01*
X199684738Y-100097372D01*
X199701445Y-100101557D01*
X199717661Y-100107359D01*
X199733230Y-100114723D01*
X199748003Y-100123577D01*
X199761836Y-100133837D01*
X199774597Y-100145403D01*
X199786163Y-100158164D01*
X199796423Y-100171997D01*
X199805277Y-100186770D01*
X199812641Y-100202339D01*
X199818443Y-100218555D01*
X199822628Y-100235262D01*
X199825155Y-100252298D01*
X199826000Y-100269500D01*
X199826000Y-100620500D01*
X199825155Y-100637702D01*
X199822628Y-100654738D01*
X199818443Y-100671445D01*
X199812641Y-100687661D01*
X199805277Y-100703230D01*
X199796423Y-100718003D01*
X199786163Y-100731836D01*
X199774597Y-100744597D01*
X199761836Y-100756163D01*
X199748003Y-100766423D01*
X199733230Y-100775277D01*
X199717661Y-100782641D01*
X199701445Y-100788443D01*
X199684738Y-100792628D01*
X199667702Y-100795155D01*
X199650500Y-100796000D01*
X197849500Y-100796000D01*
X197832298Y-100795155D01*
X197815262Y-100792628D01*
X197798555Y-100788443D01*
X197782339Y-100782641D01*
X197766770Y-100775277D01*
X197751997Y-100766423D01*
X197738164Y-100756163D01*
X197725403Y-100744597D01*
X197713837Y-100731836D01*
X197703577Y-100718003D01*
X197694723Y-100703230D01*
X197687359Y-100687661D01*
X197681557Y-100671445D01*
X197677372Y-100654738D01*
X197674845Y-100637702D01*
X197674000Y-100620500D01*
X197674000Y-100269500D01*
X197674845Y-100252298D01*
X197677372Y-100235262D01*
X197681557Y-100218555D01*
X197687359Y-100202339D01*
X197694723Y-100186770D01*
X197703577Y-100171997D01*
X197713837Y-100158164D01*
X197725403Y-100145403D01*
X197738164Y-100133837D01*
X197751997Y-100123577D01*
X197766770Y-100114723D01*
X197782339Y-100107359D01*
X197798555Y-100101557D01*
X197815262Y-100097372D01*
X197832298Y-100094845D01*
X197849500Y-100094000D01*
X199650500Y-100094000D01*
X199667702Y-100094845D01*
X199667702Y-100094845D01*
G37*
D13*
X198750000Y-100445000D03*
D12*
G36*
X199667702Y-101364845D02*
G01*
X199684738Y-101367372D01*
X199701445Y-101371557D01*
X199717661Y-101377359D01*
X199733230Y-101384723D01*
X199748003Y-101393577D01*
X199761836Y-101403837D01*
X199774597Y-101415403D01*
X199786163Y-101428164D01*
X199796423Y-101441997D01*
X199805277Y-101456770D01*
X199812641Y-101472339D01*
X199818443Y-101488555D01*
X199822628Y-101505262D01*
X199825155Y-101522298D01*
X199826000Y-101539500D01*
X199826000Y-101890500D01*
X199825155Y-101907702D01*
X199822628Y-101924738D01*
X199818443Y-101941445D01*
X199812641Y-101957661D01*
X199805277Y-101973230D01*
X199796423Y-101988003D01*
X199786163Y-102001836D01*
X199774597Y-102014597D01*
X199761836Y-102026163D01*
X199748003Y-102036423D01*
X199733230Y-102045277D01*
X199717661Y-102052641D01*
X199701445Y-102058443D01*
X199684738Y-102062628D01*
X199667702Y-102065155D01*
X199650500Y-102066000D01*
X197849500Y-102066000D01*
X197832298Y-102065155D01*
X197815262Y-102062628D01*
X197798555Y-102058443D01*
X197782339Y-102052641D01*
X197766770Y-102045277D01*
X197751997Y-102036423D01*
X197738164Y-102026163D01*
X197725403Y-102014597D01*
X197713837Y-102001836D01*
X197703577Y-101988003D01*
X197694723Y-101973230D01*
X197687359Y-101957661D01*
X197681557Y-101941445D01*
X197677372Y-101924738D01*
X197674845Y-101907702D01*
X197674000Y-101890500D01*
X197674000Y-101539500D01*
X197674845Y-101522298D01*
X197677372Y-101505262D01*
X197681557Y-101488555D01*
X197687359Y-101472339D01*
X197694723Y-101456770D01*
X197703577Y-101441997D01*
X197713837Y-101428164D01*
X197725403Y-101415403D01*
X197738164Y-101403837D01*
X197751997Y-101393577D01*
X197766770Y-101384723D01*
X197782339Y-101377359D01*
X197798555Y-101371557D01*
X197815262Y-101367372D01*
X197832298Y-101364845D01*
X197849500Y-101364000D01*
X199650500Y-101364000D01*
X199667702Y-101364845D01*
X199667702Y-101364845D01*
G37*
D13*
X198750000Y-101715000D03*
D12*
G36*
X212755505Y-100900311D02*
G01*
X212781925Y-100904230D01*
X212807835Y-100910720D01*
X212832983Y-100919718D01*
X212857128Y-100931138D01*
X212880038Y-100944869D01*
X212901492Y-100960780D01*
X212921282Y-100978718D01*
X212939220Y-100998508D01*
X212955131Y-101019962D01*
X212968862Y-101042872D01*
X212980282Y-101067017D01*
X212989280Y-101092165D01*
X212995770Y-101118075D01*
X212999689Y-101144495D01*
X213001000Y-101171173D01*
X213001000Y-102128827D01*
X212999689Y-102155505D01*
X212995770Y-102181925D01*
X212989280Y-102207835D01*
X212980282Y-102232983D01*
X212968862Y-102257128D01*
X212955131Y-102280038D01*
X212939220Y-102301492D01*
X212921282Y-102321282D01*
X212901492Y-102339220D01*
X212880038Y-102355131D01*
X212857128Y-102368862D01*
X212832983Y-102380282D01*
X212807835Y-102389280D01*
X212781925Y-102395770D01*
X212755505Y-102399689D01*
X212728827Y-102401000D01*
X212021173Y-102401000D01*
X211994495Y-102399689D01*
X211968075Y-102395770D01*
X211942165Y-102389280D01*
X211917017Y-102380282D01*
X211892872Y-102368862D01*
X211869962Y-102355131D01*
X211848508Y-102339220D01*
X211828718Y-102321282D01*
X211810780Y-102301492D01*
X211794869Y-102280038D01*
X211781138Y-102257128D01*
X211769718Y-102232983D01*
X211760720Y-102207835D01*
X211754230Y-102181925D01*
X211750311Y-102155505D01*
X211749000Y-102128827D01*
X211749000Y-101171173D01*
X211750311Y-101144495D01*
X211754230Y-101118075D01*
X211760720Y-101092165D01*
X211769718Y-101067017D01*
X211781138Y-101042872D01*
X211794869Y-101019962D01*
X211810780Y-100998508D01*
X211828718Y-100978718D01*
X211848508Y-100960780D01*
X211869962Y-100944869D01*
X211892872Y-100931138D01*
X211917017Y-100919718D01*
X211942165Y-100910720D01*
X211968075Y-100904230D01*
X211994495Y-100900311D01*
X212021173Y-100899000D01*
X212728827Y-100899000D01*
X212755505Y-100900311D01*
X212755505Y-100900311D01*
G37*
D14*
X212375000Y-101650000D03*
D12*
G36*
X210705505Y-100900311D02*
G01*
X210731925Y-100904230D01*
X210757835Y-100910720D01*
X210782983Y-100919718D01*
X210807128Y-100931138D01*
X210830038Y-100944869D01*
X210851492Y-100960780D01*
X210871282Y-100978718D01*
X210889220Y-100998508D01*
X210905131Y-101019962D01*
X210918862Y-101042872D01*
X210930282Y-101067017D01*
X210939280Y-101092165D01*
X210945770Y-101118075D01*
X210949689Y-101144495D01*
X210951000Y-101171173D01*
X210951000Y-102128827D01*
X210949689Y-102155505D01*
X210945770Y-102181925D01*
X210939280Y-102207835D01*
X210930282Y-102232983D01*
X210918862Y-102257128D01*
X210905131Y-102280038D01*
X210889220Y-102301492D01*
X210871282Y-102321282D01*
X210851492Y-102339220D01*
X210830038Y-102355131D01*
X210807128Y-102368862D01*
X210782983Y-102380282D01*
X210757835Y-102389280D01*
X210731925Y-102395770D01*
X210705505Y-102399689D01*
X210678827Y-102401000D01*
X209971173Y-102401000D01*
X209944495Y-102399689D01*
X209918075Y-102395770D01*
X209892165Y-102389280D01*
X209867017Y-102380282D01*
X209842872Y-102368862D01*
X209819962Y-102355131D01*
X209798508Y-102339220D01*
X209778718Y-102321282D01*
X209760780Y-102301492D01*
X209744869Y-102280038D01*
X209731138Y-102257128D01*
X209719718Y-102232983D01*
X209710720Y-102207835D01*
X209704230Y-102181925D01*
X209700311Y-102155505D01*
X209699000Y-102128827D01*
X209699000Y-101171173D01*
X209700311Y-101144495D01*
X209704230Y-101118075D01*
X209710720Y-101092165D01*
X209719718Y-101067017D01*
X209731138Y-101042872D01*
X209744869Y-101019962D01*
X209760780Y-100998508D01*
X209778718Y-100978718D01*
X209798508Y-100960780D01*
X209819962Y-100944869D01*
X209842872Y-100931138D01*
X209867017Y-100919718D01*
X209892165Y-100910720D01*
X209918075Y-100904230D01*
X209944495Y-100900311D01*
X209971173Y-100899000D01*
X210678827Y-100899000D01*
X210705505Y-100900311D01*
X210705505Y-100900311D01*
G37*
D14*
X210325000Y-101650000D03*
D12*
G36*
X219355505Y-93550311D02*
G01*
X219381925Y-93554230D01*
X219407835Y-93560720D01*
X219432983Y-93569718D01*
X219457128Y-93581138D01*
X219480038Y-93594869D01*
X219501492Y-93610780D01*
X219521282Y-93628718D01*
X219539220Y-93648508D01*
X219555131Y-93669962D01*
X219568862Y-93692872D01*
X219580282Y-93717017D01*
X219589280Y-93742165D01*
X219595770Y-93768075D01*
X219599689Y-93794495D01*
X219601000Y-93821173D01*
X219601000Y-94778827D01*
X219599689Y-94805505D01*
X219595770Y-94831925D01*
X219589280Y-94857835D01*
X219580282Y-94882983D01*
X219568862Y-94907128D01*
X219555131Y-94930038D01*
X219539220Y-94951492D01*
X219521282Y-94971282D01*
X219501492Y-94989220D01*
X219480038Y-95005131D01*
X219457128Y-95018862D01*
X219432983Y-95030282D01*
X219407835Y-95039280D01*
X219381925Y-95045770D01*
X219355505Y-95049689D01*
X219328827Y-95051000D01*
X218621173Y-95051000D01*
X218594495Y-95049689D01*
X218568075Y-95045770D01*
X218542165Y-95039280D01*
X218517017Y-95030282D01*
X218492872Y-95018862D01*
X218469962Y-95005131D01*
X218448508Y-94989220D01*
X218428718Y-94971282D01*
X218410780Y-94951492D01*
X218394869Y-94930038D01*
X218381138Y-94907128D01*
X218369718Y-94882983D01*
X218360720Y-94857835D01*
X218354230Y-94831925D01*
X218350311Y-94805505D01*
X218349000Y-94778827D01*
X218349000Y-93821173D01*
X218350311Y-93794495D01*
X218354230Y-93768075D01*
X218360720Y-93742165D01*
X218369718Y-93717017D01*
X218381138Y-93692872D01*
X218394869Y-93669962D01*
X218410780Y-93648508D01*
X218428718Y-93628718D01*
X218448508Y-93610780D01*
X218469962Y-93594869D01*
X218492872Y-93581138D01*
X218517017Y-93569718D01*
X218542165Y-93560720D01*
X218568075Y-93554230D01*
X218594495Y-93550311D01*
X218621173Y-93549000D01*
X219328827Y-93549000D01*
X219355505Y-93550311D01*
X219355505Y-93550311D01*
G37*
D14*
X218975000Y-94300000D03*
D12*
G36*
X221405505Y-93550311D02*
G01*
X221431925Y-93554230D01*
X221457835Y-93560720D01*
X221482983Y-93569718D01*
X221507128Y-93581138D01*
X221530038Y-93594869D01*
X221551492Y-93610780D01*
X221571282Y-93628718D01*
X221589220Y-93648508D01*
X221605131Y-93669962D01*
X221618862Y-93692872D01*
X221630282Y-93717017D01*
X221639280Y-93742165D01*
X221645770Y-93768075D01*
X221649689Y-93794495D01*
X221651000Y-93821173D01*
X221651000Y-94778827D01*
X221649689Y-94805505D01*
X221645770Y-94831925D01*
X221639280Y-94857835D01*
X221630282Y-94882983D01*
X221618862Y-94907128D01*
X221605131Y-94930038D01*
X221589220Y-94951492D01*
X221571282Y-94971282D01*
X221551492Y-94989220D01*
X221530038Y-95005131D01*
X221507128Y-95018862D01*
X221482983Y-95030282D01*
X221457835Y-95039280D01*
X221431925Y-95045770D01*
X221405505Y-95049689D01*
X221378827Y-95051000D01*
X220671173Y-95051000D01*
X220644495Y-95049689D01*
X220618075Y-95045770D01*
X220592165Y-95039280D01*
X220567017Y-95030282D01*
X220542872Y-95018862D01*
X220519962Y-95005131D01*
X220498508Y-94989220D01*
X220478718Y-94971282D01*
X220460780Y-94951492D01*
X220444869Y-94930038D01*
X220431138Y-94907128D01*
X220419718Y-94882983D01*
X220410720Y-94857835D01*
X220404230Y-94831925D01*
X220400311Y-94805505D01*
X220399000Y-94778827D01*
X220399000Y-93821173D01*
X220400311Y-93794495D01*
X220404230Y-93768075D01*
X220410720Y-93742165D01*
X220419718Y-93717017D01*
X220431138Y-93692872D01*
X220444869Y-93669962D01*
X220460780Y-93648508D01*
X220478718Y-93628718D01*
X220498508Y-93610780D01*
X220519962Y-93594869D01*
X220542872Y-93581138D01*
X220567017Y-93569718D01*
X220592165Y-93560720D01*
X220618075Y-93554230D01*
X220644495Y-93550311D01*
X220671173Y-93549000D01*
X221378827Y-93549000D01*
X221405505Y-93550311D01*
X221405505Y-93550311D01*
G37*
D14*
X221025000Y-94300000D03*
D12*
G36*
X217605505Y-98950311D02*
G01*
X217631925Y-98954230D01*
X217657835Y-98960720D01*
X217682983Y-98969718D01*
X217707128Y-98981138D01*
X217730038Y-98994869D01*
X217751492Y-99010780D01*
X217771282Y-99028718D01*
X217789220Y-99048508D01*
X217805131Y-99069962D01*
X217818862Y-99092872D01*
X217830282Y-99117017D01*
X217839280Y-99142165D01*
X217845770Y-99168075D01*
X217849689Y-99194495D01*
X217851000Y-99221173D01*
X217851000Y-100178827D01*
X217849689Y-100205505D01*
X217845770Y-100231925D01*
X217839280Y-100257835D01*
X217830282Y-100282983D01*
X217818862Y-100307128D01*
X217805131Y-100330038D01*
X217789220Y-100351492D01*
X217771282Y-100371282D01*
X217751492Y-100389220D01*
X217730038Y-100405131D01*
X217707128Y-100418862D01*
X217682983Y-100430282D01*
X217657835Y-100439280D01*
X217631925Y-100445770D01*
X217605505Y-100449689D01*
X217578827Y-100451000D01*
X216871173Y-100451000D01*
X216844495Y-100449689D01*
X216818075Y-100445770D01*
X216792165Y-100439280D01*
X216767017Y-100430282D01*
X216742872Y-100418862D01*
X216719962Y-100405131D01*
X216698508Y-100389220D01*
X216678718Y-100371282D01*
X216660780Y-100351492D01*
X216644869Y-100330038D01*
X216631138Y-100307128D01*
X216619718Y-100282983D01*
X216610720Y-100257835D01*
X216604230Y-100231925D01*
X216600311Y-100205505D01*
X216599000Y-100178827D01*
X216599000Y-99221173D01*
X216600311Y-99194495D01*
X216604230Y-99168075D01*
X216610720Y-99142165D01*
X216619718Y-99117017D01*
X216631138Y-99092872D01*
X216644869Y-99069962D01*
X216660780Y-99048508D01*
X216678718Y-99028718D01*
X216698508Y-99010780D01*
X216719962Y-98994869D01*
X216742872Y-98981138D01*
X216767017Y-98969718D01*
X216792165Y-98960720D01*
X216818075Y-98954230D01*
X216844495Y-98950311D01*
X216871173Y-98949000D01*
X217578827Y-98949000D01*
X217605505Y-98950311D01*
X217605505Y-98950311D01*
G37*
D14*
X217225000Y-99700000D03*
D12*
G36*
X215555505Y-98950311D02*
G01*
X215581925Y-98954230D01*
X215607835Y-98960720D01*
X215632983Y-98969718D01*
X215657128Y-98981138D01*
X215680038Y-98994869D01*
X215701492Y-99010780D01*
X215721282Y-99028718D01*
X215739220Y-99048508D01*
X215755131Y-99069962D01*
X215768862Y-99092872D01*
X215780282Y-99117017D01*
X215789280Y-99142165D01*
X215795770Y-99168075D01*
X215799689Y-99194495D01*
X215801000Y-99221173D01*
X215801000Y-100178827D01*
X215799689Y-100205505D01*
X215795770Y-100231925D01*
X215789280Y-100257835D01*
X215780282Y-100282983D01*
X215768862Y-100307128D01*
X215755131Y-100330038D01*
X215739220Y-100351492D01*
X215721282Y-100371282D01*
X215701492Y-100389220D01*
X215680038Y-100405131D01*
X215657128Y-100418862D01*
X215632983Y-100430282D01*
X215607835Y-100439280D01*
X215581925Y-100445770D01*
X215555505Y-100449689D01*
X215528827Y-100451000D01*
X214821173Y-100451000D01*
X214794495Y-100449689D01*
X214768075Y-100445770D01*
X214742165Y-100439280D01*
X214717017Y-100430282D01*
X214692872Y-100418862D01*
X214669962Y-100405131D01*
X214648508Y-100389220D01*
X214628718Y-100371282D01*
X214610780Y-100351492D01*
X214594869Y-100330038D01*
X214581138Y-100307128D01*
X214569718Y-100282983D01*
X214560720Y-100257835D01*
X214554230Y-100231925D01*
X214550311Y-100205505D01*
X214549000Y-100178827D01*
X214549000Y-99221173D01*
X214550311Y-99194495D01*
X214554230Y-99168075D01*
X214560720Y-99142165D01*
X214569718Y-99117017D01*
X214581138Y-99092872D01*
X214594869Y-99069962D01*
X214610780Y-99048508D01*
X214628718Y-99028718D01*
X214648508Y-99010780D01*
X214669962Y-98994869D01*
X214692872Y-98981138D01*
X214717017Y-98969718D01*
X214742165Y-98960720D01*
X214768075Y-98954230D01*
X214794495Y-98950311D01*
X214821173Y-98949000D01*
X215528827Y-98949000D01*
X215555505Y-98950311D01*
X215555505Y-98950311D01*
G37*
D14*
X215175000Y-99700000D03*
D15*
X216760000Y-104500000D03*
D16*
X219300000Y-104500000D03*
X221840000Y-104500000D03*
D15*
X211840000Y-104500000D03*
D16*
X209300000Y-104500000D03*
X206760000Y-104500000D03*
X204220000Y-104500000D03*
X201680000Y-104500000D03*
X199140000Y-104500000D03*
D15*
X199300000Y-87000000D03*
D16*
X201840000Y-87000000D03*
X204380000Y-87000000D03*
X206920000Y-87000000D03*
X209460000Y-87000000D03*
X212000000Y-87000000D03*
X214540000Y-87000000D03*
X217080000Y-87000000D03*
X219620000Y-87000000D03*
X222160000Y-87000000D03*
D17*
X216650000Y-94550000D03*
X213750000Y-94550000D03*
X213750000Y-96850000D03*
X216650000Y-96850000D03*
M02*
