G04 #@! TF.GenerationSoftware,KiCad,Pcbnew,5.1.2-f72e74a~84~ubuntu18.04.1*
G04 #@! TF.CreationDate,2019-06-19T15:11:19+07:00*
G04 #@! TF.ProjectId,serial_matrix_keyboard_shild,73657269-616c-45f6-9d61-747269785f6b,rev?*
G04 #@! TF.SameCoordinates,Original*
G04 #@! TF.FileFunction,Soldermask,Top*
G04 #@! TF.FilePolarity,Negative*
%FSLAX46Y46*%
G04 Gerber Fmt 4.6, Leading zero omitted, Abs format (unit mm)*
G04 Created by KiCad (PCBNEW 5.1.2-f72e74a~84~ubuntu18.04.1) date 2019-06-19 15:11:19*
%MOMM*%
%LPD*%
G04 APERTURE LIST*
%ADD10C,0.020000*%
G04 APERTURE END LIST*
D10*
G36*
X221950443Y-103605519D02*
G01*
X222016627Y-103612037D01*
X222186466Y-103663557D01*
X222342991Y-103747222D01*
X222378729Y-103776552D01*
X222480186Y-103859814D01*
X222563448Y-103961271D01*
X222592778Y-103997009D01*
X222676443Y-104153534D01*
X222727963Y-104323373D01*
X222745359Y-104500000D01*
X222727963Y-104676627D01*
X222676443Y-104846466D01*
X222592778Y-105002991D01*
X222563448Y-105038729D01*
X222480186Y-105140186D01*
X222378729Y-105223448D01*
X222342991Y-105252778D01*
X222186466Y-105336443D01*
X222016627Y-105387963D01*
X221950443Y-105394481D01*
X221884260Y-105401000D01*
X221795740Y-105401000D01*
X221729557Y-105394481D01*
X221663373Y-105387963D01*
X221493534Y-105336443D01*
X221337009Y-105252778D01*
X221301271Y-105223448D01*
X221199814Y-105140186D01*
X221116552Y-105038729D01*
X221087222Y-105002991D01*
X221003557Y-104846466D01*
X220952037Y-104676627D01*
X220934641Y-104500000D01*
X220952037Y-104323373D01*
X221003557Y-104153534D01*
X221087222Y-103997009D01*
X221116552Y-103961271D01*
X221199814Y-103859814D01*
X221301271Y-103776552D01*
X221337009Y-103747222D01*
X221493534Y-103663557D01*
X221663373Y-103612037D01*
X221729558Y-103605518D01*
X221795740Y-103599000D01*
X221884260Y-103599000D01*
X221950443Y-103605519D01*
X221950443Y-103605519D01*
G37*
G36*
X201790443Y-103605519D02*
G01*
X201856627Y-103612037D01*
X202026466Y-103663557D01*
X202182991Y-103747222D01*
X202218729Y-103776552D01*
X202320186Y-103859814D01*
X202403448Y-103961271D01*
X202432778Y-103997009D01*
X202516443Y-104153534D01*
X202567963Y-104323373D01*
X202585359Y-104500000D01*
X202567963Y-104676627D01*
X202516443Y-104846466D01*
X202432778Y-105002991D01*
X202403448Y-105038729D01*
X202320186Y-105140186D01*
X202218729Y-105223448D01*
X202182991Y-105252778D01*
X202026466Y-105336443D01*
X201856627Y-105387963D01*
X201790443Y-105394481D01*
X201724260Y-105401000D01*
X201635740Y-105401000D01*
X201569557Y-105394481D01*
X201503373Y-105387963D01*
X201333534Y-105336443D01*
X201177009Y-105252778D01*
X201141271Y-105223448D01*
X201039814Y-105140186D01*
X200956552Y-105038729D01*
X200927222Y-105002991D01*
X200843557Y-104846466D01*
X200792037Y-104676627D01*
X200774641Y-104500000D01*
X200792037Y-104323373D01*
X200843557Y-104153534D01*
X200927222Y-103997009D01*
X200956552Y-103961271D01*
X201039814Y-103859814D01*
X201141271Y-103776552D01*
X201177009Y-103747222D01*
X201333534Y-103663557D01*
X201503373Y-103612037D01*
X201569558Y-103605518D01*
X201635740Y-103599000D01*
X201724260Y-103599000D01*
X201790443Y-103605519D01*
X201790443Y-103605519D01*
G37*
G36*
X199250443Y-103605519D02*
G01*
X199316627Y-103612037D01*
X199486466Y-103663557D01*
X199642991Y-103747222D01*
X199678729Y-103776552D01*
X199780186Y-103859814D01*
X199863448Y-103961271D01*
X199892778Y-103997009D01*
X199976443Y-104153534D01*
X200027963Y-104323373D01*
X200045359Y-104500000D01*
X200027963Y-104676627D01*
X199976443Y-104846466D01*
X199892778Y-105002991D01*
X199863448Y-105038729D01*
X199780186Y-105140186D01*
X199678729Y-105223448D01*
X199642991Y-105252778D01*
X199486466Y-105336443D01*
X199316627Y-105387963D01*
X199250443Y-105394481D01*
X199184260Y-105401000D01*
X199095740Y-105401000D01*
X199029557Y-105394481D01*
X198963373Y-105387963D01*
X198793534Y-105336443D01*
X198637009Y-105252778D01*
X198601271Y-105223448D01*
X198499814Y-105140186D01*
X198416552Y-105038729D01*
X198387222Y-105002991D01*
X198303557Y-104846466D01*
X198252037Y-104676627D01*
X198234641Y-104500000D01*
X198252037Y-104323373D01*
X198303557Y-104153534D01*
X198387222Y-103997009D01*
X198416552Y-103961271D01*
X198499814Y-103859814D01*
X198601271Y-103776552D01*
X198637009Y-103747222D01*
X198793534Y-103663557D01*
X198963373Y-103612037D01*
X199029558Y-103605518D01*
X199095740Y-103599000D01*
X199184260Y-103599000D01*
X199250443Y-103605519D01*
X199250443Y-103605519D01*
G37*
G36*
X204330443Y-103605519D02*
G01*
X204396627Y-103612037D01*
X204566466Y-103663557D01*
X204722991Y-103747222D01*
X204758729Y-103776552D01*
X204860186Y-103859814D01*
X204943448Y-103961271D01*
X204972778Y-103997009D01*
X205056443Y-104153534D01*
X205107963Y-104323373D01*
X205125359Y-104500000D01*
X205107963Y-104676627D01*
X205056443Y-104846466D01*
X204972778Y-105002991D01*
X204943448Y-105038729D01*
X204860186Y-105140186D01*
X204758729Y-105223448D01*
X204722991Y-105252778D01*
X204566466Y-105336443D01*
X204396627Y-105387963D01*
X204330443Y-105394481D01*
X204264260Y-105401000D01*
X204175740Y-105401000D01*
X204109557Y-105394481D01*
X204043373Y-105387963D01*
X203873534Y-105336443D01*
X203717009Y-105252778D01*
X203681271Y-105223448D01*
X203579814Y-105140186D01*
X203496552Y-105038729D01*
X203467222Y-105002991D01*
X203383557Y-104846466D01*
X203332037Y-104676627D01*
X203314641Y-104500000D01*
X203332037Y-104323373D01*
X203383557Y-104153534D01*
X203467222Y-103997009D01*
X203496552Y-103961271D01*
X203579814Y-103859814D01*
X203681271Y-103776552D01*
X203717009Y-103747222D01*
X203873534Y-103663557D01*
X204043373Y-103612037D01*
X204109558Y-103605518D01*
X204175740Y-103599000D01*
X204264260Y-103599000D01*
X204330443Y-103605519D01*
X204330443Y-103605519D01*
G37*
G36*
X206870443Y-103605519D02*
G01*
X206936627Y-103612037D01*
X207106466Y-103663557D01*
X207262991Y-103747222D01*
X207298729Y-103776552D01*
X207400186Y-103859814D01*
X207483448Y-103961271D01*
X207512778Y-103997009D01*
X207596443Y-104153534D01*
X207647963Y-104323373D01*
X207665359Y-104500000D01*
X207647963Y-104676627D01*
X207596443Y-104846466D01*
X207512778Y-105002991D01*
X207483448Y-105038729D01*
X207400186Y-105140186D01*
X207298729Y-105223448D01*
X207262991Y-105252778D01*
X207106466Y-105336443D01*
X206936627Y-105387963D01*
X206870443Y-105394481D01*
X206804260Y-105401000D01*
X206715740Y-105401000D01*
X206649557Y-105394481D01*
X206583373Y-105387963D01*
X206413534Y-105336443D01*
X206257009Y-105252778D01*
X206221271Y-105223448D01*
X206119814Y-105140186D01*
X206036552Y-105038729D01*
X206007222Y-105002991D01*
X205923557Y-104846466D01*
X205872037Y-104676627D01*
X205854641Y-104500000D01*
X205872037Y-104323373D01*
X205923557Y-104153534D01*
X206007222Y-103997009D01*
X206036552Y-103961271D01*
X206119814Y-103859814D01*
X206221271Y-103776552D01*
X206257009Y-103747222D01*
X206413534Y-103663557D01*
X206583373Y-103612037D01*
X206649558Y-103605518D01*
X206715740Y-103599000D01*
X206804260Y-103599000D01*
X206870443Y-103605519D01*
X206870443Y-103605519D01*
G37*
G36*
X212741000Y-105401000D02*
G01*
X210939000Y-105401000D01*
X210939000Y-103599000D01*
X212741000Y-103599000D01*
X212741000Y-105401000D01*
X212741000Y-105401000D01*
G37*
G36*
X219410443Y-103605519D02*
G01*
X219476627Y-103612037D01*
X219646466Y-103663557D01*
X219802991Y-103747222D01*
X219838729Y-103776552D01*
X219940186Y-103859814D01*
X220023448Y-103961271D01*
X220052778Y-103997009D01*
X220136443Y-104153534D01*
X220187963Y-104323373D01*
X220205359Y-104500000D01*
X220187963Y-104676627D01*
X220136443Y-104846466D01*
X220052778Y-105002991D01*
X220023448Y-105038729D01*
X219940186Y-105140186D01*
X219838729Y-105223448D01*
X219802991Y-105252778D01*
X219646466Y-105336443D01*
X219476627Y-105387963D01*
X219410443Y-105394481D01*
X219344260Y-105401000D01*
X219255740Y-105401000D01*
X219189557Y-105394481D01*
X219123373Y-105387963D01*
X218953534Y-105336443D01*
X218797009Y-105252778D01*
X218761271Y-105223448D01*
X218659814Y-105140186D01*
X218576552Y-105038729D01*
X218547222Y-105002991D01*
X218463557Y-104846466D01*
X218412037Y-104676627D01*
X218394641Y-104500000D01*
X218412037Y-104323373D01*
X218463557Y-104153534D01*
X218547222Y-103997009D01*
X218576552Y-103961271D01*
X218659814Y-103859814D01*
X218761271Y-103776552D01*
X218797009Y-103747222D01*
X218953534Y-103663557D01*
X219123373Y-103612037D01*
X219189558Y-103605518D01*
X219255740Y-103599000D01*
X219344260Y-103599000D01*
X219410443Y-103605519D01*
X219410443Y-103605519D01*
G37*
G36*
X217661000Y-105401000D02*
G01*
X215859000Y-105401000D01*
X215859000Y-103599000D01*
X217661000Y-103599000D01*
X217661000Y-105401000D01*
X217661000Y-105401000D01*
G37*
G36*
X209410443Y-103605519D02*
G01*
X209476627Y-103612037D01*
X209646466Y-103663557D01*
X209802991Y-103747222D01*
X209838729Y-103776552D01*
X209940186Y-103859814D01*
X210023448Y-103961271D01*
X210052778Y-103997009D01*
X210136443Y-104153534D01*
X210187963Y-104323373D01*
X210205359Y-104500000D01*
X210187963Y-104676627D01*
X210136443Y-104846466D01*
X210052778Y-105002991D01*
X210023448Y-105038729D01*
X209940186Y-105140186D01*
X209838729Y-105223448D01*
X209802991Y-105252778D01*
X209646466Y-105336443D01*
X209476627Y-105387963D01*
X209410443Y-105394481D01*
X209344260Y-105401000D01*
X209255740Y-105401000D01*
X209189557Y-105394481D01*
X209123373Y-105387963D01*
X208953534Y-105336443D01*
X208797009Y-105252778D01*
X208761271Y-105223448D01*
X208659814Y-105140186D01*
X208576552Y-105038729D01*
X208547222Y-105002991D01*
X208463557Y-104846466D01*
X208412037Y-104676627D01*
X208394641Y-104500000D01*
X208412037Y-104323373D01*
X208463557Y-104153534D01*
X208547222Y-103997009D01*
X208576552Y-103961271D01*
X208659814Y-103859814D01*
X208761271Y-103776552D01*
X208797009Y-103747222D01*
X208953534Y-103663557D01*
X209123373Y-103612037D01*
X209189558Y-103605518D01*
X209255740Y-103599000D01*
X209344260Y-103599000D01*
X209410443Y-103605519D01*
X209410443Y-103605519D01*
G37*
G36*
X210788674Y-100903465D02*
G01*
X210826367Y-100914899D01*
X210861103Y-100933466D01*
X210891548Y-100958452D01*
X210916534Y-100988897D01*
X210935101Y-101023633D01*
X210946535Y-101061326D01*
X210951000Y-101106661D01*
X210951000Y-102193339D01*
X210946535Y-102238674D01*
X210935101Y-102276367D01*
X210916534Y-102311103D01*
X210891548Y-102341548D01*
X210861103Y-102366534D01*
X210826367Y-102385101D01*
X210788674Y-102396535D01*
X210743339Y-102401000D01*
X209906661Y-102401000D01*
X209861326Y-102396535D01*
X209823633Y-102385101D01*
X209788897Y-102366534D01*
X209758452Y-102341548D01*
X209733466Y-102311103D01*
X209714899Y-102276367D01*
X209703465Y-102238674D01*
X209699000Y-102193339D01*
X209699000Y-101106661D01*
X209703465Y-101061326D01*
X209714899Y-101023633D01*
X209733466Y-100988897D01*
X209758452Y-100958452D01*
X209788897Y-100933466D01*
X209823633Y-100914899D01*
X209861326Y-100903465D01*
X209906661Y-100899000D01*
X210743339Y-100899000D01*
X210788674Y-100903465D01*
X210788674Y-100903465D01*
G37*
G36*
X212838674Y-100903465D02*
G01*
X212876367Y-100914899D01*
X212911103Y-100933466D01*
X212941548Y-100958452D01*
X212966534Y-100988897D01*
X212985101Y-101023633D01*
X212996535Y-101061326D01*
X213001000Y-101106661D01*
X213001000Y-102193339D01*
X212996535Y-102238674D01*
X212985101Y-102276367D01*
X212966534Y-102311103D01*
X212941548Y-102341548D01*
X212911103Y-102366534D01*
X212876367Y-102385101D01*
X212838674Y-102396535D01*
X212793339Y-102401000D01*
X211956661Y-102401000D01*
X211911326Y-102396535D01*
X211873633Y-102385101D01*
X211838897Y-102366534D01*
X211808452Y-102341548D01*
X211783466Y-102311103D01*
X211764899Y-102276367D01*
X211753465Y-102238674D01*
X211749000Y-102193339D01*
X211749000Y-101106661D01*
X211753465Y-101061326D01*
X211764899Y-101023633D01*
X211783466Y-100988897D01*
X211808452Y-100958452D01*
X211838897Y-100933466D01*
X211873633Y-100914899D01*
X211911326Y-100903465D01*
X211956661Y-100899000D01*
X212793339Y-100899000D01*
X212838674Y-100903465D01*
X212838674Y-100903465D01*
G37*
G36*
X209034928Y-101366764D02*
G01*
X209056009Y-101373160D01*
X209075445Y-101383548D01*
X209092476Y-101397524D01*
X209106452Y-101414555D01*
X209116840Y-101433991D01*
X209123236Y-101455072D01*
X209126000Y-101483140D01*
X209126000Y-101946860D01*
X209123236Y-101974928D01*
X209116840Y-101996009D01*
X209106452Y-102015445D01*
X209092476Y-102032476D01*
X209075445Y-102046452D01*
X209056009Y-102056840D01*
X209034928Y-102063236D01*
X209006860Y-102066000D01*
X207093140Y-102066000D01*
X207065072Y-102063236D01*
X207043991Y-102056840D01*
X207024555Y-102046452D01*
X207007524Y-102032476D01*
X206993548Y-102015445D01*
X206983160Y-101996009D01*
X206976764Y-101974928D01*
X206974000Y-101946860D01*
X206974000Y-101483140D01*
X206976764Y-101455072D01*
X206983160Y-101433991D01*
X206993548Y-101414555D01*
X207007524Y-101397524D01*
X207024555Y-101383548D01*
X207043991Y-101373160D01*
X207065072Y-101366764D01*
X207093140Y-101364000D01*
X209006860Y-101364000D01*
X209034928Y-101366764D01*
X209034928Y-101366764D01*
G37*
G36*
X199734928Y-101366764D02*
G01*
X199756009Y-101373160D01*
X199775445Y-101383548D01*
X199792476Y-101397524D01*
X199806452Y-101414555D01*
X199816840Y-101433991D01*
X199823236Y-101455072D01*
X199826000Y-101483140D01*
X199826000Y-101946860D01*
X199823236Y-101974928D01*
X199816840Y-101996009D01*
X199806452Y-102015445D01*
X199792476Y-102032476D01*
X199775445Y-102046452D01*
X199756009Y-102056840D01*
X199734928Y-102063236D01*
X199706860Y-102066000D01*
X197793140Y-102066000D01*
X197765072Y-102063236D01*
X197743991Y-102056840D01*
X197724555Y-102046452D01*
X197707524Y-102032476D01*
X197693548Y-102015445D01*
X197683160Y-101996009D01*
X197676764Y-101974928D01*
X197674000Y-101946860D01*
X197674000Y-101483140D01*
X197676764Y-101455072D01*
X197683160Y-101433991D01*
X197693548Y-101414555D01*
X197707524Y-101397524D01*
X197724555Y-101383548D01*
X197743991Y-101373160D01*
X197765072Y-101366764D01*
X197793140Y-101364000D01*
X199706860Y-101364000D01*
X199734928Y-101366764D01*
X199734928Y-101366764D01*
G37*
G36*
X199734928Y-100096764D02*
G01*
X199756009Y-100103160D01*
X199775445Y-100113548D01*
X199792476Y-100127524D01*
X199806452Y-100144555D01*
X199816840Y-100163991D01*
X199823236Y-100185072D01*
X199826000Y-100213140D01*
X199826000Y-100676860D01*
X199823236Y-100704928D01*
X199816840Y-100726009D01*
X199806452Y-100745445D01*
X199792476Y-100762476D01*
X199775445Y-100776452D01*
X199756009Y-100786840D01*
X199734928Y-100793236D01*
X199706860Y-100796000D01*
X197793140Y-100796000D01*
X197765072Y-100793236D01*
X197743991Y-100786840D01*
X197724555Y-100776452D01*
X197707524Y-100762476D01*
X197693548Y-100745445D01*
X197683160Y-100726009D01*
X197676764Y-100704928D01*
X197674000Y-100676860D01*
X197674000Y-100213140D01*
X197676764Y-100185072D01*
X197683160Y-100163991D01*
X197693548Y-100144555D01*
X197707524Y-100127524D01*
X197724555Y-100113548D01*
X197743991Y-100103160D01*
X197765072Y-100096764D01*
X197793140Y-100094000D01*
X199706860Y-100094000D01*
X199734928Y-100096764D01*
X199734928Y-100096764D01*
G37*
G36*
X209034928Y-100096764D02*
G01*
X209056009Y-100103160D01*
X209075445Y-100113548D01*
X209092476Y-100127524D01*
X209106452Y-100144555D01*
X209116840Y-100163991D01*
X209123236Y-100185072D01*
X209126000Y-100213140D01*
X209126000Y-100676860D01*
X209123236Y-100704928D01*
X209116840Y-100726009D01*
X209106452Y-100745445D01*
X209092476Y-100762476D01*
X209075445Y-100776452D01*
X209056009Y-100786840D01*
X209034928Y-100793236D01*
X209006860Y-100796000D01*
X207093140Y-100796000D01*
X207065072Y-100793236D01*
X207043991Y-100786840D01*
X207024555Y-100776452D01*
X207007524Y-100762476D01*
X206993548Y-100745445D01*
X206983160Y-100726009D01*
X206976764Y-100704928D01*
X206974000Y-100676860D01*
X206974000Y-100213140D01*
X206976764Y-100185072D01*
X206983160Y-100163991D01*
X206993548Y-100144555D01*
X207007524Y-100127524D01*
X207024555Y-100113548D01*
X207043991Y-100103160D01*
X207065072Y-100096764D01*
X207093140Y-100094000D01*
X209006860Y-100094000D01*
X209034928Y-100096764D01*
X209034928Y-100096764D01*
G37*
G36*
X217688674Y-98953465D02*
G01*
X217726367Y-98964899D01*
X217761103Y-98983466D01*
X217791548Y-99008452D01*
X217816534Y-99038897D01*
X217835101Y-99073633D01*
X217846535Y-99111326D01*
X217851000Y-99156661D01*
X217851000Y-100243339D01*
X217846535Y-100288674D01*
X217835101Y-100326367D01*
X217816534Y-100361103D01*
X217791548Y-100391548D01*
X217761103Y-100416534D01*
X217726367Y-100435101D01*
X217688674Y-100446535D01*
X217643339Y-100451000D01*
X216806661Y-100451000D01*
X216761326Y-100446535D01*
X216723633Y-100435101D01*
X216688897Y-100416534D01*
X216658452Y-100391548D01*
X216633466Y-100361103D01*
X216614899Y-100326367D01*
X216603465Y-100288674D01*
X216599000Y-100243339D01*
X216599000Y-99156661D01*
X216603465Y-99111326D01*
X216614899Y-99073633D01*
X216633466Y-99038897D01*
X216658452Y-99008452D01*
X216688897Y-98983466D01*
X216723633Y-98964899D01*
X216761326Y-98953465D01*
X216806661Y-98949000D01*
X217643339Y-98949000D01*
X217688674Y-98953465D01*
X217688674Y-98953465D01*
G37*
G36*
X215638674Y-98953465D02*
G01*
X215676367Y-98964899D01*
X215711103Y-98983466D01*
X215741548Y-99008452D01*
X215766534Y-99038897D01*
X215785101Y-99073633D01*
X215796535Y-99111326D01*
X215801000Y-99156661D01*
X215801000Y-100243339D01*
X215796535Y-100288674D01*
X215785101Y-100326367D01*
X215766534Y-100361103D01*
X215741548Y-100391548D01*
X215711103Y-100416534D01*
X215676367Y-100435101D01*
X215638674Y-100446535D01*
X215593339Y-100451000D01*
X214756661Y-100451000D01*
X214711326Y-100446535D01*
X214673633Y-100435101D01*
X214638897Y-100416534D01*
X214608452Y-100391548D01*
X214583466Y-100361103D01*
X214564899Y-100326367D01*
X214553465Y-100288674D01*
X214549000Y-100243339D01*
X214549000Y-99156661D01*
X214553465Y-99111326D01*
X214564899Y-99073633D01*
X214583466Y-99038897D01*
X214608452Y-99008452D01*
X214638897Y-98983466D01*
X214673633Y-98964899D01*
X214711326Y-98953465D01*
X214756661Y-98949000D01*
X215593339Y-98949000D01*
X215638674Y-98953465D01*
X215638674Y-98953465D01*
G37*
G36*
X209034928Y-98826764D02*
G01*
X209056009Y-98833160D01*
X209075445Y-98843548D01*
X209092476Y-98857524D01*
X209106452Y-98874555D01*
X209116840Y-98893991D01*
X209123236Y-98915072D01*
X209126000Y-98943140D01*
X209126000Y-99406860D01*
X209123236Y-99434928D01*
X209116840Y-99456009D01*
X209106452Y-99475445D01*
X209092476Y-99492476D01*
X209075445Y-99506452D01*
X209056009Y-99516840D01*
X209034928Y-99523236D01*
X209006860Y-99526000D01*
X207093140Y-99526000D01*
X207065072Y-99523236D01*
X207043991Y-99516840D01*
X207024555Y-99506452D01*
X207007524Y-99492476D01*
X206993548Y-99475445D01*
X206983160Y-99456009D01*
X206976764Y-99434928D01*
X206974000Y-99406860D01*
X206974000Y-98943140D01*
X206976764Y-98915072D01*
X206983160Y-98893991D01*
X206993548Y-98874555D01*
X207007524Y-98857524D01*
X207024555Y-98843548D01*
X207043991Y-98833160D01*
X207065072Y-98826764D01*
X207093140Y-98824000D01*
X209006860Y-98824000D01*
X209034928Y-98826764D01*
X209034928Y-98826764D01*
G37*
G36*
X199734928Y-98826764D02*
G01*
X199756009Y-98833160D01*
X199775445Y-98843548D01*
X199792476Y-98857524D01*
X199806452Y-98874555D01*
X199816840Y-98893991D01*
X199823236Y-98915072D01*
X199826000Y-98943140D01*
X199826000Y-99406860D01*
X199823236Y-99434928D01*
X199816840Y-99456009D01*
X199806452Y-99475445D01*
X199792476Y-99492476D01*
X199775445Y-99506452D01*
X199756009Y-99516840D01*
X199734928Y-99523236D01*
X199706860Y-99526000D01*
X197793140Y-99526000D01*
X197765072Y-99523236D01*
X197743991Y-99516840D01*
X197724555Y-99506452D01*
X197707524Y-99492476D01*
X197693548Y-99475445D01*
X197683160Y-99456009D01*
X197676764Y-99434928D01*
X197674000Y-99406860D01*
X197674000Y-98943140D01*
X197676764Y-98915072D01*
X197683160Y-98893991D01*
X197693548Y-98874555D01*
X197707524Y-98857524D01*
X197724555Y-98843548D01*
X197743991Y-98833160D01*
X197765072Y-98826764D01*
X197793140Y-98824000D01*
X199706860Y-98824000D01*
X199734928Y-98826764D01*
X199734928Y-98826764D01*
G37*
G36*
X209034928Y-97556764D02*
G01*
X209056009Y-97563160D01*
X209075445Y-97573548D01*
X209092476Y-97587524D01*
X209106452Y-97604555D01*
X209116840Y-97623991D01*
X209123236Y-97645072D01*
X209126000Y-97673140D01*
X209126000Y-98136860D01*
X209123236Y-98164928D01*
X209116840Y-98186009D01*
X209106452Y-98205445D01*
X209092476Y-98222476D01*
X209075445Y-98236452D01*
X209056009Y-98246840D01*
X209034928Y-98253236D01*
X209006860Y-98256000D01*
X207093140Y-98256000D01*
X207065072Y-98253236D01*
X207043991Y-98246840D01*
X207024555Y-98236452D01*
X207007524Y-98222476D01*
X206993548Y-98205445D01*
X206983160Y-98186009D01*
X206976764Y-98164928D01*
X206974000Y-98136860D01*
X206974000Y-97673140D01*
X206976764Y-97645072D01*
X206983160Y-97623991D01*
X206993548Y-97604555D01*
X207007524Y-97587524D01*
X207024555Y-97573548D01*
X207043991Y-97563160D01*
X207065072Y-97556764D01*
X207093140Y-97554000D01*
X209006860Y-97554000D01*
X209034928Y-97556764D01*
X209034928Y-97556764D01*
G37*
G36*
X199734928Y-97556764D02*
G01*
X199756009Y-97563160D01*
X199775445Y-97573548D01*
X199792476Y-97587524D01*
X199806452Y-97604555D01*
X199816840Y-97623991D01*
X199823236Y-97645072D01*
X199826000Y-97673140D01*
X199826000Y-98136860D01*
X199823236Y-98164928D01*
X199816840Y-98186009D01*
X199806452Y-98205445D01*
X199792476Y-98222476D01*
X199775445Y-98236452D01*
X199756009Y-98246840D01*
X199734928Y-98253236D01*
X199706860Y-98256000D01*
X197793140Y-98256000D01*
X197765072Y-98253236D01*
X197743991Y-98246840D01*
X197724555Y-98236452D01*
X197707524Y-98222476D01*
X197693548Y-98205445D01*
X197683160Y-98186009D01*
X197676764Y-98164928D01*
X197674000Y-98136860D01*
X197674000Y-97673140D01*
X197676764Y-97645072D01*
X197683160Y-97623991D01*
X197693548Y-97604555D01*
X197707524Y-97587524D01*
X197724555Y-97573548D01*
X197743991Y-97563160D01*
X197765072Y-97556764D01*
X197793140Y-97554000D01*
X199706860Y-97554000D01*
X199734928Y-97556764D01*
X199734928Y-97556764D01*
G37*
G36*
X217751000Y-97801000D02*
G01*
X215549000Y-97801000D01*
X215549000Y-95899000D01*
X217751000Y-95899000D01*
X217751000Y-97801000D01*
X217751000Y-97801000D01*
G37*
G36*
X214851000Y-97801000D02*
G01*
X212649000Y-97801000D01*
X212649000Y-95899000D01*
X214851000Y-95899000D01*
X214851000Y-97801000D01*
X214851000Y-97801000D01*
G37*
G36*
X209034928Y-96286764D02*
G01*
X209056009Y-96293160D01*
X209075445Y-96303548D01*
X209092476Y-96317524D01*
X209106452Y-96334555D01*
X209116840Y-96353991D01*
X209123236Y-96375072D01*
X209126000Y-96403140D01*
X209126000Y-96866860D01*
X209123236Y-96894928D01*
X209116840Y-96916009D01*
X209106452Y-96935445D01*
X209092476Y-96952476D01*
X209075445Y-96966452D01*
X209056009Y-96976840D01*
X209034928Y-96983236D01*
X209006860Y-96986000D01*
X207093140Y-96986000D01*
X207065072Y-96983236D01*
X207043991Y-96976840D01*
X207024555Y-96966452D01*
X207007524Y-96952476D01*
X206993548Y-96935445D01*
X206983160Y-96916009D01*
X206976764Y-96894928D01*
X206974000Y-96866860D01*
X206974000Y-96403140D01*
X206976764Y-96375072D01*
X206983160Y-96353991D01*
X206993548Y-96334555D01*
X207007524Y-96317524D01*
X207024555Y-96303548D01*
X207043991Y-96293160D01*
X207065072Y-96286764D01*
X207093140Y-96284000D01*
X209006860Y-96284000D01*
X209034928Y-96286764D01*
X209034928Y-96286764D01*
G37*
G36*
X199734928Y-96286764D02*
G01*
X199756009Y-96293160D01*
X199775445Y-96303548D01*
X199792476Y-96317524D01*
X199806452Y-96334555D01*
X199816840Y-96353991D01*
X199823236Y-96375072D01*
X199826000Y-96403140D01*
X199826000Y-96866860D01*
X199823236Y-96894928D01*
X199816840Y-96916009D01*
X199806452Y-96935445D01*
X199792476Y-96952476D01*
X199775445Y-96966452D01*
X199756009Y-96976840D01*
X199734928Y-96983236D01*
X199706860Y-96986000D01*
X197793140Y-96986000D01*
X197765072Y-96983236D01*
X197743991Y-96976840D01*
X197724555Y-96966452D01*
X197707524Y-96952476D01*
X197693548Y-96935445D01*
X197683160Y-96916009D01*
X197676764Y-96894928D01*
X197674000Y-96866860D01*
X197674000Y-96403140D01*
X197676764Y-96375072D01*
X197683160Y-96353991D01*
X197693548Y-96334555D01*
X197707524Y-96317524D01*
X197724555Y-96303548D01*
X197743991Y-96293160D01*
X197765072Y-96286764D01*
X197793140Y-96284000D01*
X199706860Y-96284000D01*
X199734928Y-96286764D01*
X199734928Y-96286764D01*
G37*
G36*
X199734928Y-95016764D02*
G01*
X199756009Y-95023160D01*
X199775445Y-95033548D01*
X199792476Y-95047524D01*
X199806452Y-95064555D01*
X199816840Y-95083991D01*
X199823236Y-95105072D01*
X199826000Y-95133140D01*
X199826000Y-95596860D01*
X199823236Y-95624928D01*
X199816840Y-95646009D01*
X199806452Y-95665445D01*
X199792476Y-95682476D01*
X199775445Y-95696452D01*
X199756009Y-95706840D01*
X199734928Y-95713236D01*
X199706860Y-95716000D01*
X197793140Y-95716000D01*
X197765072Y-95713236D01*
X197743991Y-95706840D01*
X197724555Y-95696452D01*
X197707524Y-95682476D01*
X197693548Y-95665445D01*
X197683160Y-95646009D01*
X197676764Y-95624928D01*
X197674000Y-95596860D01*
X197674000Y-95133140D01*
X197676764Y-95105072D01*
X197683160Y-95083991D01*
X197693548Y-95064555D01*
X197707524Y-95047524D01*
X197724555Y-95033548D01*
X197743991Y-95023160D01*
X197765072Y-95016764D01*
X197793140Y-95014000D01*
X199706860Y-95014000D01*
X199734928Y-95016764D01*
X199734928Y-95016764D01*
G37*
G36*
X209034928Y-95016764D02*
G01*
X209056009Y-95023160D01*
X209075445Y-95033548D01*
X209092476Y-95047524D01*
X209106452Y-95064555D01*
X209116840Y-95083991D01*
X209123236Y-95105072D01*
X209126000Y-95133140D01*
X209126000Y-95596860D01*
X209123236Y-95624928D01*
X209116840Y-95646009D01*
X209106452Y-95665445D01*
X209092476Y-95682476D01*
X209075445Y-95696452D01*
X209056009Y-95706840D01*
X209034928Y-95713236D01*
X209006860Y-95716000D01*
X207093140Y-95716000D01*
X207065072Y-95713236D01*
X207043991Y-95706840D01*
X207024555Y-95696452D01*
X207007524Y-95682476D01*
X206993548Y-95665445D01*
X206983160Y-95646009D01*
X206976764Y-95624928D01*
X206974000Y-95596860D01*
X206974000Y-95133140D01*
X206976764Y-95105072D01*
X206983160Y-95083991D01*
X206993548Y-95064555D01*
X207007524Y-95047524D01*
X207024555Y-95033548D01*
X207043991Y-95023160D01*
X207065072Y-95016764D01*
X207093140Y-95014000D01*
X209006860Y-95014000D01*
X209034928Y-95016764D01*
X209034928Y-95016764D01*
G37*
G36*
X217751000Y-95501000D02*
G01*
X215549000Y-95501000D01*
X215549000Y-93599000D01*
X217751000Y-93599000D01*
X217751000Y-95501000D01*
X217751000Y-95501000D01*
G37*
G36*
X214851000Y-95501000D02*
G01*
X212649000Y-95501000D01*
X212649000Y-93599000D01*
X214851000Y-93599000D01*
X214851000Y-95501000D01*
X214851000Y-95501000D01*
G37*
G36*
X219438674Y-93553465D02*
G01*
X219476367Y-93564899D01*
X219511103Y-93583466D01*
X219541548Y-93608452D01*
X219566534Y-93638897D01*
X219585101Y-93673633D01*
X219596535Y-93711326D01*
X219601000Y-93756661D01*
X219601000Y-94843339D01*
X219596535Y-94888674D01*
X219585101Y-94926367D01*
X219566534Y-94961103D01*
X219541548Y-94991548D01*
X219511103Y-95016534D01*
X219476367Y-95035101D01*
X219438674Y-95046535D01*
X219393339Y-95051000D01*
X218556661Y-95051000D01*
X218511326Y-95046535D01*
X218473633Y-95035101D01*
X218438897Y-95016534D01*
X218408452Y-94991548D01*
X218383466Y-94961103D01*
X218364899Y-94926367D01*
X218353465Y-94888674D01*
X218349000Y-94843339D01*
X218349000Y-93756661D01*
X218353465Y-93711326D01*
X218364899Y-93673633D01*
X218383466Y-93638897D01*
X218408452Y-93608452D01*
X218438897Y-93583466D01*
X218473633Y-93564899D01*
X218511326Y-93553465D01*
X218556661Y-93549000D01*
X219393339Y-93549000D01*
X219438674Y-93553465D01*
X219438674Y-93553465D01*
G37*
G36*
X221488674Y-93553465D02*
G01*
X221526367Y-93564899D01*
X221561103Y-93583466D01*
X221591548Y-93608452D01*
X221616534Y-93638897D01*
X221635101Y-93673633D01*
X221646535Y-93711326D01*
X221651000Y-93756661D01*
X221651000Y-94843339D01*
X221646535Y-94888674D01*
X221635101Y-94926367D01*
X221616534Y-94961103D01*
X221591548Y-94991548D01*
X221561103Y-95016534D01*
X221526367Y-95035101D01*
X221488674Y-95046535D01*
X221443339Y-95051000D01*
X220606661Y-95051000D01*
X220561326Y-95046535D01*
X220523633Y-95035101D01*
X220488897Y-95016534D01*
X220458452Y-94991548D01*
X220433466Y-94961103D01*
X220414899Y-94926367D01*
X220403465Y-94888674D01*
X220399000Y-94843339D01*
X220399000Y-93756661D01*
X220403465Y-93711326D01*
X220414899Y-93673633D01*
X220433466Y-93638897D01*
X220458452Y-93608452D01*
X220488897Y-93583466D01*
X220523633Y-93564899D01*
X220561326Y-93553465D01*
X220606661Y-93549000D01*
X221443339Y-93549000D01*
X221488674Y-93553465D01*
X221488674Y-93553465D01*
G37*
G36*
X199734928Y-93746764D02*
G01*
X199756009Y-93753160D01*
X199775445Y-93763548D01*
X199792476Y-93777524D01*
X199806452Y-93794555D01*
X199816840Y-93813991D01*
X199823236Y-93835072D01*
X199826000Y-93863140D01*
X199826000Y-94326860D01*
X199823236Y-94354928D01*
X199816840Y-94376009D01*
X199806452Y-94395445D01*
X199792476Y-94412476D01*
X199775445Y-94426452D01*
X199756009Y-94436840D01*
X199734928Y-94443236D01*
X199706860Y-94446000D01*
X197793140Y-94446000D01*
X197765072Y-94443236D01*
X197743991Y-94436840D01*
X197724555Y-94426452D01*
X197707524Y-94412476D01*
X197693548Y-94395445D01*
X197683160Y-94376009D01*
X197676764Y-94354928D01*
X197674000Y-94326860D01*
X197674000Y-93863140D01*
X197676764Y-93835072D01*
X197683160Y-93813991D01*
X197693548Y-93794555D01*
X197707524Y-93777524D01*
X197724555Y-93763548D01*
X197743991Y-93753160D01*
X197765072Y-93746764D01*
X197793140Y-93744000D01*
X199706860Y-93744000D01*
X199734928Y-93746764D01*
X199734928Y-93746764D01*
G37*
G36*
X209034928Y-93746764D02*
G01*
X209056009Y-93753160D01*
X209075445Y-93763548D01*
X209092476Y-93777524D01*
X209106452Y-93794555D01*
X209116840Y-93813991D01*
X209123236Y-93835072D01*
X209126000Y-93863140D01*
X209126000Y-94326860D01*
X209123236Y-94354928D01*
X209116840Y-94376009D01*
X209106452Y-94395445D01*
X209092476Y-94412476D01*
X209075445Y-94426452D01*
X209056009Y-94436840D01*
X209034928Y-94443236D01*
X209006860Y-94446000D01*
X207093140Y-94446000D01*
X207065072Y-94443236D01*
X207043991Y-94436840D01*
X207024555Y-94426452D01*
X207007524Y-94412476D01*
X206993548Y-94395445D01*
X206983160Y-94376009D01*
X206976764Y-94354928D01*
X206974000Y-94326860D01*
X206974000Y-93863140D01*
X206976764Y-93835072D01*
X206983160Y-93813991D01*
X206993548Y-93794555D01*
X207007524Y-93777524D01*
X207024555Y-93763548D01*
X207043991Y-93753160D01*
X207065072Y-93746764D01*
X207093140Y-93744000D01*
X209006860Y-93744000D01*
X209034928Y-93746764D01*
X209034928Y-93746764D01*
G37*
G36*
X199734928Y-92476764D02*
G01*
X199756009Y-92483160D01*
X199775445Y-92493548D01*
X199792476Y-92507524D01*
X199806452Y-92524555D01*
X199816840Y-92543991D01*
X199823236Y-92565072D01*
X199826000Y-92593140D01*
X199826000Y-93056860D01*
X199823236Y-93084928D01*
X199816840Y-93106009D01*
X199806452Y-93125445D01*
X199792476Y-93142476D01*
X199775445Y-93156452D01*
X199756009Y-93166840D01*
X199734928Y-93173236D01*
X199706860Y-93176000D01*
X197793140Y-93176000D01*
X197765072Y-93173236D01*
X197743991Y-93166840D01*
X197724555Y-93156452D01*
X197707524Y-93142476D01*
X197693548Y-93125445D01*
X197683160Y-93106009D01*
X197676764Y-93084928D01*
X197674000Y-93056860D01*
X197674000Y-92593140D01*
X197676764Y-92565072D01*
X197683160Y-92543991D01*
X197693548Y-92524555D01*
X197707524Y-92507524D01*
X197724555Y-92493548D01*
X197743991Y-92483160D01*
X197765072Y-92476764D01*
X197793140Y-92474000D01*
X199706860Y-92474000D01*
X199734928Y-92476764D01*
X199734928Y-92476764D01*
G37*
G36*
X209034928Y-92476764D02*
G01*
X209056009Y-92483160D01*
X209075445Y-92493548D01*
X209092476Y-92507524D01*
X209106452Y-92524555D01*
X209116840Y-92543991D01*
X209123236Y-92565072D01*
X209126000Y-92593140D01*
X209126000Y-93056860D01*
X209123236Y-93084928D01*
X209116840Y-93106009D01*
X209106452Y-93125445D01*
X209092476Y-93142476D01*
X209075445Y-93156452D01*
X209056009Y-93166840D01*
X209034928Y-93173236D01*
X209006860Y-93176000D01*
X207093140Y-93176000D01*
X207065072Y-93173236D01*
X207043991Y-93166840D01*
X207024555Y-93156452D01*
X207007524Y-93142476D01*
X206993548Y-93125445D01*
X206983160Y-93106009D01*
X206976764Y-93084928D01*
X206974000Y-93056860D01*
X206974000Y-92593140D01*
X206976764Y-92565072D01*
X206983160Y-92543991D01*
X206993548Y-92524555D01*
X207007524Y-92507524D01*
X207024555Y-92493548D01*
X207043991Y-92483160D01*
X207065072Y-92476764D01*
X207093140Y-92474000D01*
X209006860Y-92474000D01*
X209034928Y-92476764D01*
X209034928Y-92476764D01*
G37*
G36*
X199734928Y-91206764D02*
G01*
X199756009Y-91213160D01*
X199775445Y-91223548D01*
X199792476Y-91237524D01*
X199806452Y-91254555D01*
X199816840Y-91273991D01*
X199823236Y-91295072D01*
X199826000Y-91323140D01*
X199826000Y-91786860D01*
X199823236Y-91814928D01*
X199816840Y-91836009D01*
X199806452Y-91855445D01*
X199792476Y-91872476D01*
X199775445Y-91886452D01*
X199756009Y-91896840D01*
X199734928Y-91903236D01*
X199706860Y-91906000D01*
X197793140Y-91906000D01*
X197765072Y-91903236D01*
X197743991Y-91896840D01*
X197724555Y-91886452D01*
X197707524Y-91872476D01*
X197693548Y-91855445D01*
X197683160Y-91836009D01*
X197676764Y-91814928D01*
X197674000Y-91786860D01*
X197674000Y-91323140D01*
X197676764Y-91295072D01*
X197683160Y-91273991D01*
X197693548Y-91254555D01*
X197707524Y-91237524D01*
X197724555Y-91223548D01*
X197743991Y-91213160D01*
X197765072Y-91206764D01*
X197793140Y-91204000D01*
X199706860Y-91204000D01*
X199734928Y-91206764D01*
X199734928Y-91206764D01*
G37*
G36*
X209034928Y-91206764D02*
G01*
X209056009Y-91213160D01*
X209075445Y-91223548D01*
X209092476Y-91237524D01*
X209106452Y-91254555D01*
X209116840Y-91273991D01*
X209123236Y-91295072D01*
X209126000Y-91323140D01*
X209126000Y-91786860D01*
X209123236Y-91814928D01*
X209116840Y-91836009D01*
X209106452Y-91855445D01*
X209092476Y-91872476D01*
X209075445Y-91886452D01*
X209056009Y-91896840D01*
X209034928Y-91903236D01*
X209006860Y-91906000D01*
X207093140Y-91906000D01*
X207065072Y-91903236D01*
X207043991Y-91896840D01*
X207024555Y-91886452D01*
X207007524Y-91872476D01*
X206993548Y-91855445D01*
X206983160Y-91836009D01*
X206976764Y-91814928D01*
X206974000Y-91786860D01*
X206974000Y-91323140D01*
X206976764Y-91295072D01*
X206983160Y-91273991D01*
X206993548Y-91254555D01*
X207007524Y-91237524D01*
X207024555Y-91223548D01*
X207043991Y-91213160D01*
X207065072Y-91206764D01*
X207093140Y-91204000D01*
X209006860Y-91204000D01*
X209034928Y-91206764D01*
X209034928Y-91206764D01*
G37*
G36*
X199734928Y-89936764D02*
G01*
X199756009Y-89943160D01*
X199775445Y-89953548D01*
X199792476Y-89967524D01*
X199806452Y-89984555D01*
X199816840Y-90003991D01*
X199823236Y-90025072D01*
X199826000Y-90053140D01*
X199826000Y-90516860D01*
X199823236Y-90544928D01*
X199816840Y-90566009D01*
X199806452Y-90585445D01*
X199792476Y-90602476D01*
X199775445Y-90616452D01*
X199756009Y-90626840D01*
X199734928Y-90633236D01*
X199706860Y-90636000D01*
X197793140Y-90636000D01*
X197765072Y-90633236D01*
X197743991Y-90626840D01*
X197724555Y-90616452D01*
X197707524Y-90602476D01*
X197693548Y-90585445D01*
X197683160Y-90566009D01*
X197676764Y-90544928D01*
X197674000Y-90516860D01*
X197674000Y-90053140D01*
X197676764Y-90025072D01*
X197683160Y-90003991D01*
X197693548Y-89984555D01*
X197707524Y-89967524D01*
X197724555Y-89953548D01*
X197743991Y-89943160D01*
X197765072Y-89936764D01*
X197793140Y-89934000D01*
X199706860Y-89934000D01*
X199734928Y-89936764D01*
X199734928Y-89936764D01*
G37*
G36*
X209034928Y-89936764D02*
G01*
X209056009Y-89943160D01*
X209075445Y-89953548D01*
X209092476Y-89967524D01*
X209106452Y-89984555D01*
X209116840Y-90003991D01*
X209123236Y-90025072D01*
X209126000Y-90053140D01*
X209126000Y-90516860D01*
X209123236Y-90544928D01*
X209116840Y-90566009D01*
X209106452Y-90585445D01*
X209092476Y-90602476D01*
X209075445Y-90616452D01*
X209056009Y-90626840D01*
X209034928Y-90633236D01*
X209006860Y-90636000D01*
X207093140Y-90636000D01*
X207065072Y-90633236D01*
X207043991Y-90626840D01*
X207024555Y-90616452D01*
X207007524Y-90602476D01*
X206993548Y-90585445D01*
X206983160Y-90566009D01*
X206976764Y-90544928D01*
X206974000Y-90516860D01*
X206974000Y-90053140D01*
X206976764Y-90025072D01*
X206983160Y-90003991D01*
X206993548Y-89984555D01*
X207007524Y-89967524D01*
X207024555Y-89953548D01*
X207043991Y-89943160D01*
X207065072Y-89936764D01*
X207093140Y-89934000D01*
X209006860Y-89934000D01*
X209034928Y-89936764D01*
X209034928Y-89936764D01*
G37*
G36*
X201950442Y-86105518D02*
G01*
X202016627Y-86112037D01*
X202186466Y-86163557D01*
X202342991Y-86247222D01*
X202378729Y-86276552D01*
X202480186Y-86359814D01*
X202563448Y-86461271D01*
X202592778Y-86497009D01*
X202676443Y-86653534D01*
X202727963Y-86823373D01*
X202745359Y-87000000D01*
X202727963Y-87176627D01*
X202676443Y-87346466D01*
X202592778Y-87502991D01*
X202563448Y-87538729D01*
X202480186Y-87640186D01*
X202378729Y-87723448D01*
X202342991Y-87752778D01*
X202186466Y-87836443D01*
X202016627Y-87887963D01*
X201950443Y-87894481D01*
X201884260Y-87901000D01*
X201795740Y-87901000D01*
X201729557Y-87894481D01*
X201663373Y-87887963D01*
X201493534Y-87836443D01*
X201337009Y-87752778D01*
X201301271Y-87723448D01*
X201199814Y-87640186D01*
X201116552Y-87538729D01*
X201087222Y-87502991D01*
X201003557Y-87346466D01*
X200952037Y-87176627D01*
X200934641Y-87000000D01*
X200952037Y-86823373D01*
X201003557Y-86653534D01*
X201087222Y-86497009D01*
X201116552Y-86461271D01*
X201199814Y-86359814D01*
X201301271Y-86276552D01*
X201337009Y-86247222D01*
X201493534Y-86163557D01*
X201663373Y-86112037D01*
X201729558Y-86105518D01*
X201795740Y-86099000D01*
X201884260Y-86099000D01*
X201950442Y-86105518D01*
X201950442Y-86105518D01*
G37*
G36*
X222270442Y-86105518D02*
G01*
X222336627Y-86112037D01*
X222506466Y-86163557D01*
X222662991Y-86247222D01*
X222698729Y-86276552D01*
X222800186Y-86359814D01*
X222883448Y-86461271D01*
X222912778Y-86497009D01*
X222996443Y-86653534D01*
X223047963Y-86823373D01*
X223065359Y-87000000D01*
X223047963Y-87176627D01*
X222996443Y-87346466D01*
X222912778Y-87502991D01*
X222883448Y-87538729D01*
X222800186Y-87640186D01*
X222698729Y-87723448D01*
X222662991Y-87752778D01*
X222506466Y-87836443D01*
X222336627Y-87887963D01*
X222270443Y-87894481D01*
X222204260Y-87901000D01*
X222115740Y-87901000D01*
X222049557Y-87894481D01*
X221983373Y-87887963D01*
X221813534Y-87836443D01*
X221657009Y-87752778D01*
X221621271Y-87723448D01*
X221519814Y-87640186D01*
X221436552Y-87538729D01*
X221407222Y-87502991D01*
X221323557Y-87346466D01*
X221272037Y-87176627D01*
X221254641Y-87000000D01*
X221272037Y-86823373D01*
X221323557Y-86653534D01*
X221407222Y-86497009D01*
X221436552Y-86461271D01*
X221519814Y-86359814D01*
X221621271Y-86276552D01*
X221657009Y-86247222D01*
X221813534Y-86163557D01*
X221983373Y-86112037D01*
X222049558Y-86105518D01*
X222115740Y-86099000D01*
X222204260Y-86099000D01*
X222270442Y-86105518D01*
X222270442Y-86105518D01*
G37*
G36*
X219730442Y-86105518D02*
G01*
X219796627Y-86112037D01*
X219966466Y-86163557D01*
X220122991Y-86247222D01*
X220158729Y-86276552D01*
X220260186Y-86359814D01*
X220343448Y-86461271D01*
X220372778Y-86497009D01*
X220456443Y-86653534D01*
X220507963Y-86823373D01*
X220525359Y-87000000D01*
X220507963Y-87176627D01*
X220456443Y-87346466D01*
X220372778Y-87502991D01*
X220343448Y-87538729D01*
X220260186Y-87640186D01*
X220158729Y-87723448D01*
X220122991Y-87752778D01*
X219966466Y-87836443D01*
X219796627Y-87887963D01*
X219730443Y-87894481D01*
X219664260Y-87901000D01*
X219575740Y-87901000D01*
X219509557Y-87894481D01*
X219443373Y-87887963D01*
X219273534Y-87836443D01*
X219117009Y-87752778D01*
X219081271Y-87723448D01*
X218979814Y-87640186D01*
X218896552Y-87538729D01*
X218867222Y-87502991D01*
X218783557Y-87346466D01*
X218732037Y-87176627D01*
X218714641Y-87000000D01*
X218732037Y-86823373D01*
X218783557Y-86653534D01*
X218867222Y-86497009D01*
X218896552Y-86461271D01*
X218979814Y-86359814D01*
X219081271Y-86276552D01*
X219117009Y-86247222D01*
X219273534Y-86163557D01*
X219443373Y-86112037D01*
X219509558Y-86105518D01*
X219575740Y-86099000D01*
X219664260Y-86099000D01*
X219730442Y-86105518D01*
X219730442Y-86105518D01*
G37*
G36*
X217190442Y-86105518D02*
G01*
X217256627Y-86112037D01*
X217426466Y-86163557D01*
X217582991Y-86247222D01*
X217618729Y-86276552D01*
X217720186Y-86359814D01*
X217803448Y-86461271D01*
X217832778Y-86497009D01*
X217916443Y-86653534D01*
X217967963Y-86823373D01*
X217985359Y-87000000D01*
X217967963Y-87176627D01*
X217916443Y-87346466D01*
X217832778Y-87502991D01*
X217803448Y-87538729D01*
X217720186Y-87640186D01*
X217618729Y-87723448D01*
X217582991Y-87752778D01*
X217426466Y-87836443D01*
X217256627Y-87887963D01*
X217190443Y-87894481D01*
X217124260Y-87901000D01*
X217035740Y-87901000D01*
X216969557Y-87894481D01*
X216903373Y-87887963D01*
X216733534Y-87836443D01*
X216577009Y-87752778D01*
X216541271Y-87723448D01*
X216439814Y-87640186D01*
X216356552Y-87538729D01*
X216327222Y-87502991D01*
X216243557Y-87346466D01*
X216192037Y-87176627D01*
X216174641Y-87000000D01*
X216192037Y-86823373D01*
X216243557Y-86653534D01*
X216327222Y-86497009D01*
X216356552Y-86461271D01*
X216439814Y-86359814D01*
X216541271Y-86276552D01*
X216577009Y-86247222D01*
X216733534Y-86163557D01*
X216903373Y-86112037D01*
X216969558Y-86105518D01*
X217035740Y-86099000D01*
X217124260Y-86099000D01*
X217190442Y-86105518D01*
X217190442Y-86105518D01*
G37*
G36*
X214650442Y-86105518D02*
G01*
X214716627Y-86112037D01*
X214886466Y-86163557D01*
X215042991Y-86247222D01*
X215078729Y-86276552D01*
X215180186Y-86359814D01*
X215263448Y-86461271D01*
X215292778Y-86497009D01*
X215376443Y-86653534D01*
X215427963Y-86823373D01*
X215445359Y-87000000D01*
X215427963Y-87176627D01*
X215376443Y-87346466D01*
X215292778Y-87502991D01*
X215263448Y-87538729D01*
X215180186Y-87640186D01*
X215078729Y-87723448D01*
X215042991Y-87752778D01*
X214886466Y-87836443D01*
X214716627Y-87887963D01*
X214650443Y-87894481D01*
X214584260Y-87901000D01*
X214495740Y-87901000D01*
X214429557Y-87894481D01*
X214363373Y-87887963D01*
X214193534Y-87836443D01*
X214037009Y-87752778D01*
X214001271Y-87723448D01*
X213899814Y-87640186D01*
X213816552Y-87538729D01*
X213787222Y-87502991D01*
X213703557Y-87346466D01*
X213652037Y-87176627D01*
X213634641Y-87000000D01*
X213652037Y-86823373D01*
X213703557Y-86653534D01*
X213787222Y-86497009D01*
X213816552Y-86461271D01*
X213899814Y-86359814D01*
X214001271Y-86276552D01*
X214037009Y-86247222D01*
X214193534Y-86163557D01*
X214363373Y-86112037D01*
X214429558Y-86105518D01*
X214495740Y-86099000D01*
X214584260Y-86099000D01*
X214650442Y-86105518D01*
X214650442Y-86105518D01*
G37*
G36*
X212110442Y-86105518D02*
G01*
X212176627Y-86112037D01*
X212346466Y-86163557D01*
X212502991Y-86247222D01*
X212538729Y-86276552D01*
X212640186Y-86359814D01*
X212723448Y-86461271D01*
X212752778Y-86497009D01*
X212836443Y-86653534D01*
X212887963Y-86823373D01*
X212905359Y-87000000D01*
X212887963Y-87176627D01*
X212836443Y-87346466D01*
X212752778Y-87502991D01*
X212723448Y-87538729D01*
X212640186Y-87640186D01*
X212538729Y-87723448D01*
X212502991Y-87752778D01*
X212346466Y-87836443D01*
X212176627Y-87887963D01*
X212110443Y-87894481D01*
X212044260Y-87901000D01*
X211955740Y-87901000D01*
X211889557Y-87894481D01*
X211823373Y-87887963D01*
X211653534Y-87836443D01*
X211497009Y-87752778D01*
X211461271Y-87723448D01*
X211359814Y-87640186D01*
X211276552Y-87538729D01*
X211247222Y-87502991D01*
X211163557Y-87346466D01*
X211112037Y-87176627D01*
X211094641Y-87000000D01*
X211112037Y-86823373D01*
X211163557Y-86653534D01*
X211247222Y-86497009D01*
X211276552Y-86461271D01*
X211359814Y-86359814D01*
X211461271Y-86276552D01*
X211497009Y-86247222D01*
X211653534Y-86163557D01*
X211823373Y-86112037D01*
X211889558Y-86105518D01*
X211955740Y-86099000D01*
X212044260Y-86099000D01*
X212110442Y-86105518D01*
X212110442Y-86105518D01*
G37*
G36*
X209570442Y-86105518D02*
G01*
X209636627Y-86112037D01*
X209806466Y-86163557D01*
X209962991Y-86247222D01*
X209998729Y-86276552D01*
X210100186Y-86359814D01*
X210183448Y-86461271D01*
X210212778Y-86497009D01*
X210296443Y-86653534D01*
X210347963Y-86823373D01*
X210365359Y-87000000D01*
X210347963Y-87176627D01*
X210296443Y-87346466D01*
X210212778Y-87502991D01*
X210183448Y-87538729D01*
X210100186Y-87640186D01*
X209998729Y-87723448D01*
X209962991Y-87752778D01*
X209806466Y-87836443D01*
X209636627Y-87887963D01*
X209570443Y-87894481D01*
X209504260Y-87901000D01*
X209415740Y-87901000D01*
X209349557Y-87894481D01*
X209283373Y-87887963D01*
X209113534Y-87836443D01*
X208957009Y-87752778D01*
X208921271Y-87723448D01*
X208819814Y-87640186D01*
X208736552Y-87538729D01*
X208707222Y-87502991D01*
X208623557Y-87346466D01*
X208572037Y-87176627D01*
X208554641Y-87000000D01*
X208572037Y-86823373D01*
X208623557Y-86653534D01*
X208707222Y-86497009D01*
X208736552Y-86461271D01*
X208819814Y-86359814D01*
X208921271Y-86276552D01*
X208957009Y-86247222D01*
X209113534Y-86163557D01*
X209283373Y-86112037D01*
X209349558Y-86105518D01*
X209415740Y-86099000D01*
X209504260Y-86099000D01*
X209570442Y-86105518D01*
X209570442Y-86105518D01*
G37*
G36*
X207030442Y-86105518D02*
G01*
X207096627Y-86112037D01*
X207266466Y-86163557D01*
X207422991Y-86247222D01*
X207458729Y-86276552D01*
X207560186Y-86359814D01*
X207643448Y-86461271D01*
X207672778Y-86497009D01*
X207756443Y-86653534D01*
X207807963Y-86823373D01*
X207825359Y-87000000D01*
X207807963Y-87176627D01*
X207756443Y-87346466D01*
X207672778Y-87502991D01*
X207643448Y-87538729D01*
X207560186Y-87640186D01*
X207458729Y-87723448D01*
X207422991Y-87752778D01*
X207266466Y-87836443D01*
X207096627Y-87887963D01*
X207030443Y-87894481D01*
X206964260Y-87901000D01*
X206875740Y-87901000D01*
X206809557Y-87894481D01*
X206743373Y-87887963D01*
X206573534Y-87836443D01*
X206417009Y-87752778D01*
X206381271Y-87723448D01*
X206279814Y-87640186D01*
X206196552Y-87538729D01*
X206167222Y-87502991D01*
X206083557Y-87346466D01*
X206032037Y-87176627D01*
X206014641Y-87000000D01*
X206032037Y-86823373D01*
X206083557Y-86653534D01*
X206167222Y-86497009D01*
X206196552Y-86461271D01*
X206279814Y-86359814D01*
X206381271Y-86276552D01*
X206417009Y-86247222D01*
X206573534Y-86163557D01*
X206743373Y-86112037D01*
X206809558Y-86105518D01*
X206875740Y-86099000D01*
X206964260Y-86099000D01*
X207030442Y-86105518D01*
X207030442Y-86105518D01*
G37*
G36*
X204490442Y-86105518D02*
G01*
X204556627Y-86112037D01*
X204726466Y-86163557D01*
X204882991Y-86247222D01*
X204918729Y-86276552D01*
X205020186Y-86359814D01*
X205103448Y-86461271D01*
X205132778Y-86497009D01*
X205216443Y-86653534D01*
X205267963Y-86823373D01*
X205285359Y-87000000D01*
X205267963Y-87176627D01*
X205216443Y-87346466D01*
X205132778Y-87502991D01*
X205103448Y-87538729D01*
X205020186Y-87640186D01*
X204918729Y-87723448D01*
X204882991Y-87752778D01*
X204726466Y-87836443D01*
X204556627Y-87887963D01*
X204490443Y-87894481D01*
X204424260Y-87901000D01*
X204335740Y-87901000D01*
X204269557Y-87894481D01*
X204203373Y-87887963D01*
X204033534Y-87836443D01*
X203877009Y-87752778D01*
X203841271Y-87723448D01*
X203739814Y-87640186D01*
X203656552Y-87538729D01*
X203627222Y-87502991D01*
X203543557Y-87346466D01*
X203492037Y-87176627D01*
X203474641Y-87000000D01*
X203492037Y-86823373D01*
X203543557Y-86653534D01*
X203627222Y-86497009D01*
X203656552Y-86461271D01*
X203739814Y-86359814D01*
X203841271Y-86276552D01*
X203877009Y-86247222D01*
X204033534Y-86163557D01*
X204203373Y-86112037D01*
X204269558Y-86105518D01*
X204335740Y-86099000D01*
X204424260Y-86099000D01*
X204490442Y-86105518D01*
X204490442Y-86105518D01*
G37*
G36*
X200201000Y-87901000D02*
G01*
X198399000Y-87901000D01*
X198399000Y-86099000D01*
X200201000Y-86099000D01*
X200201000Y-87901000D01*
X200201000Y-87901000D01*
G37*
M02*
