M48
; DRILL file {KiCad 5.1.2-f72e74a~84~ubuntu18.04.1} date Ср 19 июн 2019 19:18:43
; FORMAT={-:-/ absolute / metric / decimal}
; #@! TF.CreationDate,2019-06-19T19:18:43+07:00
; #@! TF.GenerationSoftware,Kicad,Pcbnew,5.1.2-f72e74a~84~ubuntu18.04.1
; #@! TF.FileFunction,Plated,1,2,PTH
FMAT,2
METRIC
T1C0.300
T2C1.000
%
G90
G05
T1
X200.3Y-90.5
X200.385Y-101.715
X200.505Y-97.905
X202.7Y-90.6
X203.708Y-101.092
X204.8Y-94.1
X205.39Y-90.44
X205.5Y-89.15
X206.405Y-94.095
X208.51Y-89.48
X210.0Y-100.575
X212.0Y-90.9
X218.5Y-91.0
X222.2Y-93.3
T2
X199.14Y-104.5
X201.68Y-104.5
X204.22Y-104.5
X206.76Y-104.5
X209.3Y-104.5
X211.84Y-104.5
X216.76Y-104.5
X219.3Y-104.5
X221.84Y-104.5
X199.3Y-87.0
X201.84Y-87.0
X204.38Y-87.0
X206.92Y-87.0
X209.46Y-87.0
X212.0Y-87.0
X214.54Y-87.0
X217.08Y-87.0
X219.62Y-87.0
X222.16Y-87.0
T0
M30
