%FSLAX45Y45*%
G04 Gerber Fmt 4.5, Leading zero omitted, Abs format (unit mm)*
G04 Created by KiCad (PCBNEW 5.1.2-f72e74a~84~ubuntu18.04.1) date 2019-06-19 19:18:45*
%MOMM*%
%LPD*%
G04 APERTURE LIST*
%ADD10C,0.050000*%
%ADD11C,0.200000*%
%ADD12C,0.300000*%
G04 APERTURE END LIST*
D10*
X19700000Y-8500000D02*
X19700000Y-10600000D01*
X22400000Y-8500000D02*
X19700000Y-8500000D01*
X22400000Y-10700000D02*
X22400000Y-8500000D01*
X19700000Y-10700000D02*
X22400000Y-10700000D01*
X19700000Y-10600000D02*
X19700000Y-10700000D01*
D11*
X20015000Y-9035000D02*
X20045000Y-9065000D01*
X20045000Y-9035000D02*
X20015000Y-9065000D01*
X20023500Y-10156500D02*
X20053500Y-10186500D01*
X20053500Y-10156500D02*
X20023500Y-10186500D01*
X20035500Y-9775500D02*
X20065500Y-9805500D01*
X20065500Y-9775500D02*
X20035500Y-9805500D01*
X20255000Y-9044998D02*
X20285000Y-9074998D01*
X20285000Y-9044998D02*
X20255000Y-9074998D01*
X20355800Y-10094200D02*
X20385800Y-10124200D01*
X20385800Y-10094200D02*
X20355800Y-10124200D01*
X20465000Y-9395000D02*
X20495000Y-9425000D01*
X20495000Y-9395000D02*
X20465000Y-9425000D01*
X20524000Y-9029000D02*
X20554000Y-9059000D01*
X20554000Y-9029000D02*
X20524000Y-9059000D01*
X20535000Y-8900001D02*
X20565000Y-8930001D01*
X20565000Y-8900001D02*
X20535000Y-8930001D01*
X20625500Y-9394500D02*
X20655500Y-9424500D01*
X20655500Y-9394500D02*
X20625500Y-9424500D01*
X20836000Y-8933000D02*
X20866000Y-8963000D01*
X20866000Y-8933000D02*
X20836000Y-8963000D01*
X20985000Y-10042500D02*
X21015000Y-10072500D01*
X21015000Y-10042500D02*
X20985000Y-10072500D01*
X21185000Y-9075000D02*
X21215000Y-9105000D01*
X21215000Y-9075000D02*
X21185000Y-9105000D01*
X21835000Y-9085000D02*
X21865000Y-9115000D01*
X21865000Y-9085000D02*
X21835000Y-9115000D01*
X22205000Y-9315000D02*
X22235000Y-9345000D01*
X22235000Y-9315000D02*
X22205000Y-9345000D01*
X19964000Y-10450000D02*
G75*
G03X19964000Y-10450000I-50000J0D01*
G01*
X20218000Y-10450000D02*
G75*
G03X20218000Y-10450000I-50000J0D01*
G01*
X20472000Y-10450000D02*
G75*
G03X20472000Y-10450000I-50000J0D01*
G01*
X20726000Y-10450000D02*
G75*
G03X20726000Y-10450000I-50000J0D01*
G01*
X20980000Y-10450000D02*
G75*
G03X20980000Y-10450000I-50000J0D01*
G01*
X21234000Y-10450000D02*
G75*
G03X21234000Y-10450000I-50000J0D01*
G01*
X21726000Y-10450000D02*
G75*
G03X21726000Y-10450000I-50000J0D01*
G01*
X21980000Y-10450000D02*
G75*
G03X21980000Y-10450000I-50000J0D01*
G01*
X22234000Y-10450000D02*
G75*
G03X22234000Y-10450000I-50000J0D01*
G01*
X19980000Y-8700000D02*
G75*
G03X19980000Y-8700000I-50000J0D01*
G01*
X20234000Y-8700000D02*
G75*
G03X20234000Y-8700000I-50000J0D01*
G01*
X20488000Y-8700000D02*
G75*
G03X20488000Y-8700000I-50000J0D01*
G01*
X20742000Y-8700000D02*
G75*
G03X20742000Y-8700000I-50000J0D01*
G01*
X20996000Y-8700000D02*
G75*
G03X20996000Y-8700000I-50000J0D01*
G01*
X21250000Y-8700000D02*
G75*
G03X21250000Y-8700000I-50000J0D01*
G01*
X21504000Y-8700000D02*
G75*
G03X21504000Y-8700000I-50000J0D01*
G01*
X21758000Y-8700000D02*
G75*
G03X21758000Y-8700000I-50000J0D01*
G01*
X22012000Y-8700000D02*
G75*
G03X22012000Y-8700000I-50000J0D01*
G01*
X22266000Y-8700000D02*
G75*
G03X22266000Y-8700000I-50000J0D01*
G01*
D12*
X19983928Y-11168214D02*
X19983928Y-10868214D01*
X20055357Y-10868214D01*
X20098214Y-10882500D01*
X20126786Y-10911072D01*
X20141071Y-10939643D01*
X20155357Y-10996786D01*
X20155357Y-11039643D01*
X20141071Y-11096786D01*
X20126786Y-11125357D01*
X20098214Y-11153929D01*
X20055357Y-11168214D01*
X19983928Y-11168214D01*
X20283928Y-11168214D02*
X20283928Y-10968214D01*
X20283928Y-11025357D02*
X20298214Y-10996786D01*
X20312500Y-10982500D01*
X20341071Y-10968214D01*
X20369643Y-10968214D01*
X20469643Y-11168214D02*
X20469643Y-10968214D01*
X20469643Y-10868214D02*
X20455357Y-10882500D01*
X20469643Y-10896786D01*
X20483928Y-10882500D01*
X20469643Y-10868214D01*
X20469643Y-10896786D01*
X20655357Y-11168214D02*
X20626786Y-11153929D01*
X20612500Y-11125357D01*
X20612500Y-10868214D01*
X20812500Y-11168214D02*
X20783928Y-11153929D01*
X20769643Y-11125357D01*
X20769643Y-10868214D01*
X21155357Y-11168214D02*
X21155357Y-10868214D01*
X21255357Y-11082500D01*
X21355357Y-10868214D01*
X21355357Y-11168214D01*
X21626786Y-11168214D02*
X21626786Y-11011072D01*
X21612500Y-10982500D01*
X21583928Y-10968214D01*
X21526786Y-10968214D01*
X21498214Y-10982500D01*
X21626786Y-11153929D02*
X21598214Y-11168214D01*
X21526786Y-11168214D01*
X21498214Y-11153929D01*
X21483928Y-11125357D01*
X21483928Y-11096786D01*
X21498214Y-11068214D01*
X21526786Y-11053929D01*
X21598214Y-11053929D01*
X21626786Y-11039643D01*
X21769643Y-10968214D02*
X21769643Y-11268214D01*
X21769643Y-10982500D02*
X21798214Y-10968214D01*
X21855357Y-10968214D01*
X21883928Y-10982500D01*
X21898214Y-10996786D01*
X21912500Y-11025357D01*
X21912500Y-11111072D01*
X21898214Y-11139643D01*
X21883928Y-11153929D01*
X21855357Y-11168214D01*
X21798214Y-11168214D01*
X21769643Y-11153929D01*
X22041071Y-11139643D02*
X22055357Y-11153929D01*
X22041071Y-11168214D01*
X22026786Y-11153929D01*
X22041071Y-11139643D01*
X22041071Y-11168214D01*
X22041071Y-10982500D02*
X22055357Y-10996786D01*
X22041071Y-11011072D01*
X22026786Y-10996786D01*
X22041071Y-10982500D01*
X22041071Y-11011072D01*
X19667500Y-11647500D02*
X19697500Y-11677500D01*
X19697500Y-11647500D02*
X19667500Y-11677500D01*
X20041071Y-11498214D02*
X20069643Y-11498214D01*
X20098214Y-11512500D01*
X20112500Y-11526786D01*
X20126786Y-11555357D01*
X20141071Y-11612500D01*
X20141071Y-11683929D01*
X20126786Y-11741071D01*
X20112500Y-11769643D01*
X20098214Y-11783929D01*
X20069643Y-11798214D01*
X20041071Y-11798214D01*
X20012500Y-11783929D01*
X19998214Y-11769643D01*
X19983928Y-11741071D01*
X19969643Y-11683929D01*
X19969643Y-11612500D01*
X19983928Y-11555357D01*
X19998214Y-11526786D01*
X20012500Y-11512500D01*
X20041071Y-11498214D01*
X20269643Y-11769643D02*
X20283928Y-11783929D01*
X20269643Y-11798214D01*
X20255357Y-11783929D01*
X20269643Y-11769643D01*
X20269643Y-11798214D01*
X20383928Y-11498214D02*
X20569643Y-11498214D01*
X20469643Y-11612500D01*
X20512500Y-11612500D01*
X20541071Y-11626786D01*
X20555357Y-11641071D01*
X20569643Y-11669643D01*
X20569643Y-11741071D01*
X20555357Y-11769643D01*
X20541071Y-11783929D01*
X20512500Y-11798214D01*
X20426786Y-11798214D01*
X20398214Y-11783929D01*
X20383928Y-11769643D01*
X20755357Y-11498214D02*
X20783928Y-11498214D01*
X20812500Y-11512500D01*
X20826786Y-11526786D01*
X20841071Y-11555357D01*
X20855357Y-11612500D01*
X20855357Y-11683929D01*
X20841071Y-11741071D01*
X20826786Y-11769643D01*
X20812500Y-11783929D01*
X20783928Y-11798214D01*
X20755357Y-11798214D01*
X20726786Y-11783929D01*
X20712500Y-11769643D01*
X20698214Y-11741071D01*
X20683928Y-11683929D01*
X20683928Y-11612500D01*
X20698214Y-11555357D01*
X20712500Y-11526786D01*
X20726786Y-11512500D01*
X20755357Y-11498214D01*
X20983928Y-11798214D02*
X20983928Y-11598214D01*
X20983928Y-11626786D02*
X20998214Y-11612500D01*
X21026786Y-11598214D01*
X21069643Y-11598214D01*
X21098214Y-11612500D01*
X21112500Y-11641071D01*
X21112500Y-11798214D01*
X21112500Y-11641071D02*
X21126786Y-11612500D01*
X21155357Y-11598214D01*
X21198214Y-11598214D01*
X21226786Y-11612500D01*
X21241071Y-11641071D01*
X21241071Y-11798214D01*
X21383928Y-11798214D02*
X21383928Y-11598214D01*
X21383928Y-11626786D02*
X21398214Y-11612500D01*
X21426786Y-11598214D01*
X21469643Y-11598214D01*
X21498214Y-11612500D01*
X21512500Y-11641071D01*
X21512500Y-11798214D01*
X21512500Y-11641071D02*
X21526786Y-11612500D01*
X21555357Y-11598214D01*
X21598214Y-11598214D01*
X21626786Y-11612500D01*
X21641071Y-11641071D01*
X21641071Y-11798214D01*
X22226786Y-11483929D02*
X21969643Y-11869643D01*
X22612500Y-11498214D02*
X22641071Y-11498214D01*
X22669643Y-11512500D01*
X22683928Y-11526786D01*
X22698214Y-11555357D01*
X22712500Y-11612500D01*
X22712500Y-11683929D01*
X22698214Y-11741071D01*
X22683928Y-11769643D01*
X22669643Y-11783929D01*
X22641071Y-11798214D01*
X22612500Y-11798214D01*
X22583928Y-11783929D01*
X22569643Y-11769643D01*
X22555357Y-11741071D01*
X22541071Y-11683929D01*
X22541071Y-11612500D01*
X22555357Y-11555357D01*
X22569643Y-11526786D01*
X22583928Y-11512500D01*
X22612500Y-11498214D01*
X22841071Y-11769643D02*
X22855357Y-11783929D01*
X22841071Y-11798214D01*
X22826786Y-11783929D01*
X22841071Y-11769643D01*
X22841071Y-11798214D01*
X23041071Y-11498214D02*
X23069643Y-11498214D01*
X23098214Y-11512500D01*
X23112500Y-11526786D01*
X23126786Y-11555357D01*
X23141071Y-11612500D01*
X23141071Y-11683929D01*
X23126786Y-11741071D01*
X23112500Y-11769643D01*
X23098214Y-11783929D01*
X23069643Y-11798214D01*
X23041071Y-11798214D01*
X23012500Y-11783929D01*
X22998214Y-11769643D01*
X22983928Y-11741071D01*
X22969643Y-11683929D01*
X22969643Y-11612500D01*
X22983928Y-11555357D01*
X22998214Y-11526786D01*
X23012500Y-11512500D01*
X23041071Y-11498214D01*
X23426786Y-11798214D02*
X23255357Y-11798214D01*
X23341071Y-11798214D02*
X23341071Y-11498214D01*
X23312500Y-11541071D01*
X23283928Y-11569643D01*
X23255357Y-11583929D01*
X23541071Y-11526786D02*
X23555357Y-11512500D01*
X23583928Y-11498214D01*
X23655357Y-11498214D01*
X23683928Y-11512500D01*
X23698214Y-11526786D01*
X23712500Y-11555357D01*
X23712500Y-11583929D01*
X23698214Y-11626786D01*
X23526786Y-11798214D01*
X23712500Y-11798214D01*
X23826786Y-11498214D02*
X23826786Y-11555357D01*
X23941071Y-11498214D02*
X23941071Y-11555357D01*
X24383928Y-11912500D02*
X24369643Y-11898214D01*
X24341071Y-11855357D01*
X24326786Y-11826786D01*
X24312500Y-11783929D01*
X24298214Y-11712500D01*
X24298214Y-11655357D01*
X24312500Y-11583929D01*
X24326786Y-11541071D01*
X24341071Y-11512500D01*
X24369643Y-11469643D01*
X24383928Y-11455357D01*
X24655357Y-11798214D02*
X24483928Y-11798214D01*
X24569643Y-11798214D02*
X24569643Y-11498214D01*
X24541071Y-11541071D01*
X24512500Y-11569643D01*
X24483928Y-11583929D01*
X24912500Y-11598214D02*
X24912500Y-11798214D01*
X24841071Y-11483929D02*
X24769643Y-11698214D01*
X24955357Y-11698214D01*
X25298214Y-11798214D02*
X25298214Y-11498214D01*
X25426786Y-11798214D02*
X25426786Y-11641071D01*
X25412500Y-11612500D01*
X25383928Y-11598214D01*
X25341071Y-11598214D01*
X25312500Y-11612500D01*
X25298214Y-11626786D01*
X25612500Y-11798214D02*
X25583928Y-11783929D01*
X25569643Y-11769643D01*
X25555357Y-11741071D01*
X25555357Y-11655357D01*
X25569643Y-11626786D01*
X25583928Y-11612500D01*
X25612500Y-11598214D01*
X25655357Y-11598214D01*
X25683928Y-11612500D01*
X25698214Y-11626786D01*
X25712500Y-11655357D01*
X25712500Y-11741071D01*
X25698214Y-11769643D01*
X25683928Y-11783929D01*
X25655357Y-11798214D01*
X25612500Y-11798214D01*
X25883928Y-11798214D02*
X25855357Y-11783929D01*
X25841071Y-11755357D01*
X25841071Y-11498214D01*
X26112500Y-11783929D02*
X26083928Y-11798214D01*
X26026786Y-11798214D01*
X25998214Y-11783929D01*
X25983928Y-11755357D01*
X25983928Y-11641071D01*
X25998214Y-11612500D01*
X26026786Y-11598214D01*
X26083928Y-11598214D01*
X26112500Y-11612500D01*
X26126786Y-11641071D01*
X26126786Y-11669643D01*
X25983928Y-11698214D01*
X26241071Y-11783929D02*
X26269643Y-11798214D01*
X26326786Y-11798214D01*
X26355357Y-11783929D01*
X26369643Y-11755357D01*
X26369643Y-11741071D01*
X26355357Y-11712500D01*
X26326786Y-11698214D01*
X26283928Y-11698214D01*
X26255357Y-11683929D01*
X26241071Y-11655357D01*
X26241071Y-11641071D01*
X26255357Y-11612500D01*
X26283928Y-11598214D01*
X26326786Y-11598214D01*
X26355357Y-11612500D01*
X26469643Y-11912500D02*
X26483928Y-11898214D01*
X26512500Y-11855357D01*
X26526786Y-11826786D01*
X26541071Y-11783929D01*
X26555357Y-11712500D01*
X26555357Y-11655357D01*
X26541071Y-11583929D01*
X26526786Y-11541071D01*
X26512500Y-11512500D01*
X26483928Y-11469643D01*
X26469643Y-11455357D01*
X19697500Y-12058500D02*
G75*
G03X19697500Y-12058500I-50000J0D01*
G01*
X20141071Y-12194214D02*
X19969643Y-12194214D01*
X20055357Y-12194214D02*
X20055357Y-11894214D01*
X20026786Y-11937071D01*
X19998214Y-11965643D01*
X19969643Y-11979929D01*
X20269643Y-12165643D02*
X20283928Y-12179929D01*
X20269643Y-12194214D01*
X20255357Y-12179929D01*
X20269643Y-12165643D01*
X20269643Y-12194214D01*
X20469643Y-11894214D02*
X20498214Y-11894214D01*
X20526786Y-11908500D01*
X20541071Y-11922786D01*
X20555357Y-11951357D01*
X20569643Y-12008500D01*
X20569643Y-12079929D01*
X20555357Y-12137071D01*
X20541071Y-12165643D01*
X20526786Y-12179929D01*
X20498214Y-12194214D01*
X20469643Y-12194214D01*
X20441071Y-12179929D01*
X20426786Y-12165643D01*
X20412500Y-12137071D01*
X20398214Y-12079929D01*
X20398214Y-12008500D01*
X20412500Y-11951357D01*
X20426786Y-11922786D01*
X20441071Y-11908500D01*
X20469643Y-11894214D01*
X20755357Y-11894214D02*
X20783928Y-11894214D01*
X20812500Y-11908500D01*
X20826786Y-11922786D01*
X20841071Y-11951357D01*
X20855357Y-12008500D01*
X20855357Y-12079929D01*
X20841071Y-12137071D01*
X20826786Y-12165643D01*
X20812500Y-12179929D01*
X20783928Y-12194214D01*
X20755357Y-12194214D01*
X20726786Y-12179929D01*
X20712500Y-12165643D01*
X20698214Y-12137071D01*
X20683928Y-12079929D01*
X20683928Y-12008500D01*
X20698214Y-11951357D01*
X20712500Y-11922786D01*
X20726786Y-11908500D01*
X20755357Y-11894214D01*
X20983928Y-12194214D02*
X20983928Y-11994214D01*
X20983928Y-12022786D02*
X20998214Y-12008500D01*
X21026786Y-11994214D01*
X21069643Y-11994214D01*
X21098214Y-12008500D01*
X21112500Y-12037071D01*
X21112500Y-12194214D01*
X21112500Y-12037071D02*
X21126786Y-12008500D01*
X21155357Y-11994214D01*
X21198214Y-11994214D01*
X21226786Y-12008500D01*
X21241071Y-12037071D01*
X21241071Y-12194214D01*
X21383928Y-12194214D02*
X21383928Y-11994214D01*
X21383928Y-12022786D02*
X21398214Y-12008500D01*
X21426786Y-11994214D01*
X21469643Y-11994214D01*
X21498214Y-12008500D01*
X21512500Y-12037071D01*
X21512500Y-12194214D01*
X21512500Y-12037071D02*
X21526786Y-12008500D01*
X21555357Y-11994214D01*
X21598214Y-11994214D01*
X21626786Y-12008500D01*
X21641071Y-12037071D01*
X21641071Y-12194214D01*
X22226786Y-11879929D02*
X21969643Y-12265643D01*
X22612500Y-11894214D02*
X22641071Y-11894214D01*
X22669643Y-11908500D01*
X22683928Y-11922786D01*
X22698214Y-11951357D01*
X22712500Y-12008500D01*
X22712500Y-12079929D01*
X22698214Y-12137071D01*
X22683928Y-12165643D01*
X22669643Y-12179929D01*
X22641071Y-12194214D01*
X22612500Y-12194214D01*
X22583928Y-12179929D01*
X22569643Y-12165643D01*
X22555357Y-12137071D01*
X22541071Y-12079929D01*
X22541071Y-12008500D01*
X22555357Y-11951357D01*
X22569643Y-11922786D01*
X22583928Y-11908500D01*
X22612500Y-11894214D01*
X22841071Y-12165643D02*
X22855357Y-12179929D01*
X22841071Y-12194214D01*
X22826786Y-12179929D01*
X22841071Y-12165643D01*
X22841071Y-12194214D01*
X23041071Y-11894214D02*
X23069643Y-11894214D01*
X23098214Y-11908500D01*
X23112500Y-11922786D01*
X23126786Y-11951357D01*
X23141071Y-12008500D01*
X23141071Y-12079929D01*
X23126786Y-12137071D01*
X23112500Y-12165643D01*
X23098214Y-12179929D01*
X23069643Y-12194214D01*
X23041071Y-12194214D01*
X23012500Y-12179929D01*
X22998214Y-12165643D01*
X22983928Y-12137071D01*
X22969643Y-12079929D01*
X22969643Y-12008500D01*
X22983928Y-11951357D01*
X22998214Y-11922786D01*
X23012500Y-11908500D01*
X23041071Y-11894214D01*
X23241071Y-11894214D02*
X23426786Y-11894214D01*
X23326786Y-12008500D01*
X23369643Y-12008500D01*
X23398214Y-12022786D01*
X23412500Y-12037071D01*
X23426786Y-12065643D01*
X23426786Y-12137071D01*
X23412500Y-12165643D01*
X23398214Y-12179929D01*
X23369643Y-12194214D01*
X23283928Y-12194214D01*
X23255357Y-12179929D01*
X23241071Y-12165643D01*
X23569643Y-12194214D02*
X23626786Y-12194214D01*
X23655357Y-12179929D01*
X23669643Y-12165643D01*
X23698214Y-12122786D01*
X23712500Y-12065643D01*
X23712500Y-11951357D01*
X23698214Y-11922786D01*
X23683928Y-11908500D01*
X23655357Y-11894214D01*
X23598214Y-11894214D01*
X23569643Y-11908500D01*
X23555357Y-11922786D01*
X23541071Y-11951357D01*
X23541071Y-12022786D01*
X23555357Y-12051357D01*
X23569643Y-12065643D01*
X23598214Y-12079929D01*
X23655357Y-12079929D01*
X23683928Y-12065643D01*
X23698214Y-12051357D01*
X23712500Y-12022786D01*
X23826786Y-11894214D02*
X23826786Y-11951357D01*
X23941071Y-11894214D02*
X23941071Y-11951357D01*
X24383928Y-12308500D02*
X24369643Y-12294214D01*
X24341071Y-12251357D01*
X24326786Y-12222786D01*
X24312500Y-12179929D01*
X24298214Y-12108500D01*
X24298214Y-12051357D01*
X24312500Y-11979929D01*
X24326786Y-11937071D01*
X24341071Y-11908500D01*
X24369643Y-11865643D01*
X24383928Y-11851357D01*
X24655357Y-12194214D02*
X24483928Y-12194214D01*
X24569643Y-12194214D02*
X24569643Y-11894214D01*
X24541071Y-11937071D01*
X24512500Y-11965643D01*
X24483928Y-11979929D01*
X24798214Y-12194214D02*
X24855357Y-12194214D01*
X24883928Y-12179929D01*
X24898214Y-12165643D01*
X24926786Y-12122786D01*
X24941071Y-12065643D01*
X24941071Y-11951357D01*
X24926786Y-11922786D01*
X24912500Y-11908500D01*
X24883928Y-11894214D01*
X24826786Y-11894214D01*
X24798214Y-11908500D01*
X24783928Y-11922786D01*
X24769643Y-11951357D01*
X24769643Y-12022786D01*
X24783928Y-12051357D01*
X24798214Y-12065643D01*
X24826786Y-12079929D01*
X24883928Y-12079929D01*
X24912500Y-12065643D01*
X24926786Y-12051357D01*
X24941071Y-12022786D01*
X25298214Y-12194214D02*
X25298214Y-11894214D01*
X25426786Y-12194214D02*
X25426786Y-12037071D01*
X25412500Y-12008500D01*
X25383928Y-11994214D01*
X25341071Y-11994214D01*
X25312500Y-12008500D01*
X25298214Y-12022786D01*
X25612500Y-12194214D02*
X25583928Y-12179929D01*
X25569643Y-12165643D01*
X25555357Y-12137071D01*
X25555357Y-12051357D01*
X25569643Y-12022786D01*
X25583928Y-12008500D01*
X25612500Y-11994214D01*
X25655357Y-11994214D01*
X25683928Y-12008500D01*
X25698214Y-12022786D01*
X25712500Y-12051357D01*
X25712500Y-12137071D01*
X25698214Y-12165643D01*
X25683928Y-12179929D01*
X25655357Y-12194214D01*
X25612500Y-12194214D01*
X25883928Y-12194214D02*
X25855357Y-12179929D01*
X25841071Y-12151357D01*
X25841071Y-11894214D01*
X26112500Y-12179929D02*
X26083928Y-12194214D01*
X26026786Y-12194214D01*
X25998214Y-12179929D01*
X25983928Y-12151357D01*
X25983928Y-12037071D01*
X25998214Y-12008500D01*
X26026786Y-11994214D01*
X26083928Y-11994214D01*
X26112500Y-12008500D01*
X26126786Y-12037071D01*
X26126786Y-12065643D01*
X25983928Y-12094214D01*
X26241071Y-12179929D02*
X26269643Y-12194214D01*
X26326786Y-12194214D01*
X26355357Y-12179929D01*
X26369643Y-12151357D01*
X26369643Y-12137071D01*
X26355357Y-12108500D01*
X26326786Y-12094214D01*
X26283928Y-12094214D01*
X26255357Y-12079929D01*
X26241071Y-12051357D01*
X26241071Y-12037071D01*
X26255357Y-12008500D01*
X26283928Y-11994214D01*
X26326786Y-11994214D01*
X26355357Y-12008500D01*
X26469643Y-12308500D02*
X26483928Y-12294214D01*
X26512500Y-12251357D01*
X26526786Y-12222786D01*
X26541071Y-12179929D01*
X26555357Y-12108500D01*
X26555357Y-12051357D01*
X26541071Y-11979929D01*
X26526786Y-11937071D01*
X26512500Y-11908500D01*
X26483928Y-11865643D01*
X26469643Y-11851357D01*
M02*
