%FSLAX45Y45*%
G04 Gerber Fmt 4.5, Leading zero omitted, Abs format (unit mm)*
G04 Created by KiCad (PCBNEW 5.1.2-f72e74a~84~ubuntu18.04.1) date 2019-06-19 19:18:45*
%MOMM*%
%LPD*%
G04 APERTURE LIST*
%ADD10C,0.050000*%
%ADD11C,0.200000*%
%ADD12C,0.300000*%
G04 APERTURE END LIST*
D10*
X19700000Y-8500000D02*
X19700000Y-10600000D01*
X22400000Y-8500000D02*
X19700000Y-8500000D01*
X22400000Y-10700000D02*
X22400000Y-8500000D01*
X19700000Y-10700000D02*
X22400000Y-10700000D01*
X19700000Y-10600000D02*
X19700000Y-10700000D01*
D11*
D12*
X19983928Y-11168214D02*
X19983928Y-10868214D01*
X20055357Y-10868214D01*
X20098214Y-10882500D01*
X20126786Y-10911072D01*
X20141071Y-10939643D01*
X20155357Y-10996786D01*
X20155357Y-11039643D01*
X20141071Y-11096786D01*
X20126786Y-11125357D01*
X20098214Y-11153929D01*
X20055357Y-11168214D01*
X19983928Y-11168214D01*
X20283928Y-11168214D02*
X20283928Y-10968214D01*
X20283928Y-11025357D02*
X20298214Y-10996786D01*
X20312500Y-10982500D01*
X20341071Y-10968214D01*
X20369643Y-10968214D01*
X20469643Y-11168214D02*
X20469643Y-10968214D01*
X20469643Y-10868214D02*
X20455357Y-10882500D01*
X20469643Y-10896786D01*
X20483928Y-10882500D01*
X20469643Y-10868214D01*
X20469643Y-10896786D01*
X20655357Y-11168214D02*
X20626786Y-11153929D01*
X20612500Y-11125357D01*
X20612500Y-10868214D01*
X20812500Y-11168214D02*
X20783928Y-11153929D01*
X20769643Y-11125357D01*
X20769643Y-10868214D01*
X21155357Y-11168214D02*
X21155357Y-10868214D01*
X21255357Y-11082500D01*
X21355357Y-10868214D01*
X21355357Y-11168214D01*
X21626786Y-11168214D02*
X21626786Y-11011072D01*
X21612500Y-10982500D01*
X21583928Y-10968214D01*
X21526786Y-10968214D01*
X21498214Y-10982500D01*
X21626786Y-11153929D02*
X21598214Y-11168214D01*
X21526786Y-11168214D01*
X21498214Y-11153929D01*
X21483928Y-11125357D01*
X21483928Y-11096786D01*
X21498214Y-11068214D01*
X21526786Y-11053929D01*
X21598214Y-11053929D01*
X21626786Y-11039643D01*
X21769643Y-10968214D02*
X21769643Y-11268214D01*
X21769643Y-10982500D02*
X21798214Y-10968214D01*
X21855357Y-10968214D01*
X21883928Y-10982500D01*
X21898214Y-10996786D01*
X21912500Y-11025357D01*
X21912500Y-11111072D01*
X21898214Y-11139643D01*
X21883928Y-11153929D01*
X21855357Y-11168214D01*
X21798214Y-11168214D01*
X21769643Y-11153929D01*
X22041071Y-11139643D02*
X22055357Y-11153929D01*
X22041071Y-11168214D01*
X22026786Y-11153929D01*
X22041071Y-11139643D01*
X22041071Y-11168214D01*
X22041071Y-10982500D02*
X22055357Y-10996786D01*
X22041071Y-11011072D01*
X22026786Y-10996786D01*
X22041071Y-10982500D01*
X22041071Y-11011072D01*
M02*
